<?xml version="1.0"?>
<svg viewBox="0 0 350 350" width="350" heigh ="350" id="map" draggable="false" xmlns="http://www.w3.org/2000/svg" xmlns:svg="http://www.w3.org/2000/svg" clip-rule="evenodd" version="1.1">
  <title>Layer 1</title>
  <g id="svg_131" transform="matrix(1 0 0 1 0 0)">
   <path d="m82.5,128.5c1.33,0 2.67,0 4,0c4.33,0 8.67,0 13,0c-4.85,0.83 -9.85,1.49 -15,2c0,3.67 0,7.33 0,11c-0.67,0 -1,0.33 -1,1c-4.33,0 -8.67,0 -13,0c0,3 0,6 0,9c-0.67,0 -1,-0.33 -1,-1c0,-3 0,-6 0,-9c4.33,0 8.67,0 13,0c0,-4.33 0,-8.67 0,-13z" fill="#726a3f" id="svg_132"/>
  </g>
  <g id="svg_1">
   <path d="m156.5,79.5c0,0.98 0,1.96 0,2.94c-1,0 -2,0 -3,0c-1.33,0 -2.67,0 -4,0c0,4.24 0,8.5 0,12.74c-0.98,-3.73 -1.32,-7.65 -1,-11.76c-3.33,0 -6.67,0 -10,0c-0.33,0 -0.67,0 -1,0c1.44,-0.91 2.77,-2.06 4,-3.43c4.99,-0.49 9.99,-0.66 15,-0.49z" fill="#7b8c52" id="svg_2" opacity="0.82"/>
  </g>
  <rect fill="#007f00" height="41.64" id="svg_10" stroke="#ffaad4" transform="matrix(1 0 0 1 0 0)" width="159.31" x="40.54" y="128.86"/>
  <g id="svg_203" transform="matrix(1 0 0 1 0 0)">
   <path d="m128.5,153.5c0.98,3.13 1.31,6.46 1,10c4,0 8,0 12,0c-0.47,2.58 0.19,4.58 2,6c0,0.67 0,1.33 0,2c1.37,2.09 2.03,4.42 2,7c-1.6,-0.79 -2.27,-2.12 -2,-4c-1,0 -2,0 -3,0c0.51,2.39 1.18,4.73 2,7c-0.62,0.11 -1.12,0.44 -1.5,1c-0.66,-2.31 -1.16,-4.65 -1.5,-7c-3,0 -6,0 -9,0c0,1.33 0,2.67 0,4c-4.28,0.51 -8.28,-0.16 -12,-2c-0.78,1.83 -0.12,3.33 2,4.5c2.86,-0.03 5.19,0.8 7,2.5c-4,0 -8,0 -12,0c0,-3 0,-6 0,-9c3.67,0 7.33,0 11,0c0,-3.33 0,-6.67 0,-10c-3.54,-0.31 -6.87,0.02 -10,1c-0.33,0 -0.67,0 -1,0c-3.46,-0.98 -7.13,-1.31 -11,-1c0,-0.33 0,-0.67 0,-1c8,0 16,0 24,0c0,-3.67 0,-7.33 0,-11zm12,21c-3.33,0 -6.67,0 -10,0c0.1,-6.59 3.27,-9.59 9.5,-9c0.5,2.98 0.66,5.98 0.5,9z" fill="#879672" id="svg_204" opacity="0.89"/>
  </g>
  <g id="svg_95" transform="matrix(1 0 0 1 0 0)">
   <path d="m321,139.5c0,3.33 0,6.67 0,10c-2.74,0.31 -5.27,-0.03 -7.59,-1c0.16,-3.68 0,-7.35 -0.47,-11c-0.36,-0.56 -0.84,-0.89 -1.42,-1c-7.73,-0.99 -15.63,-1.33 -23.71,-1c0,4.33 0,8.67 0,13c-0.63,-2.14 -0.95,-4.47 -0.95,-7c0.03,-2.77 0.66,-5.1 1.9,-7c1.59,-0.68 2.22,-2.02 1.89,-4c5.38,0 10.75,0 16.13,0c0,-3.67 0,-7.33 0,-11c3.84,-0.32 7.63,0.01 11.38,1c1.03,3.61 1.19,7.28 0.47,11c-5.71,1.38 -5.55,2.05 0.47,2c-0.45,2.58 0.19,4.58 1.9,6z" fill="#3ed0d2" id="svg_96"/>
  </g>
 <g id="svg_3" transform="matrix(1 0 0 1 0 0)">
   <path d="m110.5,82.5c4.01,-0.17 8.01,0 12,0.5c0.56,0.38 0.89,0.88 1,1.5c-2.67,0 -5.33,0 -8,0c-3.46,-0.98 -7.13,-1.31 -11,-1c-0.33,0 -0.67,0 -1,0c-0.33,0 -0.67,0 -1,0c-1.12,-4.73 -4.12,-6.73 -9,-6c-0.67,-2.67 -1.33,-5.33 -2,-8c-3.35,-0.11 -6.68,-0.45 -10,-1c-7.03,0.93 -14.03,1.93 -21,3c-0.13,3.78 -0.8,7.45 -2,11c-2.67,0 -5.33,0 -8,0c-1.33,0 -2.67,0 -4,0c-0.32,4.53 0.02,8.87 1,13c4.13,0.98 8.47,1.32 13,1c-5.14,0.99 -10.47,1.32 -16,1c0.42,2.28 -0.24,3.95 -2,5c0,-2.67 0,-5.33 0,-8c1,0 2,0 3,0c0,-3.67 0,-7.33 0,-11c-4.67,0 -9.33,0 -14,0c0.32,4.53 -0.02,8.87 -1,13c0,-4.67 0,-9.33 0,-14c2.36,0.16 4.69,0 7,-0.5c2.7,-1.92 5.7,-3.25 9,-4c2.93,-0.78 5.76,-0.61 8.5,0.5c2.34,-2.35 3.84,-5.18 4.5,-8.5c6.77,-2.12 13.77,-3.28 21,-3.5c2.67,0.17 5.33,0.33 8,0.5c1.45,1.12 3.12,1.78 5,2c0.75,1.73 1.25,3.57 1.5,5.5c2.41,0.77 4.91,1.27 7.5,1.5c0.84,1.01 1.17,2.18 1,3.5c1.33,0 2.67,0 4,0c0,1 0,2 0,3c1,0 2,0 3,0z" fill="#79995a" id="svg_4" opacity="0.99"/>
  </g>
  <g id="svg_5">
   <path d="m102.5,83.5c-14.33,0 -28.67,0 -43,0c0,-0.67 -0.33,-1 -1,-1c1.2,-3.55 1.87,-7.22 2,-11c6.97,-1.07 13.97,-2.07 21,-3c3.32,0.55 6.65,0.89 10,1c0.67,2.67 1.33,5.33 2,8c4.88,-0.73 7.88,1.27 9,6z" fill="#289345" id="svg_6"/>
  </g>
  <g id="svg_11">
   <path d="m110.5,82.5c2.14,-0.66 4.47,-1 7,-1c5.28,0.88 10.61,1.88 16,3c1.43,-0.12 2.76,-0.46 4,-1c0.33,0 0.67,0 1,0c0,1.67 0,3.33 0,5c-5.25,-0.46 -10.25,-1.8 -15,-4c-0.11,-0.62 -0.44,-1.12 -1,-1.5c-3.99,-0.5 -7.99,-0.67 -12,-0.5z" fill="#a6b39c" id="svg_12" opacity="0.74"/>
  </g>
  <g id="svg_15" transform="matrix(1 0 0 1 0 0)">
   <path d="m50.5,82.5c2.67,0 5.33,0 8,0c0.67,0 1,0.33 1,1c0.92,3.56 1.26,7.23 1,11c0,0.67 0,1.33 0,2c-4.53,0.32 -8.87,-0.02 -13,-1c3.67,0 7.33,0 11,0c0,-4 0,-8 0,-12c-2.89,0.31 -5.55,-0.03 -8,-1z" fill="#685e49" id="svg_16"/>
  </g>
  <g id="svg_21">
   <path d="m156.5,79.5c5.35,1.44 10.68,2.44 16,3c0,0.33 0,0.67 0,1c-3.35,-0.17 -6.68,0 -10,0.5c0.63,2.07 0.97,4.24 1,6.5c-0.04,2.45 -0.71,4.45 -2,6c-3.67,0 -7.33,0 -11,0c0,-0.33 0,-0.67 0,-1c3.67,0 7.33,0 11,0c0,-4 0,-8 0,-12c-2.88,0.31 -5.55,-0.03 -8,-1c1,0 2,0 3,0c0,-1 0,-2 0,-3z" fill="#756542" id="svg_22"/>
  </g>
  <g id="svg_23" transform="matrix(1 0 0 1 0 0)">
   <path d="m115.5,84.5c2.67,0 5.33,0 8,0c4.75,2.2 9.75,3.54 15,4c0,20.67 0,41.33 0,62c-3.12,0.98 -6.46,1.31 -10,1c-4.33,0 -8.67,0 -13,0c0,-22.33 0,-44.67 0,-67z" fill="#419543" id="svg_24"/>
  </g>
  <g id="svg_25">
   <path d="m172.5,83.5c0,-0.33 0,-0.67 0,-1c2.63,0.6 5.29,1.1 8,1.5c0.84,1.01 1.17,2.18 1,3.5c3.33,0 6.67,0 10,0c0,1 0,2 0,3c4.15,-0.58 7.82,0.09 11,2c-4.33,0 -8.67,0 -13,0c0,-1.33 0,-2.67 0,-4c-3.29,-0.43 -6.29,0.24 -9,2c-0.93,-1.19 -1.26,-2.52 -1,-4c-2,0 -4,0 -6,0c0.24,-1.29 -0.1,-2.29 -1,-3z" fill="#8e997d" id="svg_26" opacity="0.04"/>
  </g>
  <g id="svg_27" transform="matrix(1 0 0 1 0 0)">
   <path d="m173.5,86.5c2,0 4,0 6,0c-0.26,1.51 0.07,2.87 1,4.09c2.71,-1.8 5.71,-2.48 9,-2.04c0,1.37 0,2.72 0,4.09c4.33,0 8.67,0 13,0c0,0.69 0,1.37 0,2.04c2.13,1.91 4.8,2.59 8,2.04c-0.13,3.87 -0.8,7.62 -2,11.25c1.33,0 2.67,0 4,0c0,1.36 0,2.72 0,4.09c1.33,0 2.67,0 4,0c-0.2,-3.34 1.3,-5.38 4.5,-6.14c3.25,1.68 6.75,2.36 10.5,2.05c0,2.04 0,4.09 0,6.13c1.33,0 2.67,0 4,0c0,1.02 0,2.04 0,3.06c-2.24,-0.3 -4.24,0.04 -6,1.02c-0.33,0 -0.67,0 -1,0c-8.67,0 -17.33,0 -26,0c0.16,-3.43 0,-6.83 -0.5,-10.21c-0.18,3.26 -0.68,6.32 -1.5,9.19c0,-3.41 0,-6.82 0,-10.22c-3,0 -6,0 -9,0c0,3.41 0,6.82 0,10.22c-0.67,0 -1,0.33 -1,1.02c-5.33,0 -10.67,0 -16,0c-0.99,-10.38 -1.33,-20.94 -1,-31.68z" fill="#2c994b" id="svg_28"/>
  </g>
  <g id="svg_29"/>
  <g id="svg_33">
   <path d="m137.5,107.5c-0.67,0 -1.33,0 -2,0c-2,0 -4,0 -6,0c0.2,-1.89 -0.46,-3.39 -2,-4.5c-2.73,-0.73 -5.4,-0.56 -8,0.5c-0.49,5.58 -1.49,10.92 -3,16c-0.23,-9.75 0.43,-19.42 2,-29c3.67,0 7.33,0 11,0c0,1.33 0,2.67 0,4c2.33,0 4.67,0 7,0c0.43,4.32 0.76,8.66 1,13z" fill="#43cc5b" id="svg_34"/>
  </g>
  <g id="svg_35">
   <path d="m60.5,96.5c2.33,0 4.67,0 7,0c0,2 0,4 0,6c3,0 6,0 9,0c0.67,-2 1.33,-4 2,-6c8.18,-0.33 16.18,0.01 24,1c0,6 0,12 0,18c-4.33,0 -8.67,0 -13,0c0.55,-3.51 -0.11,-6.51 -2,-9c0,-0.33 0,-0.67 0,-1c-4,-1.33 -8,-1.33 -12,0c-0.84,0.34 -1.17,1.01 -1,2c-1.31,0.98 -2.65,1.98 -4,3c-2.51,-4.37 -5.85,-5.04 -10,-2c-2.48,-0.81 -3.81,-2.47 -4,-5c-2.33,0 -4.67,0 -7,0c0,2 0,4 0,6c1.33,0 2.67,0 4,0c0.93,4.35 2.27,8.51 4,12.5c-0.29,3.65 -2.29,5.15 -6,4.5c0.06,-2.52 -0.61,-4.85 -2,-7c0.66,-1.95 0.99,-3.95 1,-6c-2.29,-0.26 -4.46,0.08 -6.5,1c-0.27,1.6 -0.77,3.1 -1.5,4.5c0.95,0.48 1.95,0.65 3,0.5c-0.12,1.7 -0.45,3.36 -1,5c0.9,1.74 1.57,3.57 2,5.5c-0.59,2.76 -2.26,4.26 -5,4.5c0,1.33 0,2.67 0,4c-2.29,0.26 -4.46,-0.08 -6.5,-1c-0.33,-2.33 -0.67,-4.67 -1,-7c-2.1,-1.77 -4.43,-3.1 -7,-4c-0.5,-1.97 -0.66,-3.97 -0.5,-6c1.67,0 3.33,0 5,0c0,-1 0,-2 0,-3c3.67,0 7.33,0 11,0c0,-5 0,-10 0,-15c1.76,-1.05 2.42,-2.72 2,-5c5.53,0.32 10.86,-0.01 16,-1z" fill="#52d35e" id="svg_36"/>
  </g>
  <g id="svg_37" transform="matrix(1 0 0 1 0 0)">
   <path d="m202.5,94.85c3.61,-0.29 7.11,0.05 10.5,1.02c1,3.55 0.5,6.77 -1.5,9.65c1.5,0.85 2.67,2.04 3.5,3.56c0.5,-2 0.66,-4.04 0.5,-6.1c3.35,-0.17 6.68,0 10,0.51c2.46,1.57 4.79,3.1 7,4.58c-0.33,0 -0.67,0 -1,0c-3.75,0.3 -7.25,-0.37 -10.5,-2.04c-3.2,0.75 -4.7,2.78 -4.5,6.11c-1.33,0 -2.67,0 -4,0c0,-1.36 0,-2.71 0,-4.07c-1.33,0 -2.67,0 -4,0c1.2,-3.61 1.87,-7.34 2,-11.18c-3.2,0.54 -5.87,-0.14 -8,-2.04z" fill="#8ca071" id="svg_38" opacity="0.96"/>
  </g>
  <g id="svg_39">
   <path d="m30.5,96.5c0.17,7.01 0.5,14.01 1,21c0,1 0,2 0,3c-1.67,0 -3.33,0 -5,0c-0.16,2.03 0,4.03 0.5,6c2.57,0.9 4.9,2.23 7,4c0.33,2.33 0.67,4.67 1,7c2.04,0.92 4.21,1.26 6.5,1c3.67,0 7.33,0 11,0c2,0 4,0 6,0c-0.33,0.67 -0.67,1.33 -1,2c-10.67,0 -21.33,0 -32,0c-0.33,0 -0.67,0 -1,0c0,-0.33 0,-0.67 0,-1c0,-7 0,-14 0,-21c-2.36,-0.17 -4.69,-0.51 -7,-1c0,-3.67 0,-7.33 0,-11c-1,0 -2,0 -3,0c-0.11,-0.62 -0.44,-1.12 -1,-1.5c3.39,-2.12 3.72,-4.62 1,-7.5c5.19,-3.49 10.52,-3.83 16,-1z" fill="#40974c" id="svg_40"/>
  </g>
  <g id="svg_41">
   <path d="m60.5,94.5c8.33,0 16.67,0 25,0c5.85,0.67 11.85,1.33 18,2c-0.12,0.61 -0.46,0.94 -1,1c-7.82,-0.99 -15.82,-1.33 -24,-1c-0.67,2 -1.33,4 -2,6c-3,0 -6,0 -9,0c0,-2 0,-4 0,-6c-2.33,0 -4.67,0 -7,0c0,-0.67 0,-1.33 0,-2z" fill="#329742" id="svg_42"/>
  </g>
  <g id="svg_43">
   <path d="m150.5,95.14c3.67,0 7.33,0 11,0c0,11.32 0,22.64 0,33.95c3.67,0 7.33,0 11,0c6.67,0 13.33,0 20,0c0,2.4 0,4.81 0,7.21c-1,0 -2,0 -3,0c-0.08,2.22 -0.75,4.28 -2,6.17c1.34,3.11 2.67,6.19 4,9.26c-13.67,0 -27.33,0 -41,0c0,-18.86 0,-37.73 0,-56.59z" fill="#299244" id="svg_44"/>
  </g>
  <g id="svg_45">
   <path d="m175.5,99.5c2,0 4,0 6,0c0,2 0,4 0,6c2,0 4,0 6,0c0.26,3.43 0.92,6.77 2,10c-4.67,0 -9.33,0 -14,0c0,-5.33 0,-10.67 0,-16z" fill="#43cd5c" id="svg_46"/>
  </g>
  <g id="svg_55">
   <path d="m164.5,130.5c0,2 0,4 0,6c-3.87,1.3 -7.87,1.97 -12,2c0,3.33 0,6.67 0,10c5.32,0.48 10.66,0.81 16,1c-5.52,1.21 -11.19,1.21 -17,0c0,-15.33 0,-30.67 0,-46c1,0 2,0 3,0c0,1.67 0,3.33 0,5c1.67,0 3.33,0 5,0c-0.17,6.67 0,13.34 0.5,20c1.05,1.61 2.55,2.27 4.5,2z" fill="#4bcc5c" id="svg_56"/>
  </g>
  <g id="svg_61" transform="matrix(1 0 0 1 0 0)">
   <path d="m75.5,105.5c0,7.33 0,14.67 0,22c-2,0 -4,0 -6,0c0,3.67 0,7.33 0,11c-3.67,0 -7.33,0 -11,0c-2,0 -4,0 -6,0c-1.22,-1.78 -1.89,-3.78 -2,-6c1.56,0.02 3.06,0.35 4.5,1c2.92,-0.88 5.76,-1.88 8.5,-3c-0.8,-6.46 -2.13,-12.79 -4,-19c3.49,0.41 6.82,1.41 10,3c0.95,1.55 1.29,3.21 1,5c1.33,0 2.67,0 4,0c0,-4 0,-8 0,-12c-0.17,-0.99 0.16,-1.66 1,-2z" fill="#b4fa7c" id="svg_62"/>
  </g>
  <g id="svg_63">
   <path d="m135.18,107.5c0,2 0,4 0,6c-2,0.67 -4,1.33 -6,2c1.34,8.31 4,15.98 8,23c0.3,3.94 -0.04,7.77 -1,11.5c-6.66,0.5 -13.32,0.67 -20,0.5c0,-10.33 0,-20.67 0,-31c1.51,-5.08 2.51,-10.42 3,-16c2.61,-1.06 5.27,-1.23 8,-0.5c1.54,1.11 2.21,2.61 2,4.5c2,0 4,0 6,0z" fill="#77e767" id="svg_64"/>
  </g>
  <g id="svg_65" transform="matrix(1 0 0 1 0 0)">
   <path d="m231.5,107.86c0.33,0 0.67,0 1,0c0,1.28 0,2.57 0,3.86c2.5,1.19 5.17,2.15 8,2.89c4.07,1.03 8.07,1.03 12,0c0.06,1.07 0.39,2.03 1,2.89c-8,0 -16,0 -24,0c1.76,-0.93 3.76,-1.25 6,-0.96c0,-0.96 0,-1.93 0,-2.89c-1.33,0 -2.67,0 -4,0c0,-1.93 0,-3.86 0,-5.79z" fill="#85868e" id="svg_66" opacity="0.65"/>
  </g>
  <g id="svg_67">
   <path d="m87.5,105.5c0,0.33 0,0.67 0,1c0.91,3.23 1.25,6.56 1,10c3.35,-0.17 6.68,0 10,0.5c0.56,0.38 0.89,0.88 1,1.5c0,3.33 0,6.67 0,10c-4.33,0 -8.67,0 -13,0c0,-0.33 0,-0.67 0,-1c0,-3 0,-6 0,-9c-3.19,-0.67 -6.52,-1.33 -10,-2c0.12,-0.61 0.46,-0.94 1,-1c3,0 6,0 9,0c0,-3 0,-6 0,-9c0,-0.67 0.33,-1 1,-1z" fill="#839d79" id="svg_68"/>
  </g>
  <g id="svg_71" transform="matrix(1 0 0 1 0 0)">
   <path d="m202.5,117.99c-3.87,1.29 -7.87,1.29 -12,0c0,-0.7 0.33,-1.05 1,-1.05c3,0 6,0 9,0c0.82,-2.95 1.32,-6.09 1.5,-9.44c0.5,3.48 0.66,6.98 0.5,10.49z" fill="#869870" id="svg_72"/>
  </g>
  <g id="svg_75" transform="matrix(1 0 0 1 0 0)">
   <path d="m103.5,83.5c0.33,0 0.67,0 1,0c0.32,22.74 -0.01,45.41 -1,68c-10.85,-0.33 -21.51,0.01 -32,1c-0.67,0 -1,-0.33 -1,-1c0,-3 0,-6 0,-9c4.33,0 8.67,0 13,0c0,-0.67 0.33,-1 1,-1c6.33,0 12.67,0 19,0c0.17,-7.34 0,-14.67 -0.5,-22c-1.01,-0.84 -2.18,-1.17 -3.5,-1c-0.11,-0.62 -0.44,-1.12 -1,-1.5c-3.32,-0.5 -6.65,-0.67 -10,-0.5c0.25,-3.44 -0.09,-6.77 -1,-10c1.89,2.49 2.55,5.49 2,9c4.33,0 8.67,0 13,0c0,-6 0,-12 0,-18c0.54,-0.06 0.88,-0.39 1,-1c-6.15,-0.67 -12.15,-1.33 -18,-2c6,0 12,0 18,0c0,-3.67 0,-7.33 0,-11z" fill="#6dac4a" id="svg_76"/>
  </g>
  <g id="svg_79">
   <path d="m135.5,107.5c0.67,0 1.33,0 2,0c0,10.33 0,20.67 0,31c-4,-7.02 -6.67,-14.69 -8,-23c2,-0.67 4,-1.33 6,-2c0,-2 0,-4 0,-6z" fill="#abec71" id="svg_80"/>
  </g>
  <g id="svg_85" transform="matrix(1 0 0 1 0 0)">
   <path d="m172.5,83.5c0.9,0.71 1.24,1.71 1,3c-0.33,10.51 0.01,20.85 1,31c0,3.67 0,7.33 0,11c18,0 36,0 54,0c0,-3.67 0,-7.33 0,-11c0.33,0 0.67,0 1,0c0,4 0,8 0,12c-4.67,0 -9.33,0 -14,0c-7.67,0 -15.33,0 -23,0c-6.67,0 -13.33,0 -20,0c0,-15.33 0,-30.67 0,-46z" fill="#8ea635" id="svg_86"/>
  </g>
  <g id="svg_87"/>
  <g id="svg_93">
   <path d="m254.5,118.5c0.99,4.13 1.32,8.47 1,13c-1.6,-0.27 -2.93,0.07 -4,1c-1.33,0 -2.67,0 -4,0c-5.49,-0.83 -11.15,-1.33 -17,-1.5c-0.56,-0.38 -0.89,-0.88 -1,-1.5c8.33,0 16.67,0 25,0c0,-3.67 0,-7.33 0,-11z" fill="#536054" id="svg_94"/>
  </g>
  <g id="svg_101" transform="matrix(1 0 0 1 0 0)">
   <path d="m74.5,107.5c0,4 0,8 0,12c-1.33,0 -2.67,0 -4,0c0.29,-1.79 -0.05,-3.45 -1,-5c-3.18,-1.59 -6.51,-2.59 -10,-3c1.87,6.21 3.2,12.54 4,19c-2.74,1.12 -5.58,2.12 -8.5,3c-1.44,-0.65 -2.94,-0.98 -4.5,-1c0.11,2.22 0.78,4.22 2,6c-3.67,0 -7.33,0 -11,0c0,-1.33 0,-2.67 0,-4c2.74,-0.24 4.41,-1.74 5,-4.5c-0.43,-1.93 -1.1,-3.76 -2,-5.5c0.55,-1.64 0.88,-3.3 1,-5c-1.05,0.15 -2.05,-0.02 -3,-0.5c0.73,-1.4 1.23,-2.9 1.5,-4.5c2.04,-0.92 4.21,-1.26 6.5,-1c-0.01,2.05 -0.34,4.05 -1,6c1.39,2.15 2.06,4.48 2,7c3.71,0.65 5.71,-0.85 6,-4.5c-1.73,-3.99 -3.07,-8.15 -4,-12.5c-1.33,0 -2.67,0 -4,0c0,-2 0,-4 0,-6c2.33,0 4.67,0 7,0c0.19,2.53 1.52,4.19 4,5c4.15,-3.04 7.49,-2.37 10,2c1.35,-1.02 2.69,-2.02 4,-3z" fill="#7ff36b" id="svg_102"/>
  </g>
  <g id="svg_107">
   <path d="m177.5,130.5c1.33,0 2.67,0 4,0c0,1 0,2 0,3c1.67,0 3.33,0 5,0c0.16,2.03 0,4.03 -0.5,6c-1.36,0.88 -2.86,1.21 -4.5,1c0,2 0,4 0,6c-4.6,0.15 -8.93,1.15 -13,3c0,-1.33 0,-2.67 0,-4c2.83,0.18 4.5,-1.16 5,-4c1.68,1.6 3.68,2.27 6,2c-0.67,-4.33 -1.33,-8.67 -2,-13z" fill="#47cf5b" id="svg_108"/>
  </g>
  <g id="svg_111" transform="matrix(1 0 0 1 0 0)">
   <path d="m215.5,129.5c4.67,0 9.33,0 14,0c0.11,0.62 0.44,1.12 1,1.5c5.85,0.17 11.51,0.67 17,1.5c-3.53,1.92 -7.53,2.59 -12,2c0,1.33 0,2.67 0,4c-6.74,-0.06 -13.41,-0.73 -20,-2c0,-2.33 0,-4.67 0,-7z" fill="#329948" id="svg_112"/>
  </g>
  <g id="svg_119">
   <path d="m87.5,105.5c-0.67,0 -1,0.33 -1,1c-3,0 -6,0 -9,0c0,3 0,6 0,9c-0.54,0.06 -0.88,0.39 -1,1c3.48,0.67 6.81,1.33 10,2c-3,0 -6,0 -9,0c0,3 0,6 0,9c3,0 6,0 9,0c0,0.33 0,0.67 0,1c-1.33,0 -2.67,0 -4,0c-4,0 -8,0 -12,0c0.21,4.4 -0.13,8.73 -1,13c0,3 0,6 0,9c-3.67,0 -7.33,0 -11,0c0.31,-3.54 -0.02,-6.87 -1,-10c0.33,-0.67 0.67,-1.33 1,-2c3.67,0 7.33,0 11,0c0,-3.67 0,-7.33 0,-11c2,0 4,0 6,0c0,-7.33 0,-14.67 0,-22c4,-1.33 8,-1.33 12,0z" fill="#86c479" id="svg_120"/>
  </g>
  <g id="svg_123" transform="matrix(1 0 0 1 0 0)">
   <path d="m164.5,130.5c4.33,0 8.67,0 13,0c0.67,4.33 1.33,8.67 2,13c-2.32,0.27 -4.32,-0.4 -6,-2c-0.5,2.84 -2.17,4.18 -5,4c0,1.33 0,2.67 0,4c-5.34,-0.19 -10.68,-0.52 -16,-1c0,-3.33 0,-6.67 0,-10c4.13,-0.03 8.13,-0.7 12,-2c0,-2 0,-4 0,-6z" fill="#a0f774" id="svg_124"/>
  </g>
  <g id="svg_125">
   <path d="m223.5,140.5c4.35,-0.17 8.68,0 13,0.5c-2.42,1.67 -2.42,3.51 0,5.5c-0.82,0.89 -1.82,1.22 -3,1c0,-1 0,-2 0,-3c-5.12,-0.07 -10.12,0.6 -15,2c0,-1 0,-2 0,-3c1.67,0 3.33,0 5,0c0,-1 0,-2 0,-3z" fill="#d2dece" id="svg_126"/>
  </g>
  <g id="svg_137">
   <path d="m215.5,139.5c2.74,-0.1 5.4,0.24 8,1c0,1 0,2 0,3c-1.67,0 -3.33,0 -5,0c0,1 0,2 0,3c0,1.67 0,3.33 0,5c-1,0 -2,0 -3,0c-3.3,-0.39 -6.3,-1.39 -9,-3c3,0 6,0 9,0c0,-3 0,-6 0,-9z" fill="#587982" id="svg_138"/>
  </g>
  <g id="svg_139">
   <path d="m30.5,82.5c0,4.67 0,9.33 0,14c-5.48,-2.83 -10.81,-2.49 -16,1c2.72,2.88 2.39,5.38 -1,7.5c0.56,0.38 0.89,0.88 1,1.5c-1.98,10.62 -2.64,21.62 -2,33c1.33,0 2.67,0 4,0c0,0.67 0,1.33 0,2c0.17,0.99 -0.16,1.66 -1,2c-1,0 -2,0 -3,0c0,7 0,14 0,21c-0.83,-5.15 -1.33,-10.48 -1.5,-16c-0.31,0.81 -0.81,1.47 -1.5,2c-1.17,10.65 -1.33,21.32 -0.5,32c0.38,0.56 0.88,0.89 1.5,1c3,0 6,0 9,0c0.98,-3.12 1.31,-6.46 1,-10c0.98,3.8 1.32,7.8 1,12c-3,0 -6,0 -9,0c0,7.67 0,15.33 0,23c0,0.33 0,0.67 0,1c0,15.33 0,30.67 0,46c2,0 4,0 6,0c-0.79,1.6 -2.12,2.27 -4,2c0.67,2.67 1.33,5.33 2,8c3.33,0 6.67,0 10,0c2.33,0 4.67,0 7,0c0.81,-2.13 1.31,-4.46 1.5,-7c0.5,2.98 0.66,5.98 0.5,9c-4.38,0.13 -8.71,-0.2 -13,-1c0,1 0,2 0,3c4.43,-0.05 8.77,0.61 13,2c4.83,-0.23 5.16,-1.23 1,-3c4,0 8,0 12,0c0,1 0,2 0,3c1.48,-0.26 2.81,0.07 4,1c-0.12,0.61 -0.46,0.94 -1,1c-4.91,-2.17 -9.91,-2.17 -15,0c-4.97,-1.17 -9.97,-2.5 -15,-4c-3.26,-1.23 -6.1,-3.23 -8.5,-6c-0.33,-2.33 -0.67,-4.67 -1,-7c-0.33,-22.67 -0.67,-45.33 -1,-68c-1,-1.33 -2,-2.67 -3,-4c-0.67,-11.67 -0.67,-23.33 0,-35c1.07,-3.93 2.07,-7.93 3,-12c-0.16,-14.53 0.84,-28.86 3,-43c4.25,-2.08 8.75,-3.58 13.5,-4.5c1.47,-2.38 2.47,-4.88 3,-7.5z" fill="#949881" id="svg_140" opacity="0.69"/>
  </g>
  <g id="svg_149">
   <path d="m83.5,142.5c5.04,-0.33 10.04,0.01 15,1c1.64,3.87 0.31,6.04 -4,6.5c-7,0.67 -14,0.67 -21,0c-0.92,-2.04 -1.26,-4.21 -1,-6.5c3.87,0.31 7.54,-0.02 11,-1z" fill="#80e469" id="svg_150"/>
  </g>
  <g id="svg_151" transform="matrix(1 0 0 1 0 0)">
   <path d="m233.5,147.5c1.7,2.3 2.37,4.97 2,8c1.33,0 2.67,0 4,0c0,3.33 0,6.67 0,10c-2,0 -4,0 -6,0c0,3 0,6 0,9c-2.67,0 -5.33,0 -8,0c0,1.33 0,2.67 0,4c-0.67,0 -1.33,0 -2,0c-1,0 -2,0 -3,0c0.22,1.18 -0.11,2.18 -1,3c-1.57,-0.81 -3.24,-1.14 -5,-1c-1.45,-3.49 -2.12,-7.15 -2,-11c-3.68,-0.16 -7.35,0 -11,0.5c-1.37,2.3 -2.03,4.8 -2,7.5c-1.33,0 -2.67,0 -4,0c0,1.67 0,3.33 0,5c-2,0 -4,0 -6,0c0,-1 0,-2 0,-3c1.33,0 2.67,0 4,0c0,-1.33 0,-2.67 0,-4c1.33,0 2.67,0 4,0c0,-1.33 0,-2.67 0,-4c-1.61,0.41 -2.94,0.41 -4,0c1.9,-0.97 3.9,-1.3 6,-1c0,-1.67 0,-3.33 0,-5c-5.33,0 -10.67,0 -16,0c-13.37,-0.4 -26.7,-0.4 -40,0c0,1.33 0,2.67 0,4c-1.81,-1.42 -2.47,-3.42 -2,-6c2.67,0 5.33,0 8,0c0.67,0 1.33,0 2,0c22.33,0 44.67,0 67,0c0,-3.67 0,-7.33 0,-11c-8.67,0 -17.33,0 -26,0c0,-0.33 0,-0.67 0,-1c7.67,0 15.33,0 23,0c1,0 2,0 3,0c0,-1.67 0,-3.33 0,-5c4.88,-1.4 9.88,-2.07 15,-2c0,1 0,2 0,3z" fill="#379d4b" id="svg_152"/>
  </g>
  <g id="svg_165">
   <path d="m24.5,140.5c0.33,0 0.67,0 1,0c0.92,3.56 1.26,7.23 1,11c-0.67,4.33 -1.33,8.67 -2,13c0,-8 0,-16 0,-24z" fill="#7a614b" id="svg_166"/>
  </g>
  <g id="svg_167">
   <path d="m58.5,150.5c3.67,0 7.33,0 11,0c0,0.67 0.33,1 1,1c0,0.67 0.33,1 1,1c0,3.67 0,7.33 0,11c-3.53,1.92 -7.53,2.59 -12,2c-1.83,-4.01 -2.5,-8.35 -2,-13c0.33,-0.67 0.67,-1.33 1,-2z" fill="#218f47" id="svg_168"/>
  </g>
  <g id="svg_171">
   <path d="m247.87,132.5c1.33,0 2.66,0 4,0c0,1.67 0,3.33 0,5c-4.02,-0.17 -8.02,0 -12,0.5c-0.56,2.24 -1.56,4.24 -3,6c0.78,3.08 1.28,6.24 1.5,9.5c0.41,0.46 0.91,0.79 1.5,1c0.99,4.28 1.32,8.62 1,13c-1.65,-0.21 -3.15,0.12 -4.5,1c-0.5,2.31 -0.67,4.64 -0.5,7c-2.69,-0.16 -5.36,0 -8,0.5c-0.57,1 -1.24,1.83 -2,2.5c0,-1.33 0,-2.67 0,-4c2.66,0 5.33,0 8,0c0,-3 0,-6 0,-9c2,0 4,0 6,0c0,-3.33 0,-6.67 0,-10c-1.34,0 -2.67,0 -4,0c0.36,-3.03 -0.3,-5.7 -2,-8c1.17,0.22 2.17,-0.11 3,-1c-2.42,-1.99 -2.42,-3.83 0,-5.5c-4.32,-0.5 -8.66,-0.67 -13,-0.5c-2.6,-0.76 -5.27,-1.1 -8,-1c0,-1 0,-2 0,-3c6.59,1.27 13.26,1.94 20,2c0,-1.33 0,-2.67 0,-4c4.47,0.59 8.47,-0.08 12,-2z" fill="#94a388" id="svg_172" opacity="0.1"/>
  </g>
  <g id="svg_177">
   <path d="m12.5,164.5c0,2.67 0,5.33 0,8c2.89,-0.31 5.55,0.03 8,1c0.31,3.54 -0.02,6.88 -1,10c0,-0.33 0,-0.67 0,-1c0,-2 0,-4 0,-6c0,-1 0,-2 0,-3c-3,0 -6,0 -9,0c0,3.33 0,6.67 0,10c-0.62,-0.11 -1.12,-0.44 -1.5,-1c-0.83,-10.68 -0.67,-21.35 0.5,-32c0.69,-0.53 1.19,-1.19 1.5,-2c0.17,5.52 0.67,10.85 1.5,16z" fill="#419852" id="svg_178"/>
  </g>
  <g id="svg_185" transform="matrix(1 0 0 1 0 0)">
   <path d="m71.5,163.32c10.67,0 21.33,0 32,0c0,0.68 0.33,1.01 1,1.01c0,0.33 0,0.68 0,1.01c0,3.36 0,6.72 0,10.08c-0.98,3.15 -1.31,6.51 -1,10.08c-2.23,-0.29 -4.24,0.04 -6,1.01c-8,0 -16,0 -24,0c0,-0.68 0,-1.34 0,-2.02c0.04,-1.09 0.37,-2.1 1,-3.02c1.66,-0.84 3,-2.01 4,-3.53c1.29,-0.49 2.63,-0.67 4,-0.5c0,-3.7 0,-7.39 0,-11.09c-7.85,0.32 -15.52,-0.01 -23,-1.01c4.47,0.59 8.47,-0.08 12,-2.02z" fill="#218f47" id="svg_186"/>
  </g>
  <g id="svg_189" transform="matrix(1 0 0 1 0 0)">
   <path d="m26.5,152.14c10.33,0 20.67,0 31,0c-0.5,4.7 0.17,9.09 2,13.14c7.48,1 15.15,1.33 23,1.01c0,3.71 0,7.41 0,11.12c-1.37,-0.16 -2.71,0.01 -4,0.51c-1,1.53 -2.34,2.7 -4,3.54c-0.63,0.93 -0.96,1.94 -1,3.03c-6.34,-0.15 -12.68,-0.5 -19,-1.01c0,-1.69 0,-3.37 0,-5.06c-1,0 -2,0 -3,0c0,-2.02 0,-4.04 0,-6.07c-2.67,0 -5.33,0 -8,0c0,1.34 0,2.7 0,4.04c-2,0 -4,0 -6,0c0,1.01 0,2.02 0,3.03c-2.33,0 -4.67,0 -7,0c0,1.34 0,2.7 0,4.04c-1.43,0.08 -2.76,-0.25 -4,-1.01c-0.99,-3.65 -1.32,-7.35 -1,-11.12c1.33,0 2.67,0 4,0c0,-1.01 0,-2.02 0,-3.03c3.33,-1.01 6.67,-2.02 10,-3.03c0,-1.34 0,-2.7 0,-4.04c-4.33,0 -8.67,0 -13,0c0,-3.03 0,-6.07 0,-9.1z" fill="#62de63" id="svg_190"/>
  </g>
  <g id="svg_191" transform="matrix(1 0 0 1 0 0)">
   <path d="m183.64,165.5c0,4 0,8 0,12c-3.04,0 -6.08,0 -9.12,0c0.45,-4.41 -1.58,-6.07 -6.08,-5c0,1 0,2 0,3c-4.49,0.19 -8.88,0.86 -13.17,2c0,-1.67 0,-3.33 0,-5c-4.07,-0.15 -8.13,-0.48 -12.16,-1c0,-0.67 0,-1.33 0,-2c0,-1.33 0,-2.67 0,-4c13.48,-0.4 26.99,-0.4 40.53,0z" fill="#56d660" id="svg_192"/>
  </g>
  <g id="svg_197">
   <path d="m223.5,178.5c-0.73,1.21 -1.07,2.54 -1,4c-8.62,1.43 -13.12,-2.24 -13.5,-11c-0.41,-0.46 -0.91,-0.79 -1.5,-1c-1.65,1.15 -3.15,2.48 -4.5,4c-1.7,2.92 -3.2,5.92 -4.5,9c-2.36,-0.16 -4.69,0 -7,0.5c-0.84,1.01 -1.17,2.18 -1,3.5c-3.05,-0.58 -5.05,0.59 -6,3.5c-3.2,0.81 -6.2,0.64 -9,-0.5c2.67,0 5.33,0 8,0c0,-1.33 0,-2.67 0,-4c2,0 4,0 6,0c0,-1.33 0,-2.67 0,-4c2,0 4,0 6,0c0,-1.67 0,-3.33 0,-5c1.33,0 2.67,0 4,0c-0.03,-2.7 0.63,-5.2 2,-7.5c3.65,-0.5 7.32,-0.66 11,-0.5c-0.12,3.85 0.55,7.51 2,11c1.76,-0.14 3.43,0.19 5,1c0.89,-0.82 1.22,-1.82 1,-3c1,0 2,0 3,0z" fill="#92aa7d" id="svg_198" opacity="0.41"/>
  </g>
  <g id="svg_207">
   <path d="m142.5,181.5c2,0 4,0 6,0c0,1.67 0,3.33 0,5c2.03,2.35 4.69,3.68 8,4c0,1.33 0,2.67 0,4c-2.81,0.19 -5.47,0.86 -8,2c0,-1.67 0,-3.33 0,-5c-1.37,0.16 -2.71,-0.01 -4,-0.5c-0.98,-2.14 -2.31,-3.97 -4,-5.5c-0.5,2.16 -1.5,3.82 -3,5c0,-1.33 0,-2.67 0,-4c-1.33,0 -2.67,0 -4,0c-2.32,-1.69 -3.32,-4.02 -3,-7c0,-1.33 0,-2.67 0,-4c3,0 6,0 9,0c0.34,2.35 0.84,4.69 1.5,7c0.38,-0.56 0.88,-0.89 1.5,-1z" fill="#66a859" id="svg_208" opacity="0.98"/>
  </g>
  <g id="svg_209">
   <path d="m183.5,165.5c5.33,0 10.67,0 16,0c0,1.67 0,3.33 0,5c-2.1,-0.3 -4.1,0.03 -6,1c1.06,0.41 2.39,0.41 4,0c0,1.33 0,2.67 0,4c-1.33,0 -2.67,0 -4,0c0,1.33 0,2.67 0,4c-1.33,0 -2.67,0 -4,0c0,1 0,2 0,3c0,1.33 0,2.67 0,4c-2,0 -4,0 -6,0c0,1.33 0,2.67 0,4c-2.67,0 -5.33,0 -8,0c0,-0.33 0,-0.67 0,-1c0.95,-1.42 1.28,-3.09 1,-5c-1.33,0 -2.67,0 -4,0c0,-2 0,-4 0,-6c-2.67,0 -5.33,0 -8,0c0,2 0,4 0,6c-4.44,0.29 -8.77,-0.21 -13,-1.5c-0.41,-2.03 -1.41,-3.53 -3,-4.5c-1,0 -2,0 -3,0c0.03,-2.58 -0.63,-4.91 -2,-7c3.98,0.52 7.98,0.85 12,1c0,1.67 0,3.33 0,5c4.24,-1.14 8.58,-1.81 13,-2c0,-1 0,-2 0,-3c4.44,-1.07 6.44,0.59 6,5c3,0 6,0 9,0c0,-4 0,-8 0,-12z" fill="#3ba44f" id="svg_210"/>
  </g>
  <g id="svg_221">
   <path d="m333.5,171.5c0.65,0.3 1.32,0.64 2,1c0.98,2.93 1.32,5.93 1,9c-2.44,4.58 -3.44,9.58 -3,15c-4,0 -8,0 -12,0c0,-0.67 0.33,-1 1,-1c3.33,0 6.67,0 10,0c0,-3.33 0,-6.67 0,-10c-3.33,0 -6.67,0 -10,0c-0.67,0 -1,-0.33 -1,-1c4,0 8,0 12,0c0,-4.33 0,-8.67 0,-13z" fill="#62695b" id="svg_222"/>
  </g>
  <g id="svg_223">
   <path d="m148.5,178.5c1.59,0.97 2.59,2.47 3,4.5c4.23,1.29 8.56,1.79 13,1.5c0,-2 0,-4 0,-6c2.67,0 5.33,0 8,0c0,2 0,4 0,6c1.33,0 2.67,0 4,0c0.28,1.91 -0.05,3.58 -1,5c-3.32,-2.65 -5.66,-5.98 -7,-10c-0.59,0.21 -1.09,0.54 -1.5,1c-0.5,1.97 -0.66,3.97 -0.5,6c-5.92,0.72 -11.42,-0.28 -16.5,-3c-0.35,-1.75 -0.85,-3.41 -1.5,-5z" fill="#9da496" id="svg_224" opacity="0.04"/>
  </g>
  <g id="svg_229" transform="matrix(1 0 0 1 0 0)">
   <path d="m26.5,151.14c0,0.33 0,0.68 0,1.01c0,3.02 0,6.05 0,9.07c4.33,0 8.67,0 13,0c0,1.34 0,2.69 0,4.03c-3.33,1.01 -6.67,2.02 -10,3.02c0,1.01 0,2.02 0,3.02c-1.33,0 -2.67,0 -4,0c-0.32,3.76 0.01,7.45 1,11.09c1.24,0.76 2.57,1.09 4,1.01c0,-1.34 0,-2.69 0,-4.03c2.33,0 4.67,0 7,0c0,-1.01 0,-2.02 0,-3.02c2,0 4,0 6,0c0,-1.34 0,-2.69 0,-4.03c2.67,0 5.33,0 8,0c0,2.02 0,4.03 0,6.05c1,0 2,0 3,0c0,1.68 0,3.36 0,5.04c6.32,0.51 12.66,0.86 19,1.01c0,0.68 0,1.34 0,2.02c-5,0 -10,0 -15,0c0,3.36 0,6.72 0,10.08c-0.67,0 -1,0.33 -1,1.01c-7,0 -14,0 -21,0c-1.54,-0.81 -3.21,-1.14 -5,-1.01c0,-1.34 0,-2.69 0,-4.03c-2.43,-0.38 -4.76,-1.06 -7,-2.02c0,-8.74 0,-17.46 0,-26.2c0.67,-4.36 1.33,-8.74 2,-13.1z" fill="#2a9746" id="svg_230"/>
  </g>
  <g id="svg_231">
   <path d="m259.5,178.5c0,4 0,8 0,12c3.67,0 7.33,0 11,0c0,-3.67 0,-7.33 0,-11c-2.88,0.31 -5.55,-0.03 -8,-1c3,0 6,0 9,0c1.68,3.76 2.35,7.76 2,12c-0.3,0.65 -0.64,1.32 -1,2c-4,1.33 -8,1.33 -12,0c-1.35,-1.02 -2.02,-2.36 -2,-4c-0.31,-3.54 0.02,-6.87 1,-10z" fill="#717578" id="svg_232"/>
  </g>
  <g id="svg_237">
   <path d="m336.5,181.5c1.54,0.8 3.21,1.13 5,1c0,6.33 0,12.67 0,19c-1.08,0.04 -2.08,0.37 -3,1c-1,-5.29 -1.33,-10.62 -1,-16c-1,0 -2,0 -3,0c0,3.67 0,7.33 0,11c-0.33,0 -0.67,0 -1,0c0,-0.33 0,-0.67 0,-1c-0.44,-5.42 0.56,-10.42 3,-15z" fill="#5ca356" id="svg_238"/>
  </g>
  <g id="svg_239">
   <path d="m40.5,181.5c3.33,0 6.67,0 10,0c0,1.67 0,3.33 0,5c2,0 4,0 6,0c0,3.33 0,6.67 0,10c-6.31,-0.81 -12.65,-1.48 -19,-2c0,-1.33 0,-2.67 0,-4c-1.33,0 -2.67,0 -4,0c0,-2 0,-4 0,-6c2.5,-0.76 4.84,-1.76 7,-3z" fill="#61db62" id="svg_240"/>
  </g>
  <g id="svg_241">
   <path d="m127.5,190.5c-0.01,1.52 -0.68,2.68 -2,3.5c1.56,0.32 2.73,1.15 3.5,2.5c0.5,3.32 0.66,6.65 0.5,10c-2.4,2.45 -5.4,3.45 -9,3c1.42,-1.81 3.42,-2.47 6,-2c-0.52,-5.69 -1.19,-11.35 -2,-17c1,0 2,0 3,0z" fill="#8ca784" id="svg_242" opacity="0.42"/>
  </g>
  <g id="svg_243">
   <path d="m148.5,186.5c5.43,2.08 10.76,4.25 16,6.5c0.95,3.06 1.28,6.22 1,9.5c-4.41,1.15 -8.74,2.48 -13,4c0,-1 0,-2 0,-3c2.67,0 5.33,0 8,0c0,-1 0,-2 0,-3c1.33,0 2.67,0 4,0c0,-2 0,-4 0,-6c-2.67,0 -5.33,0 -8,0c0,-1.33 0,-2.67 0,-4c-3.31,-0.32 -5.97,-1.65 -8,-4z" fill="#929c86" id="svg_244" opacity="0.72"/>
  </g>
  <g id="svg_247">
   <path d="m133.5,186.5c1.33,0 2.67,0 4,0c0,1.33 0,2.67 0,4c-2.35,2.03 -3.68,4.69 -4,8c1.33,0 2.67,0 4,0c0,3.67 0,7.33 0,11c-0.89,-0.61 -1.89,-0.94 -3,-1c2.02,-4.25 0.69,-6.58 -4,-7c-0.16,-3.35 0,-6.68 0.5,-10c0.98,-1.82 2.48,-2.99 4.5,-3.5c-0.92,-0.28 -1.58,-0.78 -2,-1.5z" fill="#8ca479" id="svg_248" opacity="0.78"/>
  </g>
  <g id="svg_253">
   <path d="m24.5,190.5c2.24,0.95 4.57,1.62 7,2c0,1.33 0,2.67 0,4c-2.11,0.97 -4.44,1.3 -7,1c0,-1 0,-2 0,-3c0,-1.33 0,-2.67 0,-4z" fill="#7f8ba0" id="svg_254"/>
  </g>
  <g id="svg_255">
   <path d="m321.5,171.5c0,4.33 0,8.67 0,13c0,0.67 0.33,1 1,1c0,3.33 0,6.67 0,10c-0.67,0 -1,0.33 -1,1c0,4.67 0,9.33 0,14c-0.67,0 -1,-0.33 -1,-1c0,-0.67 0,-1.33 0,-2c-1.54,-2.75 -2.21,-5.75 -2,-9c0,-0.33 0,-0.67 0,-1c0.81,-2.24 1.48,-4.58 2,-7c-2.59,-6.43 -3.92,-13.1 -4,-20c1.92,-0.28 3.58,0.05 5,1z" fill="#45c5bf" id="svg_256"/>
  </g>
  <g id="svg_259">
   <path d="m115.5,184.5c4,0 8,0 12,0c0,2 0,4 0,6c-1,0 -2,0 -3,0c0.81,5.65 1.48,11.31 2,17c-2.58,-0.47 -4.58,0.19 -6,2c-1,0 -2,0 -3,0c-0.67,-0.33 -1.33,-0.67 -2,-1c0,-8 0,-16 0,-24z" fill="#3ea34b" id="svg_260"/>
  </g>
  <g id="svg_261">
   <path d="m156.5,194.5c0,2 0,4 0,6c-2.67,0 -5.33,0 -8,0c0,1.33 0,2.67 0,4c-1.67,0 -3.33,0 -5,0c0,-1 0,-2 0,-3c-1.33,0 -2.67,0 -4,0c-1.2,-3.55 -1.87,-7.22 -2,-11c1.5,-1.18 2.5,-2.84 3,-5c1.69,1.53 3.02,3.36 4,5.5c1.29,0.49 2.63,0.66 4,0.5c0,1.67 0,3.33 0,5c2.53,-1.14 5.19,-1.81 8,-2z" fill="#4dd25e" id="svg_262"/>
  </g>
  <g fill="#61857f" id="svg_263">
   <path d="m246.5,196.5c2.79,0.98 5.79,1.31 9,1c0,3.67 0,7.33 0,11c-3.28,0.28 -6.44,-0.05 -9.5,-1c-0.5,-3.32 -0.66,-6.65 -0.5,-10c0,-0.67 0.33,-1 1,-1z" fill="#007f3f" id="svg_264" opacity="0.55"/>
  </g>
  <g id="svg_267">
   <path d="m222.5,205.5c-3.2,0.54 -5.87,-0.13 -8,-2c-0.89,-0.61 -1.89,-0.94 -3,-1c0,-3 0,-6 0,-9c2.36,-0.16 4.69,0 7,0.5c1.51,1.92 3.51,3.09 6,3.5c1.6,3.39 0.94,6.05 -2,8z" fill="#91af73" id="svg_268" opacity="0.35"/>
  </g>
  <g id="svg_269">
   <path d="m300.5,197.5c0,1 0,2 0,3c-6.43,-1.74 -9.09,0.59 -8,7c-0.67,0 -1.33,0 -2,0c0,-3.33 0,-6.67 0,-10c3.33,0 6.67,0 10,0z" fill="#1db31b" id="svg_270"/>
  </g>
  <g id="svg_271">
   <path d="m214.5,203.5c0,-2 0,-4 0,-6c2.67,0.33 5.33,0.67 8,1c0,1.67 0,3.33 0,5c-2.67,0 -5.33,0 -8,0z" fill="#57bc52" id="svg_272"/>
  </g>
  <g id="svg_279">
   <path d="m24.5,194.5c0,1 0,2 0,3c2.56,0.3 4.89,-0.03 7,-1c1.79,-0.13 3.46,0.2 5,1c0.86,3.93 1.19,7.93 1,12c-0.06,1.11 -0.39,2.11 -1,3c-4.1,-0.26 -8.1,0.07 -12,1c0.17,-1.32 -0.16,-2.49 -1,-3.5c-3.65,-0.5 -7.32,-0.66 -11,-0.5c0,-0.33 0,-0.67 0,-1c3.33,0 6.67,0 10,0c-0.17,-4.01 0,-8.01 0.5,-12c0.28,-0.92 0.78,-1.58 1.5,-2z" fill="#8e7562" id="svg_280"/>
  </g>
  <g id="svg_283">
   <path d="m89.5,208.5c-1.04,-1.29 -2.21,-1.29 -3.5,0c-0.49,1.63 -0.66,3.3 -0.5,5c-5.02,0.36 -5.18,1.7 -0.5,4c0.67,3 0.67,6 0,9c-1.72,1.49 -2.88,3.32 -3.5,5.5c-2.31,0.5 -4.64,0.66 -7,0.5c1.42,-0.95 3.09,-1.28 5,-1c0,-2.67 0,-5.33 0,-8c1.33,0 2.67,0 4,0c0,-1.33 0,-2.67 0,-4c-1.33,0 -2.67,0 -4,0c0,-2.67 0,-5.33 0,-8c1.33,0 2.67,0 4,0c-0.33,-4.33 1.67,-6.33 6,-6c0,-1.67 0,-3.33 0,-5c3.42,-0.63 5.42,0.7 6,4c-0.56,3.93 -2.56,5.26 -6,4z" fill="#9cab90" id="svg_284" opacity="0.5"/>
  </g>
  <g id="svg_285">
   <path d="m137.5,190.5c0.13,3.78 0.8,7.45 2,11c1.33,0 2.67,0 4,0c0,1 0,2 0,3c1.67,0 3.33,0 5,0c0,-1.33 0,-2.67 0,-4c2.67,0 5.33,0 8,0c0,-2 0,-4 0,-6c2.67,0 5.33,0 8,0c0,2 0,4 0,6c-1.33,0 -2.67,0 -4,0c0,1 0,2 0,3c-2.67,0 -5.33,0 -8,0c0,1 0,2 0,3c0,0.33 0,0.67 0,1c-4.56,1.94 -9.56,2.61 -15,2c0,-3.67 0,-7.33 0,-11c-1.33,0 -2.67,0 -4,0c0.32,-3.31 1.65,-5.97 4,-8z" fill="#3b994a" id="svg_286"/>
  </g>
  <g id="svg_289">
   <path d="m300.5,200.5c0,2.33 0,4.67 0,7c-2.67,0 -5.33,0 -8,0c-1.09,-6.41 1.57,-8.74 8,-7z" fill="#16ef14" id="svg_290"/>
  </g>
  <g id="svg_291">
   <path d="m341.5,201.5c0,5.33 0,10.67 0,16c-2,0 -4,0 -6,0c0,-1.33 0,-2.67 0,-4c-1.98,0.34 -3.32,-0.32 -4,-2c1.33,0 2.67,0 4,0c0.27,-4.76 -0.06,-9.43 -1,-14c0,-3.67 0,-7.33 0,-11c1,0 2,0 3,0c-0.33,5.38 0,10.71 1,16c0.92,-0.63 1.92,-0.96 3,-1z" fill="#38b953" id="svg_292"/>
  </g>
  <g id="svg_293">
   <path d="m300.5,197.5c0.33,0 0.67,0 1,0c0,3.67 0,7.33 0,11c-3.67,0 -7.33,0 -11,0c0,-0.33 0,-0.67 0,-1c0.67,0 1.33,0 2,0c2.67,0 5.33,0 8,0c0,-2.33 0,-4.67 0,-7c0,-1 0,-2 0,-3z" fill="#65a672" id="svg_294"/>
  </g>
  <g id="svg_297">
   <path d="m325.5,198.5c2.33,0 4.67,0 7,0c0,3.33 0,6.67 0,10c-3.33,0 -6.67,0 -10,0c-0.31,-2.42 0.03,-4.76 1,-7c1.42,-0.5 2.08,-1.5 2,-3z" fill="#f55c7d" id="svg_298"/>
  </g>
  <g id="svg_301" transform="matrix(1 0 0 1 0 0)">
   <path d="m245.5,197.5c-0.16,3.43 0,6.84 0.5,10.23c3.06,0.97 6.22,1.31 9.5,1.02c0,-3.76 0,-7.5 0,-11.26c2,0.69 4,1.36 6,2.05c-0.16,2.75 0,5.47 0.5,8.19c0.38,-0.57 0.88,-0.91 1.5,-1.02c0,0.69 0.33,1.02 1,1.02c0,0.34 0,0.69 0,1.02c-10.33,0.58 -20.66,1.27 -31,2.05c-0.92,3.34 -1.25,6.74 -1,10.23c-1.93,-3.96 -2.6,-8.4 -2,-13.3c4.75,1.71 9.25,1.37 13.5,-1.02c0.18,-3.26 0.68,-6.33 1.5,-9.21z" fill="#61857f" id="svg_302"/>
  </g>
  <g id="svg_305">
   <path d="m58.5,196.5c4.2,-0.32 8.2,0.02 12,1c1.85,4.35 2.51,9.02 2,14c-1,0 -2,0 -3,0c-3.77,0.26 -7.44,-0.08 -11,-1c-0.67,0 -1,-0.33 -1,-1c0,-4 0,-8 0,-12c0,-0.67 0.33,-1 1,-1z" fill="#806c55" id="svg_306"/>
  </g>
  <g id="svg_311">
   <path d="m39.5,209.5c6,0 12,0 18,0c0,0.67 0.33,1 1,1c0,3 0,6 0,9c-0.98,3.46 -1.31,7.13 -1,11c-1.3,-3.56 -2.64,-7.23 -4,-11c-3.13,-1.48 -6.47,-2.48 -10,-3c-1.71,-2.16 -3.05,-4.5 -4,-7z" fill="#3fa54d" id="svg_312"/>
  </g>
  <g id="svg_315">
   <path d="m333.5,197.5c0.33,0 0.67,0 1,0c0.94,4.57 1.27,9.24 1,14c-1.33,0 -2.67,0 -4,0c-2.67,0 -5.33,0 -8,0c0,2 0,4 0,6c-0.97,-2.11 -1.3,-4.44 -1,-7c3.67,0 7.33,0 11,0c0,-4.33 0,-8.67 0,-13z" fill="#496146" id="svg_316"/>
  </g>
  <g id="svg_321"/>
  <g id="svg_329">
   <path d="m331.5,211.5c0.68,1.68 2.02,2.34 4,2c0,1.33 0,2.67 0,4c2,0 4,0 6,0c0,1 0,2 0,3c-5.85,0.05 -11.52,-0.61 -17,-2c-0.67,0 -1,-0.33 -1,-1c0,-2 0,-4 0,-6c2.67,0 5.33,0 8,0z" fill="#68a05a" id="svg_330"/>
  </g>
  <g id="svg_333">
   <path d="m89.5,208.5c0,2.33 0,4.67 0,7c2.67,0 5.33,0 8,0c0,2 0,4 0,6c1.67,0 3.33,0 5,0c-0.32,-4.53 0.02,-8.87 1,-13c0.17,5.68 0,11.34 -0.5,17c-0.23,1.24 -0.73,2.24 -1.5,3c-0.75,-1.03 -1.42,-2.2 -2,-3.5c-4.4,0.59 -6.4,-1.24 -6,-5.5c-4.57,0.26 -6.57,-1.9 -6,-6.5c0.07,-1.99 0.74,-3.49 2,-4.5z" fill="#a8b9ab" id="svg_334" opacity="0.16"/>
  </g>
  <g id="svg_335">
   <path d="m104.5,175.5c0,11 0,22 0,33c-0.33,0 -0.67,0 -1,0c-0.98,4.13 -1.32,8.47 -1,13c-1.67,0 -3.33,0 -5,0c0,-2 0,-4 0,-6c-2.67,0 -5.33,0 -8,0c0,-2.33 0,-4.67 0,-7c3.44,1.26 5.44,-0.07 6,-4c-0.58,-3.3 -2.58,-4.63 -6,-4c0,1.67 0,3.33 0,5c-4.33,-0.33 -6.33,1.67 -6,6c-1.33,0 -2.67,0 -4,0c0,2.67 0,5.33 0,8c1.33,0 2.67,0 4,0c0,1.33 0,2.67 0,4c-1.33,0 -2.67,0 -4,0c0,2.67 0,5.33 0,8c-1.91,-0.28 -3.58,0.05 -5,1c-0.33,0 -0.67,0 -1,0c-0.82,-3.48 -1.32,-7.14 -1.5,-11c-0.38,-0.56 -0.88,-0.89 -1.5,-1c0,-0.67 -0.33,-1 -1,-1c0,-2.67 0,-5.33 0,-8c1,0 2,0 3,0c0.51,-4.98 -0.15,-9.65 -2,-14c11,0 22,0 33,0c0,-3.67 0,-7.33 0,-11c-2,0 -4,0 -6,0c1.76,-0.96 3.77,-1.29 6,-1c-0.31,-3.54 0.02,-6.87 1,-10z" fill="#44a54d" id="svg_336"/>
  </g>
  <g id="svg_339">
   <path d="m37.5,209.5c0.67,0 1.33,0 2,0c0.95,2.5 2.29,4.84 4,7c3.53,0.52 6.87,1.52 10,3c1.36,3.77 2.7,7.44 4,11c0.71,2.17 1.71,4.17 3,6c-1.89,-1.2 -3.73,-2.53 -5.5,-4c-2.43,-3.16 -3.77,-6.83 -4,-11c-3.08,-0.79 -6.24,-1.29 -9.5,-1.5c-1.8,-2.44 -3.47,-4.94 -5,-7.5c0.61,-0.89 0.94,-1.89 1,-3z" fill="#9cb089" id="svg_340" opacity="0.55"/>
  </g>
  <g id="svg_341">
   <path d="m311.5,223.5c7,-1.67 9.67,1 8,8c-7,1.67 -9.67,-1 -8,-8z" fill="#00e000" id="svg_342"/>
  </g>
  <g id="svg_349">
   <path d="m58.5,219.5c0,4.33 0,8.67 0,13c4,0 8,0 12,0c0,-4 0,-8 0,-12c0.62,0.11 1.12,0.44 1.5,1c0.18,3.86 0.68,7.52 1.5,11c-0.04,1.08 -0.37,2.08 -1,3c-3.95,0.99 -7.95,1.32 -12,1c-1.29,-1.83 -2.29,-3.83 -3,-6c-0.31,-3.87 0.02,-7.54 1,-11z" fill="#636457" id="svg_350" opacity="0.93"/>
  </g>
  <g id="svg_353">
   <path d="m218.5,221.5c2.22,1.44 4.56,2.77 7,4c0,1.33 0,2.67 0,4c0,1 0,2 0,3c2.67,0 5.33,0 8,0c0,1.33 0,2.67 0,4c2.67,0 5.33,0 8,0c0,1.33 0,2.67 0,4c1.33,0 2.67,0 4,0c0,4 -2,6 -6,6c0,2 0,4 0,6c-2.67,0 -5.33,0 -8,0c-0.67,-2.67 -1.33,-5.33 -2,-8c-2.33,0 -4.67,0 -7,0c0,-1.33 0,-2.67 0,-4c-1.33,0 -2.67,0 -4,0c0,-2.67 0,-5.33 0,-8c-2.67,-0.67 -5.33,-1.33 -8,-2c0,-2.33 0,-4.67 0,-7c2.67,-0.67 5.33,-1.33 8,-2z" fill="#52b053" id="svg_354"/>
  </g>
  <g id="svg_355">
   <path d="m208.5,223.5c0.67,0 1.33,0 2,0c0,2.33 0,4.67 0,7c2.67,0.67 5.33,1.33 8,2c0,2.67 0,5.33 0,8c1.33,0 2.67,0 4,0c0,1.33 0,2.67 0,4c2.33,0 4.67,0 7,0c0.67,2.67 1.33,5.33 2,8c2.67,0 5.33,0 8,0c0,-2 0,-4 0,-6c4,0 6,-2 6,-6c-1.33,0 -2.67,0 -4,0c0,-1.33 0,-2.67 0,-4c-2.67,0 -5.33,0 -8,0c0,-1.33 0,-2.67 0,-4c-2.67,0 -5.33,0 -8,0c0,-1 0,-2 0,-3c7.07,1.53 13.4,4.7 19,9.5c1.29,0.49 2.63,0.66 4,0.5c0.44,3.31 -0.23,6.31 -2,9c-2.64,1.42 -4.97,3.26 -7,5.5c-3,0.67 -6,0.67 -9,0c-1.33,-2 -2.67,-4 -4,-6c-4.38,0 -6.05,-2.17 -5,-6.5c-5,1 -7,-1 -6,-6c-1.05,0.15 -2.05,-0.02 -3,-0.5c-3.47,-3.04 -4.8,-6.87 -4,-11.5z" fill="#93a87b" id="svg_356" opacity="0.62"/>
  </g>
  <g id="svg_357">
   <path d="m271.5,229.5c3.35,-0.16 6.68,0 10,0.5c1.25,1.46 1.25,2.96 0,4.5c1.13,0.76 2.3,1.43 3.5,2c0.5,2.31 0.66,4.64 0.5,7c-3.4,0.23 -5.4,2.06 -6,5.5c-3.32,0.5 -6.65,0.66 -10,0.5c-0.71,-3.48 -1.71,-6.81 -3,-10c0.59,-3.85 2.26,-7.18 5,-10z" fill="#8ba67c" id="svg_358"/>
  </g>
  <g id="svg_367">
   <path d="m249.5,242.5c7.49,-0.18 10.82,3.49 10,11c-3.33,0 -6.67,0 -10,0c0,-3.67 0,-7.33 0,-11z" fill="#7da458" id="svg_368" opacity="0.88"/>
  </g>
  <g id="svg_371">
   <path d="m47.5,251.5c0.89,0.61 1.89,0.94 3,1c0,1.67 0,3.33 0,5c2,0 4,0 6,0c0.67,2.67 1.33,5.33 2,8c3.54,-0.31 6.88,0.02 10,1c-0.67,0 -1.33,0 -2,0c-6,0 -12,0 -18,0c0.26,-3.74 -0.07,-7.41 -1,-11c-4.72,-1.28 -9.38,-1.28 -14,0c-5,0 -10,0 -15,0c0,-1 0,-2 0,-3c3.67,0 7.33,0 11,0c-0.15,-1.05 0.02,-2.05 0.5,-3c3.06,0.95 6.22,1.28 9.5,1c0,1 0,2 0,3c3.2,0.54 5.86,-0.13 8,-2z" fill="#37ccc1" id="svg_372"/>
  </g>
  <g id="svg_373">
   <path d="m86.5,243.5c0.98,3.13 1.31,6.46 1,10c3.33,0 6.67,0 10,0c0,-1 0,-2 0,-3c0.84,1.17 1.51,2.5 2,4c-5,1.33 -10,1.33 -15,0c1.82,-3.35 2.49,-7.01 2,-11z" fill="#4c7b7f" id="svg_374" opacity="1"/>
  </g>
  <g id="svg_377">
   <path d="m18.5,255.5c5,0 10,0 15,0c0,1 0,2 0,3c-2.55,-0.89 -5.22,-1.22 -8,-1c-0.22,2.78 0.11,5.45 1,8c-3.33,0 -6.67,0 -10,0c-0.67,-2.67 -1.33,-5.33 -2,-8c1.88,0.27 3.21,-0.4 4,-2z" fill="#48a74b" id="svg_378"/>
  </g>
  <g id="svg_381">
   <path d="m48.5,266.5c0,0.67 0,1.33 0,2c-4,0 -8,0 -12,0c0,-0.67 -0.33,-1 -1,-1c0.16,-3.02 0,-6.02 -0.5,-9c-0.19,2.54 -0.69,4.87 -1.5,7c0,-2.33 0,-4.67 0,-7c0,-1 0,-2 0,-3c4.62,-1.28 9.28,-1.28 14,0c0.93,3.59 1.26,7.26 1,11z" fill="#949881" id="svg_382"/>
  </g>
  <g id="svg_385">
   <path d="m157.5,251.5c0.39,3.3 1.39,6.3 3,9c2.33,0 4.67,0 7,0c0.97,-2.45 1.31,-5.12 1,-8c1.81,4.97 0.81,9.3 -3,13c-4.58,0.35 -8.91,-0.32 -13,-2c-1,-5.27 0.66,-9.27 5,-12z" fill="#8eae83" id="svg_386" opacity="0.6"/>
  </g>
  <g id="svg_389">
   <path d="m152.5,263.5c4.09,1.68 8.42,2.35 13,2c-0.45,0.96 -1.12,1.79 -2,2.5c-5.11,1.61 -8.78,0.11 -11,-4.5z" fill="#76a1cd" id="svg_390" opacity="0.53"/>
  </g>
  <g id="svg_391">
   <path d="m35.5,267.5c0.67,0 1,0.33 1,1c4.16,1.77 3.83,2.77 -1,3c-4.23,-1.39 -8.57,-2.05 -13,-2c0,-1 0,-2 0,-3c4.29,0.8 8.62,1.13 13,1z" fill="#58a34c" id="svg_392"/>
  </g>
  <g id="svg_393">
   <path d="m117.5,266.16c3.66,0.45 7.33,0.95 11,1.5c1.59,0.95 2.93,2.11 4,3.5c-4,-0.67 -8,-1.33 -12,-2c0,1.33 0,2.67 0,4c-1.33,0 -2.67,0 -4,0c-0.11,-2.22 -0.78,-4.22 -2,-6c1.29,0.24 2.29,-0.1 3,-1z" fill="#b2b7a7" id="svg_394" opacity="0.01"/>
  </g>
  <g id="svg_395">
   <path d="m48.5,266.5c6,0 12,0 18,0c-1.28,2.84 -1.94,5.84 -2,9c-4.33,0 -8.67,0 -13,0c0,-0.67 0,-1.33 0,-2c0.54,-0.06 0.88,-0.39 1,-1c-1.19,-0.93 -2.52,-1.26 -4,-1c0,-1 0,-2 0,-3c0,-0.67 0,-1.33 0,-2z" fill="#399649" id="svg_396"/>
  </g>
  <g id="svg_397">
   <path d="m103.5,267.16c1,0 2,0 3,0c0,3.33 0,6.67 0,10c1.33,0 2.67,0 4,0c0,1.33 0,2.67 0,4c-1.98,-1.67 -4.31,-2.33 -7,-2c0,-4 0,-8 0,-12z" fill="#96af85" id="svg_398" opacity="0.23"/>
  </g>
  <g id="svg_399">
   <path d="m66.5,266.5c0.67,0 1.33,0 2,0c0.33,0.67 0.67,1.33 1,2c-0.17,2.34 -1.34,4.01 -3.5,5c-0.49,1.29 -0.66,2.63 -0.5,4c-5.12,0.6 -9.79,-0.06 -14,-2c4.33,0 8.67,0 13,0c0.06,-3.16 0.72,-6.16 2,-9z" fill="#93a57a" id="svg_400" opacity="0.86"/>
  </g>
  <g id="svg_401">
   <path d="m106.5,267.16c2.67,0 5.33,0 8,0c1.22,1.78 1.89,3.78 2,6c1.33,0 2.67,0 4,0c0,-1.33 0,-2.67 0,-4c4,0.67 8,1.33 12,2c0,3 0,6 0,9c-7.3,0.85 -14.63,1.18 -22,1c0,-1.33 0,-2.67 0,-4c-1.33,0 -2.67,0 -4,0c0,-3.33 0,-6.67 0,-10z" fill="#4ba551" id="svg_402"/>
  </g>
    <g id="svg_187" transform="matrix(1 0 0 1 0 0)">
   <path d="m273.5,190.5c0.35,-4.24 -0.32,-8.24 -2,-12c-4.47,-0.99 -9.14,-1.32 -14,-1c0.29,1.79 -0.05,3.46 -1,5c-1.24,-2.81 -0.91,-5.48 1,-8c-1.67,-2.02 -2.34,-4.36 -2,-7c1.96,-1.65 4.29,-2.31 7,-2c0,-1.33 0,-2.67 0,-4c2.67,0 5.33,0 8,0c0,1.33 0,2.67 0,4c2.33,0 4.67,0 7,0c0,1.33 0,2.67 0,4c1.33,0 2.67,0 4,0c0,4 0,8 0,12c-1.64,-0.21 -3.14,0.12 -4.5,1c-1.37,2.69 -2.54,5.36 -3.5,8z" fill="#12d9cc" id="svg_188"/>
  </g>
  <g id="svg_205" transform="matrix(1 0 0 1 0 0)">
   <path d="m252.5,163.5c1.76,0.76 2.76,2.1 3,4c-0.34,2.64 0.33,4.98 2,7c-1.91,2.52 -2.24,5.19 -1,8c0.95,-1.54 1.29,-3.21 1,-5c4.86,-0.32 9.53,0.01 14,1c-3,0 -6,0 -9,0c-1,0 -2,0 -3,0c-0.98,3.13 -1.31,6.46 -1,10c-1.33,0 -2.67,0 -4,0c-0.03,1.7 -0.69,3.03 -2,4c-2.78,-0.58 -5.45,-1.25 -8,-2c2.88,0.31 5.55,-0.03 8,-1c0,-2 0,-4 0,-6c0,-1 0,-2 0,-3c-1.29,0.24 -2.29,-0.1 -3,-1c-0.25,-3.24 -1.92,-5.24 -5,-6c2.67,0 5.33,0 8,0c0,-2.33 0,-4.67 0,-7c0,-1 0,-2 0,-3z" fill="#3ed0d2" id="svg_206"/>
  </g>
  <g id="svg_147">
   <path d="m311.5,136.5c0.62,0.11 1.12,0.44 1.5,1c0.5,3.65 0.67,7.32 0.5,11c-0.97,0.49 -1.97,0.99 -3,1.5c-5.66,0.5 -11.32,0.67 -17,0.5c-2.58,0.47 -4.58,-0.19 -6,-2c8,0 16,0 24,0c0,-4 0,-8 0,-12z" fill="#3ed0d2" id="svg_148"/>
  </g>
  <g fill="#5ca356" id="svg_211">
   <path d="m323.5,168.5c3.54,0.58 6.87,1.58 10,3c0,4.33 0,8.67 0,13c-4,0 -8,0 -12,0c0,-4.33 0,-8.67 0,-13c0.9,-0.79 1.57,-1.79 2,-3z" fill="#5ca356" id="svg_212"/>
  </g>
  <rect fill="#68a05a" height="1.65" id="svg_359" stroke-width="0.5" width="10.34" x="323.85" y="209.11"/>
  <rect fill="#12d9cc" height="13.33" id="svg_8" stroke="#000000" stroke-opacity="0" width="16" x="257.6" y="178"/>
  <rect fill="#fa4d78" height="12" id="svg_337" stroke="#ffaad4" width="12" x="58.99" y="150.93"/>
  <g id="svg_133" transform="matrix(1 0 0 1 0 0)">
   <path d="m192.5,136.32c0,1.38 0,2.77 0,4.14c-1.12,3.65 -1.12,7.44 0,11.39c-0.33,0 -0.67,0 -1,0c-1.33,-3.09 -2.66,-6.19 -4,-9.32c1.25,-1.9 1.92,-3.97 2,-6.21c1,0 2,0 3,0z" fill="#94a890" id="svg_134"/>
  </g>
  <rect fill="#52d35e" height="2" id="svg_9" stroke="#000000" stroke-opacity="0" transform="matrix(1 0 0 1 0 0)" width="11.29" x="31.42" y="116.22"/>
  <rect fill="#01f201" height="10" id="RusturfTunnel" stroke="#016001" stroke-width="0.5" transform="matrix(1 0 0 1 0 0)" width="10" x="59.73" y="139.96"/>
  <rect class="road sea" fill="#0effff" opacity="0.5" height="21.78" id="r122" stroke="#0000bf" stroke-width="0.2" transform="matrix(1 0 0 1 0 0)" width="16.5" x="199" y="129.57"/>
  <rect class="road sea" fill="#0effff" opacity="0.5" height="11.63" id="r106" stroke="#0000bf" stroke-width="0.2" transform="matrix(1 0 0 1 0 0)" width="34.22" x="12.56" y="243.93"/>
  <path class="road sea" d="m287.1,108.1l34,0l0,44.88l-34,0l0,-44.88z" fill="#0effff" opacity="0.5" id="r125" stroke="#0000bf" stroke-width="0.2" transform="matrix(1 0 0 1 0 0)"/>
  <rect class="road sea" fill="#0effff" opacity="0.5" height="11.18" id="r129" stroke="#5f00bf" stroke-width="0.2" transform="matrix(1 0 0 1 0 0)" width="26" x="298" y="209"/>
  <path class="road sea" d="m151,209l34,0l0,11.18l-34,0l0,-11.18z" fill="#0effff" opacity="0.5" id="r133" opacity="undefined" stroke="#0000bf" stroke-width="0.2" transform="matrix(1 0 0 1 0 0)"/>
  <rect class="road sea" fill="#0effff" opacity="0.5" height="11.18" id="r134" stroke="#0000bf" stroke-width="0.2" transform="matrix(1 0 0 1 0 0)" width="34.71" x="116.81" y="209"/>
  <rect class="road sea" fill="#0effff" opacity="0.5" height="11.18" id="r130" stroke="#0000bf" stroke-width="0.2" transform="matrix(1 0 0 1 0 0)" width="33" x="265" y="209"/>
  <rect class="road sea" fill="#0effff" opacity="0.5" height="11" id="r128" stroke="#0000bf" stroke-width="0.2" transform="matrix(1 0 0 1 0 0)" width="34" x="287" y="198"/>
  <rect class="road sea" fill="#0effff" opacity="0.5" height="44.88" id="r126" stroke="#0000bf" stroke-width="0.2" transform="matrix(1 0 0 1 0 0)" width="34" x="253" y="153"/>
  <rect class="road sea" fill="#0effff" opacity="0.5" height="44.88" id="r124" stroke="#0000bf" stroke-width="0.2" transform="matrix(1 0 0 1 0 0)" width="34" x="253" y="107.93"/>
  <rect class="road sea" fill="#0effff" opacity="0.5" height="11.18" id="r131" stroke="#0000bf" stroke-width="0.2" transform="matrix(1 0 0 1 0 0)" width="34" x="230.97" y="209"/>
  <rect class="road sea" fill="#0effff" opacity="0.5" height="11.18" id="r108" stroke="#0000bf" stroke-width="0.2" transform="matrix(1 0 0 1 0 0)" width="22" x="83" y="256"/>
  <rect class="road sea" fill="#0effff" opacity="0.5" height="11.18" id="r132" stroke="#0000bf" stroke-width="0.2" transform="matrix(1 0 0 1 0 0)" width="34" x="185" y="209"/>
  <rect class="road sea" fill="#0effff" opacity="0.5" height="44.88" id="r127" stroke="#0000bf" stroke-width="0.2" transform="matrix(1 0 0 1 0 0)" width="34" x="287.12" y="153"/>
  <rect class="road sea" fill="#0effff" opacity="0.5" height="11.18" id="r107" stroke="#0000bf" stroke-width="0.2" transform="matrix(1 0 0 1 0 0)" width="34" x="49" y="256"/>
  <rect class="road sea" fill="#0effff" opacity="0.5" height="33.67" id="r109" stroke="#0000bf" stroke-width="0.2" transform="matrix(1 0 0 1 0 0)" width="11" x="105.12" y="233.56"/>
  <rect class="road sea" fill="#0effff" opacity="0.5" height="35.22" id="r105" stroke="#0000bf" stroke-width="0.2" transform="matrix(1 0 0 1 0 0)" width="11" x="12.68" y="208.59"/>
  <rect class="road" fill="#eac720" height="24" id="r112" stroke-width="0.2" transform="matrix(1 0 0 1 0 0)" width="23.32" x="81" y="118"/>
  <rect class="road" fill="#eac720" height="12" id="r121" stroke-width="0.2" width="56.7" x="172.66" y="118"/>
  <rect class="road" fill="#eac720" height="12" id="r123" stroke-width="0.2" width="67.36" x="151.64" y="151.68"/>
  <rect class="road" fill="#eac720" height="69" id="r119" stroke-width="0.2" transform="matrix(1 0 0 1 0 0)" width="12" x="138.3" y="83.07"/>
  <path class="road" d="m128.45,151.36l23.32,0l0,12.32l-23.32,0l0,-12.32z" fill="#eac720" id="r118" opacity="undefined" stroke-width="0.2" transform="matrix(1 0 0 1 0 0)"/>
  <rect class="road" fill="#eac720" height="32.89" id="r114" stroke="#000000" stroke-opacity="0" stroke-width="0.2" transform="matrix(1 0 0 1 0 0)" width="15" x="30.62" y="83.55"/>
  <rect class="road" fill="#eac720" height="12" id="r102" stroke-width="0.2" transform="matrix(1 0 0 1 0 0)" width="22" x="35.81" y="197.68"/>
  <rect class="road" fill="#eac720" height="68.64" id="r111" stroke-width="0.2" transform="matrix(1 0 0 1 0 0)" width="12" x="104.17" y="83.1"/>
  <rect class="road" fill="#eac720" height="47" id="r120" stroke-width="0.2" transform="matrix(1 0 0 1 0 0)" width="12" x="161" y="83"/>
  <rect class="road" fill="#eac720" height="12" id="r117" stroke-width="0.2" transform="matrix(1 0 0 1 0 0)" width="33" x="70.76" y="151.3"/>
  <rect class="road" fill="#eac720" height="12" id="r116" stroke-width="0.2" transform="matrix(1 0 0 1 0 0)" width="34.26" x="25.33" y="140.5"/>
  <rect class="road" fill="#eac720" height="44.22" id="r104" stroke-width="0.2" transform="matrix(1 0 0 1 0 0)" width="12" x="12.51" y="165.14"/>
  <rect class="road" fill="#eac720" height="10.32" id="r101" stroke-width="0.2" transform="matrix(1 0 0 1 0 0)" width="12" x="58.26" y="209.84"/>
  <rect class="road" fill="#eac720" height="44.52" id="r110" stroke-width="0.2" transform="matrix(1 0 0 1 0 0)" width="12" x="104" y="164.12"/>
  <rect class="road" fill="#eac720" height="34" id="r115" stroke-width="0.2" transform="matrix(1 0 0 1 0 0)" width="12" x="12.51" y="106.28"/>
  <rect class="road" fill="#eac720" height="12" id="r113" stroke-width="0.2" transform="matrix(1 0 0 1 0 0)" width="45.5" x="58.69" y="83"/>
  <rect class="road" fill="#eac720" height="12" id="r103" stroke-width="0.2" transform="matrix(1 0 0 1 0 0)" width="46" x="57.73" y="185.93"/>
  <rect class="special" fill="#01f201" height="10.53" id="SkyPillar" stroke="#016001" stroke-width="0.5" transform="matrix(1 0 0 1 0 0)" width="10" x="245.46" y="198.07"/>
  <path class="special" d="m289.91,198.48l10,0l0,10l-10,0l0,-10z" fill="#01f201" id="SeafloorCavern" opacity="undefined" stroke="#016001" stroke-width="0.5" transform="matrix(1 0 0 1 0 0)"/>
  <rect class="special" fill="#01f201" height="10" id="VictoryRoad" stroke="#016001" stroke-width="0.5" transform="matrix(1 0 0 1 0 0)" width="10" x="322.78" y="185.46"/>
  <path class="special" d="m307.69,120.75l10,0l0,10l-10,0l0,-10z" fill="#01f201" id="ShoalCave" opacity="undefined" stroke="#016001" stroke-width="0.5" transform="matrix(1 0 0 1 0 0)"/>
  <rect class="special" fill="#01f201" height="10" id="SecretMeadow" stroke="#016001" stroke-width="0.5" transform="matrix(1 0 0 1 0 0)" width="10" x="264.89" y="198.07"/>
  <rect class="speical" fill="#01f201" height="10" id="MtPyre" stroke="#016001" stroke-width="0.5" transform="matrix(1 0 0 1 0 0)" width="10" x="205.12" y="138.3"/>
  <rect class="special" fill="#01f201" height="10" id="GraniteCave" stroke="#016001" stroke-width="0.5" transform="matrix(1 0 0 1 0 0)" width="10" x="25.11" y="256.86"/>
  <rect class="special" fill="#01f201" height="10" id="SafariZone" stroke="#016001" stroke-width="0.5" transform="matrix(1 0 0 1 0 0)" width="10" x="191.25" y="106.82"/>
  <rect class="special" fill="#01f201" height="10" id="FieryPath" stroke="#016001" stroke-width="0.5" transform="matrix(1 0 0 1 0 0)" width="10" x="87.37" y="117.41"/>
  <path class="special" d="m87.37,245.78l10,0l0,10l-10,0l0,-10z" fill="#01f201" id="SeaMauville" opacity="undefined" stroke="#016001" stroke-width="0.5" transform="matrix(1 0 0 1 0 0)"/>
  <rect class="special" fill="#01f201" height="10" id="SouthernIsland" stroke="#016001" stroke-width="0.5" transform="matrix(1 0 0 1 0 0)" width="10" x="158.21" y="250.19"/>
  <rect class="special" fill="#01f201" height="10" id="MtChimney" stroke="#016001" stroke-width="0.5" transform="matrix(1 0 0 1 0 0)" width="10" x="77.21" y="106.92"/>
  <rect class="special" fill="#01f201" height="10" id="JaggedPass" stroke="#016001" stroke-width="0.5" transform="matrix(1 0 0 1 0 0)" width="10" x="77.21" y="117.09"/>
  <path class="special" d="m270.35,233.67l10,0l0,10l-10,0l0,-10z" fill="#01f201" id="BattleResort" opacity="undefined" stroke="#016001" stroke-width="0.5" transform="matrix(1 0 0 1 0 0)"/>
  <rect class="special" fill="#01f201" height="10" id="PetalburgWoods" stroke="#016001" stroke-width="0.5" transform="matrix(1 0 0 1 0 0)" width="10" x="9.22" y="173.32"/>
  <rect class="special" fill="#01f201" height="10" id="NewMauville" stroke="#016001" stroke-width="0.5" transform="matrix(1 0 0 1 0 0)" width="10" x="116.2" y="165.5"/>
  <rect class="special" fill="#01f201" height="10" id="MeteorFalls" stroke="#016001" stroke-width="0.5" transform="matrix(1 0 0 1 0 0)" width="10" x="20.91" y="106.38"/>
  <rect class="special" fill="#01f201" height="10" id="SecretIslet" stroke="#016001" stroke-width="0.5" transform="matrix(1 0 0 1 0 0)" width="10" x="242.36" y="180.91"/>
  <rect class="special" fill="#01f201" height="10" id="CaveOfOrigin" stroke="#016001" stroke-width="0.5" transform="matrix(1 0 0 1 0 0)" width="10" x="242.31" y="163.49"/>
  <rect class="special" fill="#01f201" height="10" id="SecretShore" stroke="#016001" stroke-width="0.5" transform="matrix(1 0 0 1 0 0)" width="10" x="310.38" y="222.87"/>
  <rect class="city" fill="#fa4d78" height="12" id="EverGrande" stroke="#ffaad4" transform="matrix(1 0 0 1 0 0)" width="12" x="322.16" y="196.62"/>
  <rect class="city" fill="#fa4d78" height="12" id="Sootopolis" stroke="#ffaad4" transform="matrix(1 0 0 1 0 0)" width="12" x="258.69" y="179.05"/>
  <rect class="city" fill="#fa4d78" height="12" id="PokemonLeague" stroke="#ffaad4" transform="matrix(1 0 0 1 0 0)" width="12" x="321.95" y="172.43"/>
  <rect class="city" fill="#fa4d78" height="12" id="Mossdeep" stroke="#ffaad4" transform="matrix(1 0 0 1 0 0)" width="23.78" x="287.64" y="136.05"/>
  <rect class="city" fill="#fa4d78" height="12" id="Lavaridge" stroke="#ffaad4" transform="matrix(1 0 0 1 0 0)" width="12" x="70.25" y="129.44"/>
  <rect class="city" fill="#fa4d78" height="12" id="Dewford" stroke="#ffaad4" transform="matrix(1 0 0 1 0 0)" width="12" x="36.04" y="255.74"/>
  <rect class="city" fill="#f84e77" height="12" id="Lilycove" stroke="#ffaad4" transform="matrix(1 0 0 1 0 0)" width="23.43" x="229.47" y="117"/>
  <rect class="city" fill="#fa4d78" height="12" id="PacifidlogCity" stroke="#ffaad4" transform="matrix(1 0 0 1 0 0)" width="12" x="219" y="208.61"/>
  <rect class="city" fill="#f84e77" height="24" id="Rustboro" stroke="#ffaad4" transform="matrix(1 0 0 1 0 0)" width="12" x="12.76" y="140.7"/>
  <rect class="city" fill="#f84e77" height="24" id="Slateport" stroke="#ffaad4" transform="matrix(1 0 0 1 0 0)" width="12" x="104.17" y="209"/>
  <rect class="city" fill="#fa4d78" height="12" id="Petalburg" stroke="#ffaad4" transform="matrix(1 0 0 1 0 0)" width="12" x="24.05" y="197.65"/>
  <rect class="city" fill="#fa4d78" height="12" id="Oldale" stroke="#ffaad4" transform="matrix(1 0 0 1 0 0)" width="12" x="57.96" y="197.24"/>
  <rect class="city" fill="#fa4d78" height="12" id="fortree" stroke="#ffaad4" width="12" x="149.54" y="82.6"/>
  <rect class="city" fill="#fa4d78" height="12" id="Littleroot" stroke="#ffaad4" transform="matrix(1 0 0 1 0 0)" width="12" x="58.16" y="219.98"/>
  <rect class="city" fill="#f84e77" height="12" id="Mauville" stroke="#ffaad4" transform="matrix(1 0 0 1 0 0)" width="23.78" x="104.1" y="151.94"/>
  <rect class="city" fill="#fa4d78" height="12" id="Fallarbor" stroke="#ffaad4" transform="matrix(1 0 0 1 0 0)" width="12" x="45.97" y="83.12"/>
  <path d="m139.49,151l12.08,0" fill="#000000" id="svg_444" opacity="undefined" stroke="#000000" stroke-dasharray="2,2" stroke-width="2"/>
  <path d="m103.6,187.22l0.31,11.12" fill="#000000" id="svg_473" opacity="undefined" stroke="#000000" stroke-dasharray="2,2" stroke-width="2" transform="matrix(1 0 0 1 0 0)"/>
  <path d="m151.5,152.84l0.32,11.11" fill="#000000" id="svg_474" opacity="undefined" stroke="#000000" stroke-dasharray="2,2" stroke-width="2"/>
  <path d="m104,83.9l0.31,11.12" fill="#000000" id="svg_475" opacity="undefined" stroke="#000000" stroke-dasharray="2,2" stroke-width="2"/>
  <path d="m173.41,118.85l0.32,11.11" fill="#000000" id="svg_448" opacity="undefined" stroke="#000000" stroke-dasharray="2,2" stroke-width="2" transform="matrix(1 0 0 1 0 0)"/>
  <path d="m104,118.53l0.31,22.87" fill="#000000" id="svg_451" opacity="undefined" stroke="#000000" stroke-dasharray="2,2" stroke-width="2"/>
</svg>