<?xml version="1.0"?>
<svg width="350" height="350" xmlns="http://www.w3.org/2000/svg" xmlns:svg="http://www.w3.org/2000/svg" version="1.1">
 <g class="layer">
  <title>Kanto</title>
  <path d="m0,37c92.4,0 184.8,0 280,0c0,2.97 0,5.94 0,9c-0.66,0 -1.32,0 -2,0c0.08,1.2 0.17,2.39 0.25,3.63c0.01,4.52 -1.54,6.74 -4.25,10.37c-1.11,2.3 -2.05,4.63 -3,7c-0.66,0 -1.32,0 -2,0c0,2.31 0,4.62 0,7c0.66,0 1.32,0 2,0c0,0.66 0,1.32 0,2c4.31,0.94 8.62,1.48 13,2c0,0.66 0,1.32 0,2c2.64,0 5.28,0 8,0c0,0.66 0,1.32 0,2c1.98,0 3.96,0 6,0c0,0.66 0,1.32 0,2c0.66,0 1.32,0 2,0c0,0.66 0,1.32 0,2c0.66,0 1.32,0 2,0c0.03,0.84 0.05,1.69 0.08,2.55c0.05,1.1 0.11,2.2 0.17,3.33c0.05,1.09 0.09,2.18 0.14,3.3c0.31,2.88 0.31,2.88 2.33,4.16c2.54,0.73 4.9,1.08 7.53,1.29c0.89,0.07 1.78,0.14 2.7,0.22c0.68,0.05 1.35,0.1 2.05,0.15c0,0.66 0,1.32 0,2c4.62,0 9.24,0 14,0c0,0.66 0,1.32 0,2c1.98,0 3.96,0 6,0c0,0.66 0,1.32 0,2c0.74,0.08 1.49,0.17 2.25,0.25c3.9,1.06 5.75,3.14 7.86,6.53c1.12,2.78 1.09,4.98 1.02,7.97c-0.02,0.98 -0.04,1.97 -0.06,2.98c-0.03,1.13 -0.03,1.13 -0.07,2.27c-0.66,0 -1.32,0 -2,0c-0.14,0.62 -0.29,1.24 -0.44,1.88c-0.56,2.12 -0.56,2.12 -1.56,4.12c-0.66,0 -1.32,0 -2,0c-0.19,1.48 -0.38,2.96 -0.56,4.44c-0.11,0.82 -0.21,1.64 -0.32,2.49c-0.04,0.69 -0.08,1.37 -0.12,2.07c0.33,0.33 0.66,0.66 1,1c0.15,2.29 0.22,4.58 0.25,6.88c0.03,1.25 0.05,2.51 0.08,3.8c-0.33,3.32 -0.33,3.32 -1.77,5.07c-0.52,0.41 -1.03,0.82 -1.56,1.25c-1.2,3.1 -1.2,3.1 -2,6c-0.66,0 -1.32,0 -2,0c0,3.63 0,7.26 0,11c0.66,0 1.32,0 2,0c0.29,0.75 0.58,1.5 0.88,2.27c2.45,6.38 2.45,6.38 7.43,10.73c0.89,0.66 1.78,1.32 2.69,2c0.53,3.71 0.35,7.28 0,11c-0.66,0 -1.32,0 -2,0c0,0.66 0,1.32 0,2c-2.97,0.66 -5.94,1.32 -9,2c0,0.66 0,1.32 0,2c-0.66,0 -1.32,0 -2,0c0,0.66 0,1.32 0,2c-0.66,0 -1.32,0 -2,0c-0.79,3.52 -1.15,6.82 -1.21,10.43c-0.02,1.06 -0.04,2.12 -0.06,3.22c-0.01,1.13 -0.03,2.26 -0.05,3.43c-0.03,1.76 -0.03,1.76 -0.06,3.55c-0.06,3.72 -0.12,7.45 -0.18,11.18c-0.05,2.53 -0.09,5.06 -0.13,7.59c-0.11,6.2 -0.21,12.4 -0.31,18.6c-2.64,0 -5.28,0 -8,0c0,0.66 0,1.32 0,2c-0.66,0 -1.32,0 -2,0c0,1.98 0,3.96 0,6c-0.66,0 -1.32,0 -2,0c0,1.32 0,2.64 0,4c-4.62,2.22 -7.77,3.38 -13,3c0,0.66 0,1.32 0,2c-1.98,0 -3.96,0 -6,0c0,0.66 0,1.32 0,2c-0.66,0 -1.32,0 -2,0c0,0.66 0,1.32 0,2c-2.81,0.03 -5.62,0.05 -8.44,0.06c-0.8,0.01 -1.6,0.02 -2.43,0.03c-2.04,0.01 -4.09,-0.04 -6.13,-0.09c-0.33,-0.33 -0.66,-0.66 -1,-1c-2.18,-0.23 -4.37,-0.41 -6.56,-0.56c-1.2,-0.09 -2.4,-0.17 -3.63,-0.26c-0.93,-0.06 -1.86,-0.12 -2.81,-0.18c0,0.66 0,1.32 0,2c-1.32,0 -2.64,0 -4,0c0,0.66 0,1.32 0,2c-1.32,0 -2.64,0 -4,0c0,0.66 0,1.32 0,2c-3.3,0 -6.6,0 -10,0c0,0.66 0,1.32 0,2c-3.88,1.19 -6.92,2 -11,2c0,0.66 0,1.32 0,2c-0.66,0 -1.32,0 -2,0c0,0.66 0,1.32 0,2c-0.66,0 -1.32,0 -2,0c0,0.66 0,1.32 0,2c-0.66,0 -1.32,0 -2,0c0,4.95 0,9.9 0,15c-41.58,0 -83.16,0 -126,0c0,0.66 0,1.32 0,2c-4.1,0.14 -8.21,0.23 -12.31,0.31c-1.17,0.04 -2.34,0.09 -3.54,0.13c-1.12,0.02 -2.24,0.03 -3.39,0.05c-1.55,0.04 -1.55,0.04 -3.12,0.08c-2.64,-0.57 -2.64,-0.57 -4.48,-2.81c-1.16,-2.75 -1.51,-4.45 -1.45,-7.4c0.01,-0.85 0.02,-1.69 0.03,-2.55c0.02,-0.87 0.05,-1.73 0.07,-2.62c0.02,-1.33 0.02,-1.33 0.04,-2.68c0.04,-2.17 0.09,-4.34 0.15,-6.51c0.66,0 1.32,0 2,0c1.11,-3.32 1.32,-6.2 1.56,-9.69c0.09,-1.18 0.17,-2.36 0.26,-3.57c0.06,-0.91 0.12,-1.81 0.18,-2.74c-2.64,-0.66 -5.28,-1.32 -8,-2c0,-0.66 0,-1.32 0,-2c-1.32,0 -2.64,0 -4,0c0,-1.98 0,-3.96 0,-6c-0.66,0 -1.32,0 -2,0c-0.03,-1.73 -0.05,-3.46 -0.06,-5.19c-0.01,-0.96 -0.03,-1.92 -0.04,-2.92c0.1,-2.89 0.1,-2.89 0.79,-5.57c0.1,-0.76 0.21,-1.53 0.31,-2.32c-0.47,-0.46 -0.94,-0.92 -1.43,-1.39c-1.57,-1.61 -1.57,-1.61 -1.86,-4.75c0.03,-1.17 0.07,-2.34 0.1,-3.55c0.04,-1.77 0.04,-1.77 0.08,-3.57c0.04,-0.91 0.07,-1.81 0.11,-2.74c0.66,0 1.32,0 2,0c0,-0.66 0,-1.32 0,-2c1.32,0 2.64,0 4,0c0,-0.66 0,-1.32 0,-2c1.32,0 2.64,0 4,0c0,-0.99 0,-1.98 0,-3c-0.66,0 -1.32,0 -2,0c0,-0.66 0,-1.32 0,-2c-1.32,0 -2.64,0 -4,0c0,-0.66 0,-1.32 0,-2c-1.98,0 -3.96,0 -6,0c0,-0.66 0,-1.32 0,-2c-4.29,0 -8.58,0 -13,0c0,0.66 0,1.32 0,2c-5.78,2.01 -10.9,2.22 -17,2c0,0.66 0,1.32 0,2c-1.32,0 -2.64,0 -4,0c0,0.66 0,1.32 0,2c-1.32,0 -2.64,0 -4,0c0,0.66 0,1.32 0,2c-3.3,0 -6.6,0 -10,0c0,0.66 0,1.32 0,2c-4.46,0.99 -4.46,0.99 -9,2c0,0.66 0,1.32 0,2c-0.66,0 -1.32,0 -2,0c0,0.66 0,1.32 0,2c-0.66,0 -1.32,0 -2,0c0,0.66 0,1.32 0,2c-0.99,0 -1.98,0 -3,0c0,-68.97 0,-137.94 0,-209zm208,156c0,0.99 0,1.98 0,3c0.66,0 1.32,0 2,0c0,0.66 0,1.32 0,2c0.66,0 1.32,0 2,0c0,0.66 0,1.32 0,2c0.66,0 1.32,0 2,0c0,0.66 0,1.32 0,2c0.66,0 1.32,0 2,0c0,2.97 0,5.94 0,9c-1.22,-0.06 -2.43,-0.12 -3.69,-0.19c-3.89,0.02 -6.37,0.43 -9.31,3.19c-0.42,3.13 -0.42,3.13 0,6c-3.63,0 -7.26,0 -11,0c0,-0.66 0,-1.32 0,-2c-0.99,-0.33 -1.98,-0.66 -3,-1c-0.1,-0.68 -0.2,-1.35 -0.3,-2.05c-0.91,-5.62 -0.91,-5.62 -3.57,-10.57c-2.27,-1.74 -2.27,-1.74 -6.13,-1.38c0,-0.66 0,-1.32 0,-2c-1.32,0 -2.64,0 -4,0c0,-0.66 0,-1.32 0,-2c-1.98,0 -3.96,0 -6,0c0,-0.66 0,-1.32 0,-2c-1.32,0 -2.64,0 -4,0c0,-0.66 0,-1.32 0,-2c-0.66,0 -1.32,0 -2,0c0,-0.66 0,-1.32 0,-2c-3.63,0 -7.26,0 -11,0c0,0.66 0,1.32 0,2c-0.66,0 -1.32,0 -2,0c0,23.43 0,46.86 0,71c0.66,0 1.32,0 2,0c0,0.66 0,1.32 0,2c19.8,0 39.6,0 60,0c0,-0.66 0,-1.32 0,-2c0.66,0 1.32,0 2,0c0.45,-1.24 0.91,-2.47 1.38,-3.75c2.52,-6.63 2.52,-6.63 3.62,-8.25c2.13,-0.75 2.13,-0.75 4,-1c0,-0.66 0,-1.32 0,-2c1.98,0 3.96,0 6,0c0,-0.66 0,-1.32 0,-2c1.32,0 2.64,0 4,0c0,-0.66 0,-1.32 0,-2c1.32,0 2.64,0 4,0c0,-0.66 0,-1.32 0,-2c0.66,0 1.32,0 2,0c0,-0.66 0,-1.32 0,-2c0.66,0 1.32,0 2,0c0,-0.66 0,-1.32 0,-2c0.66,-0.33 1.32,-0.66 2,-1c-0.66,0 -1.32,0 -2,0c0.73,-16.73 0.73,-16.73 6,-22c0.14,-2.58 0.19,-5.05 0.13,-7.62c-0.01,-0.71 -0.02,-1.42 -0.03,-2.15c-0.03,-1.74 -0.06,-3.49 -0.1,-5.23c-0.66,0 -1.32,0 -2,0c0,-0.66 0,-1.32 0,-2c-1.32,0 -2.64,0 -4,0c0,-0.66 0,-1.32 0,-2c-1.98,0 -3.96,0 -6,0c0,-0.66 0,-1.32 0,-2c-1.32,0 -2.64,0 -4,0c0,-0.66 0,-1.32 0,-2c-0.66,0 -1.32,0 -2,0c0,-0.66 0,-1.32 0,-2c-2.94,-0.19 -5.87,-0.38 -8.81,-0.56c-1.25,-0.09 -1.25,-0.09 -2.53,-0.17c-0.8,-0.05 -1.6,-0.1 -2.43,-0.15c-1.11,-0.07 -1.11,-0.07 -2.24,-0.14c-2.2,-0.08 -2.2,-0.08 -4.99,1.02zm-79,6c0,0.66 0,1.32 0,2c-1.32,0 -2.64,0 -4,0c0,0.66 0,1.32 0,2c-0.66,0 -1.32,0 -2,0c0,0.66 0,1.32 0,2c-0.66,0 -1.32,0 -2,0c0,0.66 0,1.32 0,2c-0.66,0 -1.32,0 -2,0c0,0.66 0,1.32 0,2c-0.66,0 -1.32,0 -2,0c0,1.32 0,2.64 0,4c-0.66,0 -1.32,0 -2,0c-1.01,1.72 -2.01,3.45 -3,5.19c-0.56,0.96 -1.11,1.92 -1.69,2.92c-1.33,2.94 -1.59,4.71 -1.31,7.89c0.66,0 1.32,0 2,0c0,0.66 0,1.32 0,2c0.66,0 1.32,0 2,0c0,3.3 0,6.6 0,10c1.32,0 2.64,0 4,0c-0.39,13.31 -0.39,13.31 -5,19c-0.55,1.24 -1.08,2.49 -1.56,3.75c-1.44,3.25 -1.44,3.25 -4.44,5.25c0,0.66 0,1.32 0,2c-0.66,0 -1.32,0 -2,0c0,0.66 0,1.32 0,2c-0.66,0 -1.32,0 -2,0c0,0.66 0,1.32 0,2c-0.66,0 -1.32,0 -2,0c0,7.92 0,15.84 0,24c0.66,0 1.32,0 2,0c0,0.66 0,1.32 0,2c36.3,0 72.6,0 110,0c0,-0.66 0,-1.32 0,-2c0.66,-0.33 1.32,-0.66 2,-1c-0.66,0 -1.32,0 -2,0c0,-0.66 0,-1.32 0,-2c-1.98,0 -3.96,0 -6,0c0,-0.66 0,-1.32 0,-2c-1.32,0 -2.64,0 -4,0c0,-1.98 0,-3.96 0,-6c-0.66,0 -1.32,0 -2,0c0,-0.66 0,-1.32 0,-2c-33.16,-0.5 -33.16,-0.5 -67,-1c-0.33,-28.38 -0.66,-56.76 -1,-86c-0.99,0 -1.98,0 -3,0z" fill="#6FDF1F" id="svg_1" transform="matrix(1 0 0 1 0 0)"/>
  <path d="m238,37.18c13.86,0 27.72,0 42,0c0,2.97 0,5.94 0,9c-0.66,0 -1.32,0 -2,0c0.08,1.2 0.16,2.39 0.25,3.63c0.01,4.52 -1.54,6.74 -4.25,10.37c-1.11,2.3 -2.05,4.63 -3,7c-0.66,0 -1.32,0 -2,0c0,2.31 0,4.62 0,7c0.66,0 1.32,0 2,0c0,0.66 0,1.32 0,2c4.31,0.94 8.62,1.48 13,2c0,0.66 0,1.32 0,2c2.64,0 5.28,0 8,0c0,0.66 0,1.32 0,2c1.98,0 3.96,0 6,0c0,0.66 0,1.32 0,2c0.66,0 1.32,0 2,0c0,0.66 0,1.32 0,2c0.66,0 1.32,0 2,0c0.03,0.84 0.05,1.69 0.08,2.55c0.05,1.1 0.11,2.2 0.17,3.33c0.05,1.09 0.09,2.18 0.14,3.3c0.31,2.88 0.31,2.88 2.33,4.16c2.54,0.73 4.9,1.08 7.53,1.29c0.89,0.07 1.78,0.14 2.7,0.22c0.68,0.05 1.35,0.1 2.05,0.15c0,0.66 0,1.32 0,2c4.62,0 9.24,0 14,0c0,0.66 0,1.32 0,2c1.98,0 3.96,0 6,0c0,0.66 0,1.32 0,2c0.74,0.08 1.48,0.17 2.25,0.25c3.9,1.06 5.75,3.14 7.86,6.53c1.12,2.78 1.09,4.98 1.02,7.97c-0.02,0.98 -0.04,1.97 -0.06,2.98c-0.03,1.13 -0.03,1.13 -0.07,2.27c-0.66,0 -1.32,0 -2,0c-0.14,0.62 -0.29,1.24 -0.44,1.88c-0.56,2.12 -0.56,2.12 -1.56,4.12c-0.66,0 -1.32,0 -2,0c-0.19,1.48 -0.38,2.96 -0.56,4.44c-0.11,0.82 -0.21,1.64 -0.32,2.49c-0.04,0.69 -0.08,1.37 -0.12,2.07c0.33,0.33 0.66,0.66 1,1c0.15,2.29 0.22,4.58 0.25,6.88c0.03,1.25 0.05,2.51 0.08,3.8c-0.33,3.32 -0.33,3.32 -1.77,5.07c-0.52,0.41 -1.03,0.82 -1.56,1.25c-1.2,3.1 -1.2,3.1 -2,6c-0.66,0 -1.32,0 -2,0c0,3.63 0,7.26 0,11c0.66,0 1.32,0 2,0c0.29,0.75 0.58,1.5 0.88,2.27c2.45,6.38 2.45,6.38 7.43,10.73c0.89,0.66 1.78,1.32 2.69,2c0.53,3.71 0.35,7.28 0,11c-0.66,0 -1.32,0 -2,0c0,0.66 0,1.32 0,2c-2.97,0.66 -5.94,1.32 -9,2c0,0.66 0,1.32 0,2c-0.66,0 -1.32,0 -2,0c0,0.66 0,1.32 0,2c-0.66,0 -1.32,0 -2,0c-0.79,3.52 -1.15,6.82 -1.21,10.43c-0.02,1.06 -0.04,2.12 -0.06,3.22c-0.01,1.13 -0.03,2.26 -0.05,3.43c-0.03,1.76 -0.03,1.76 -0.06,3.55c-0.06,3.72 -0.12,7.45 -0.18,11.18c-0.05,2.53 -0.09,5.06 -0.13,7.59c-0.11,6.2 -0.21,12.4 -0.31,18.6c-2.64,0 -5.28,0 -8,0c0,0.66 0,1.32 0,2c-0.66,0 -1.32,0 -2,0c0,1.98 0,3.96 0,6c-0.66,0 -1.32,0 -2,0c0,1.32 0,2.64 0,4c-4.62,2.22 -7.77,3.38 -13,3c0,0.66 0,1.32 0,2c-1.98,0 -3.96,0 -6,0c0,0.66 0,1.32 0,2c-0.66,0 -1.32,0 -2,0c0,0.66 0,1.32 0,2c-2.81,0.03 -5.62,0.05 -8.44,0.06c-0.8,0.01 -1.6,0.02 -2.43,0.03c-2.04,0.01 -4.09,-0.04 -6.13,-0.09c-0.33,-0.33 -0.66,-0.66 -1,-1c-2.18,-0.23 -4.37,-0.41 -6.56,-0.56c-1.2,-0.09 -2.4,-0.17 -3.63,-0.26c-0.93,-0.06 -1.86,-0.12 -2.81,-0.18c0,0.66 0,1.32 0,2c-1.32,0 -2.64,0 -4,0c0,0.66 0,1.32 0,2c-1.32,0 -2.64,0 -4,0c0,0.66 0,1.32 0,2c-3.3,0 -6.6,0 -10,0c0,0.66 0,1.32 0,2c-3.88,1.19 -6.92,2 -11,2c0,0.66 0,1.32 0,2c-0.66,0 -1.32,0 -2,0c0,0.66 0,1.32 0,2c-0.66,0 -1.32,0 -2,0c0,0.66 0,1.32 0,2c-0.66,0 -1.32,0 -2,0c0,4.95 0,9.9 0,15c-41.58,0 -83.16,0 -126,0c0,0.66 0,1.32 0,2c-4.1,0.14 -8.21,0.23 -12.31,0.31c-1.17,0.04 -2.34,0.09 -3.54,0.13c-1.12,0.02 -2.24,0.03 -3.39,0.05c-1.55,0.04 -1.55,0.04 -3.12,0.08c-2.64,-0.57 -2.64,-0.57 -4.48,-2.81c-1.16,-2.75 -1.51,-4.45 -1.45,-7.4c0.01,-0.85 0.02,-1.69 0.03,-2.55c0.02,-0.87 0.05,-1.73 0.07,-2.62c0.02,-1.33 0.02,-1.33 0.04,-2.68c0.04,-2.17 0.09,-4.34 0.15,-6.51c0.66,0 1.32,0 2,0c1.11,-3.32 1.32,-6.2 1.56,-9.69c0.09,-1.18 0.17,-2.36 0.26,-3.57c0.06,-0.91 0.12,-1.81 0.18,-2.74c-2.64,-0.66 -5.28,-1.32 -8,-2c0,-0.66 0,-1.32 0,-2c-1.32,0 -2.64,0 -4,0c0,-1.98 0,-3.96 0,-6c-0.66,0 -1.32,0 -2,0c-0.03,-1.73 -0.05,-3.46 -0.06,-5.19c-0.01,-0.96 -0.03,-1.92 -0.04,-2.92c0.1,-2.89 0.1,-2.89 0.79,-5.57c0.1,-0.76 0.21,-1.53 0.31,-2.32c-0.47,-0.46 -0.94,-0.92 -1.43,-1.39c-1.57,-1.61 -1.57,-1.61 -1.86,-4.75c0.03,-1.17 0.07,-2.34 0.1,-3.55c0.04,-1.77 0.04,-1.77 0.08,-3.57c0.04,-0.91 0.07,-1.81 0.11,-2.74c0.66,0 1.32,0 2,0c0,-0.66 0,-1.32 0,-2c1.32,0 2.64,0 4,0c0,-0.66 0,-1.32 0,-2c1.32,0 2.64,0 4,0c0,-0.99 0,-1.98 0,-3c-0.66,0 -1.32,0 -2,0c0,-0.66 0,-1.32 0,-2c-1.32,0 -2.64,0 -4,0c0,-0.66 0,-1.32 0,-2c-1.98,0 -3.96,0 -6,0c0,-0.66 0,-1.32 0,-2c-4.29,0 -8.58,0 -13,0c0,0.66 0,1.32 0,2c-5.78,2.01 -10.9,2.22 -17,2c0,0.66 0,1.32 0,2c-1.32,0 -2.64,0 -4,0c0,0.66 0,1.32 0,2c-1.32,0 -2.64,0 -4,0c0,0.66 0,1.32 0,2c-3.3,0 -6.6,0 -10,0c0,0.66 0,1.32 0,2c-4.46,0.99 -4.46,0.99 -9,2c0,0.66 0,1.32 0,2c-0.66,0 -1.32,0 -2,0c0,0.66 0,1.32 0,2c-0.66,0 -1.32,0 -2,0c0,0.66 0,1.32 0,2c-0.99,0 -1.98,0 -3,0c0,-24.09 0,-48.18 0,-73c0.99,0.33 1.98,0.66 3,1c0,0.66 0,1.32 0,2c1.32,0 2.64,0 4,0c0,0.66 0,1.32 0,2c1.32,0 2.64,0 4,0c0,0.66 0,1.32 0,2c1.32,0 2.64,0 4,0c0,0.66 0,1.32 0,2c2.64,0 5.28,0 8,0c0,0.66 0,1.32 0,2c3.63,0 7.26,0 11,0c0,0.66 0,1.32 0,2c5.28,0 10.56,0 16,0c0,10.89 0,21.78 0,33c10.89,0 21.78,0 33,0c0,11.55 0,23.1 0,35c0.66,0 1.32,0 2,0c0,0.66 0,1.32 0,2c-0.66,0 -1.32,0 -2,0c0,7.59 0,15.18 0,23c0.66,0 1.32,0 2,0c0,-0.66 0,-1.32 0,-2c1.98,0 3.96,0 6,0c0,-0.66 0,-1.32 0,-2c1.65,0 3.3,0 5,0c0,-0.66 0,-1.32 0,-2c1.32,0 2.64,0 4,0c0,-39.6 0,-79.2 0,-120c21.45,0 42.9,0 65,0c0,-5.61 0,-11.22 0,-17c41.09,-0.5 41.09,-0.5 83,-1c0,-3.63 0,-7.26 0,-11c0.66,0 1.32,0 2,0c0,-0.66 0,-1.32 0,-2c0.66,0 1.32,0 2,0c0,-0.66 0,-1.32 0,-2c3.63,0 7.26,0 11,0c0,0.66 0,1.32 0,2c0.66,0 1.32,0 2,0c0,1.32 0,2.64 0,4c0.66,0 1.32,0 2,0c0,3.3 0,6.6 0,10c15.51,0 31.02,0 47,0c0,11.22 0,22.44 0,34c-16.17,0 -32.34,0 -49,0c0,5.28 0,10.56 0,16c16.17,0 32.34,0 49,0c0,10.89 0,21.78 0,33c-1.32,0 -2.64,0 -4,0c0,3.3 0,6.6 0,10c-0.66,0 -1.32,0 -2,0c0,1.32 0,2.64 0,4c-0.66,0 -1.32,0 -2,0c0,0.66 0,1.32 0,2c2.64,0 5.28,0 8,0c0,5.61 0,11.22 0,17c-16.5,0 -33,0 -50,0c0,5.28 0,10.56 0,16c-14.85,0 -29.7,0 -45,0c0,0.66 0,1.32 0,2c-0.66,0 -1.32,0 -2,0c0,-0.66 0,-1.32 0,-2c-0.66,0 -1.32,0 -2,0c0,-1.32 0,-2.64 0,-4c0.66,0 1.32,0 2,0c0,-1.32 0,-2.64 0,-4c0.66,0 1.32,0 2,0c0,-1.32 0,-2.64 0,-4c0.66,0 1.32,0 2,0c0,-0.99 0,-1.98 0,-3c0.66,0 1.32,0 2,0c0,-0.66 0,-1.32 0,-2c1.98,0 3.96,0 6,0c0,-0.66 0,-1.32 0,-2c1.32,0 2.64,0 4,0c0,-0.66 0,-1.32 0,-2c1.32,0 2.64,0 4,0c0,-0.66 0,-1.32 0,-2c0.66,0 1.32,0 2,0c0,-0.66 0,-1.32 0,-2c0.66,0 1.32,0 2,0c-0.03,-1.07 -0.07,-2.15 -0.11,-3.25c-0.02,-1.44 -0.05,-2.88 -0.08,-4.31c-0.02,-0.71 -0.05,-1.41 -0.07,-2.14c-0.08,-5.19 0.86,-8.68 3.26,-13.3c0.66,-0.66 1.32,-1.32 2,-2c0.31,-2.57 0.51,-5.05 0.63,-7.62c0.03,-0.71 0.07,-1.42 0.11,-2.15c0.1,-1.74 0.18,-3.48 0.26,-5.23c-0.66,0 -1.32,0 -2,0c0,-0.66 0,-1.32 0,-2c-1.32,0 -2.64,0 -4,0c0,-0.66 0,-1.32 0,-2c-1.98,0 -3.96,0 -6,0c0,-0.66 0,-1.32 0,-2c-1.32,0 -2.64,0 -4,0c0,-0.66 0,-1.32 0,-2c-0.66,0 -1.32,0 -2,0c0,-0.66 0,-1.32 0,-2c-6.93,0 -13.86,0 -21,0c0,0.99 0,1.98 0,3c0.66,0 1.32,0 2,0c0,0.66 0,1.32 0,2c0.66,0 1.32,0 2,0c0,0.66 0,1.32 0,2c0.66,0 1.32,0 2,0c0,0.66 0,1.32 0,2c0.66,0 1.32,0 2,0c0,2.97 0,5.94 0,9c-1.22,0.12 -2.43,0.25 -3.69,0.38c-3.37,0.41 -6.21,1.17 -9.31,2.62c0,1.98 0,3.96 0,6c-3.63,0 -7.26,0 -11,0c0,-0.66 0,-1.32 0,-2c-1.32,-0.33 -2.64,-0.66 -4,-1c-0.11,-0.69 -0.22,-1.37 -0.33,-2.08c-0.16,-0.9 -0.32,-1.8 -0.48,-2.73c-0.23,-1.34 -0.23,-1.34 -0.46,-2.71c-0.79,-2.7 -1.53,-3.77 -3.73,-5.48c-2.1,-0.71 -2.1,-0.71 -4,-1c0,-0.66 0,-1.32 0,-2c-1.32,0 -2.64,0 -4,0c0,-0.66 0,-1.32 0,-2c-1.98,0 -3.96,0 -6,0c0,-0.66 0,-1.32 0,-2c-1.32,0 -2.64,0 -4,0c0,-0.66 0,-1.32 0,-2c-0.66,0 -1.32,0 -2,0c0,-0.66 0,-1.32 0,-2c-0.73,0.01 -1.45,0.02 -2.2,0.04c-7.33,0.06 -14.51,-0.32 -21.8,-1.04c0,0.66 0,1.32 0,2c-1.98,0 -3.96,0 -6,0c0,0.66 0,1.32 0,2c-0.66,0 -1.32,0 -2,0c0,0.99 0,1.98 0,3c-0.66,0 -1.32,0 -2,0c0,0.66 0,1.32 0,2c-1.32,0 -2.64,0 -4,0c0,0.66 0,1.32 0,2c-0.66,0 -1.32,0 -2,0c0,0.66 0,1.32 0,2c-0.66,0 -1.32,0 -2,0c0,0.66 0,1.32 0,2c-0.66,0 -1.32,0 -2,0c0,0.66 0,1.32 0,2c-0.66,0 -1.32,0 -2,0c0,1.32 0,2.64 0,4c-0.66,0 -1.32,0 -2,0c-0.27,0.89 -0.54,1.77 -0.81,2.69c-1.19,3.31 -1.19,3.31 -2.75,5.87c-1.49,2.53 -2.03,4.55 -2.44,7.44c0.66,0 1.32,0 2,0c0,0.66 0,1.32 0,2c0.66,0 1.32,0 2,0c0,3.3 0,6.6 0,10c1.32,0 2.64,0 4,0c0.71,13.34 0.71,13.34 -4,19c-0.53,1.24 -1.03,2.49 -1.5,3.75c-1.5,3.25 -1.5,3.25 -3.69,4.69c-0.6,0.18 -1.19,0.37 -1.81,0.56c0,0.66 0,1.32 0,2c-0.66,0 -1.32,0 -2,0c0,0.66 0,1.32 0,2c-0.66,0 -1.32,0 -2,0c0,0.66 0,1.32 0,2c-0.66,0 -1.32,0 -2,0c0,7.92 0,15.84 0,24c0.66,0 1.32,0 2,0c0,0.66 0,1.32 0,2c36.3,0 72.6,0 110,0c0,-1.65 0,-3.3 0,-5c0.99,-0.33 1.98,-0.66 3,-1c0,0.66 0,1.32 0,2c1.98,0 3.96,0 6,0c0,0.66 0,1.32 0,2c1.98,0 3.96,0 6,0c0,0.66 0,1.32 0,2c1.65,0 3.3,0 5,0c0,-4.62 0,-9.24 0,-14c0.66,0 1.32,0 2,0c0,-0.66 0,-1.32 0,-2c15.51,0 31.02,0 47,0c0,-5.61 0,-11.22 0,-17c12.87,0 25.74,0 39,0c0,-2.64 0,-5.28 0,-8c-0.66,0 -1.32,0 -2,0c0,-3.3 0,-6.6 0,-10c-0.66,0 -1.32,0 -2,0c0,-3.63 0,-7.26 0,-11c0.66,0 1.32,0 2,0c0,-2.64 0,-5.28 0,-8c0.66,0 1.32,0 2,0c0,-1.98 0,-3.96 0,-6c0.66,0 1.32,0 2,0c0,-0.66 0,-1.32 0,-2c0.66,0 1.32,0 2,0c0,-0.66 0,-1.32 0,-2c0.66,0 1.32,0 2,0c0,-1.32 0,-2.64 0,-4c0.66,0 1.32,0 2,0c0,-0.66 0,-1.32 0,-2c0.99,0 1.98,0 3,0c0,-8.91 0,-17.82 0,-27c0.66,0 1.32,0 2,0c0,-3.96 0,-7.92 0,-12c-0.66,0 -1.32,0 -2,0c-1.29,-1.53 -1.29,-1.53 -2.62,-3.5c-0.45,-0.65 -0.9,-1.3 -1.36,-1.97c-0.33,-0.5 -0.67,-1.01 -1.02,-1.53c0.99,0.33 1.98,0.66 3,1c0.33,-16.5 0.66,-33 1,-50c-21.78,0 -43.56,0 -66,0c0,-5.61 0,-11.22 0,-17c10.89,0 21.78,0 33,0c0,-5.28 0,-10.56 0,-16c-16.17,0 -32.34,0 -49,0c0,10.89 0,21.78 0,33c-19.14,0 -38.28,0 -58,0c0,-1.98 0,-3.96 0,-6c0.66,0 1.32,0 2,0c0,-0.66 0,-1.32 0,-2c0.99,0 1.98,0 3,0c0,-0.66 0,-1.32 0,-2c1.32,0 2.64,0 4,0c0,-0.66 0,-1.32 0,-2c1.32,0 2.64,0 4,0c0,-0.66 0,-1.32 0,-2c0.66,0 1.32,0 2,0c0,-0.66 0,-1.32 0,-2c0.66,0 1.32,0 2,0c0,-2.31 0,-4.62 0,-7c0.66,0 1.32,0 2,0c0,-1.98 0,-3.96 0,-6c0.66,0 1.32,0 2,0c0,-3.96 0,-7.92 0,-12c0.66,0 1.32,0 2,0c0,-1.32 0,-2.64 0,-4c0.66,0 1.32,0 2,0c0,-1.65 0,-3.3 0,-5c0.66,0 1.32,0 2,0c0,-1.32 0,-2.64 0,-4c0.66,0 1.32,0 2,0c0,-1.32 0,-2.64 0,-4c0.66,0 1.32,0 2,0c0,-0.66 0,-1.32 0,-2c1.32,0 2.64,0 4,0c0,-0.66 0,-1.32 0,-2c1.32,0 2.64,0 4,0c0,-0.66 0,-1.32 0,-2c0.99,0 1.98,0 3,0c0,-0.66 0,-1.32 0,-2c0.66,0 1.32,0 2,0c0,-0.66 0,-1.32 0,-2c0.66,0 1.32,0 2,0c0,-1.98 0,-3.96 0,-6c0.66,0 1.32,0 2,0c0,-2.97 0,-5.94 0,-9z" fill="#37A708" id="svg_2"/>
  <path d="m213,295c0.66,0 1.32,0 2,0c0,0.66 0,1.32 0,2c1.98,0 3.96,0 6,0c0,0.66 0,1.32 0,2c1.98,0 3.96,0 6,0c0,0.66 0,1.32 0,2c2.31,0 4.62,0 7,0c0,-0.66 0,-1.32 0,-2c0.66,0 1.32,0 2,0c0,-0.66 0,-1.32 0,-2c0.66,0 1.32,0 2,0c0,0.99 0,1.98 0,3c-0.66,0 -1.32,0 -2,0c0,0.66 0,1.32 0,2c-0.66,0 -1.32,0 -2,0c0,0.66 0,1.32 0,2c-6.6,-0.33 -13.2,-0.66 -20,-1c-2,-4 -2,-4 -1.63,-6.25c0.21,-0.58 0.42,-1.16 0.63,-1.75z" fill="#79AFCF" id="svg_111"/>
  <path d="m0,0c34.98,0 69.96,0 106,0c0,2.31 0,4.62 0,7c0.66,0 1.32,0 2,0c0,4.62 0,9.24 0,14c-0.66,0 -1.32,0 -2,0c0,2.64 0,5.28 0,8c-0.66,0 -1.32,0 -2,0c0,1.32 0,2.64 0,4c0.66,0 1.32,0 2,0c0,2.31 0,4.62 0,7c0.66,0 1.32,0 2,0c0,4.62 0,9.24 0,14c-0.66,0 -1.32,0 -2,0c0,2.64 0,5.28 0,8c-0.66,0 -1.32,0 -2,0c0,2.97 0,5.94 0,9c-0.66,0 -1.32,0 -2,0c0,1.98 0,3.96 0,6c-0.66,0 -1.32,0 -2,0c0,1.32 0,2.64 0,4c-0.66,0 -1.32,0 -2,0c0,0.66 0,1.32 0,2c-1.65,0 -3.3,0 -5,0c0,0.66 0,1.32 0,2c-1.32,0 -2.64,0 -4,0c0,0.66 0,1.32 0,2c-0.66,0 -1.32,0 -2,0c0,-1.98 0,-3.96 0,-6c-0.66,0 -1.32,0 -2,0c0,-1.98 0,-3.96 0,-6c-0.66,0 -1.32,0 -2,0c0,-2.31 0,-4.62 0,-7c-0.66,0 -1.32,0 -2,0c0,-0.66 0,-1.32 0,-2c-1.32,0 -2.64,0 -4,0c0,-0.66 0,-1.32 0,-2c-1.98,0 -3.96,0 -6,0c0,-0.66 0,-1.32 0,-2c-1.32,0 -2.64,0 -4,0c0,-1.32 0,-2.64 0,-4c-0.99,0 -1.98,0 -3,0c0,-1.32 0,-2.64 0,-4c-0.66,0 -1.32,0 -2,0c0,-0.66 0,-1.32 0,-2c-1.32,0 -2.64,0 -4,0c0,-0.66 0,-1.32 0,-2c-2.64,0 -5.28,0 -8,0c0,-0.66 0,-1.32 0,-2c-0.66,0 -1.32,0 -2,0c0,-0.66 0,-1.32 0,-2c-0.66,0 -1.32,0 -2,0c0,-1.32 0,-2.64 0,-4c-0.66,0 -1.32,0 -2,0c0,-1.32 0,-2.64 0,-4c-0.66,0 -1.32,0 -2,0c0,-1.65 0,-3.3 0,-5c-0.66,0 -1.32,0 -2,0c0,-0.66 0,-1.32 0,-2c-0.66,0 -1.32,0 -2,0c0,-0.66 0,-1.32 0,-2c-2.31,0 -4.62,0 -7,0c0,0.66 0,1.32 0,2c-1.32,0 -2.64,0 -4,0c0,0.66 0,1.32 0,2c-0.66,0 -1.32,0 -2,0c0,1.32 0,2.64 0,4c-0.66,0 -1.32,0 -2,0c0,2.97 0,5.94 0,9c-0.66,0 -1.32,0 -2,0c0,1.32 0,2.64 0,4c-1.32,0 -2.64,0 -4,0c0,1.32 0,2.64 0,4c-0.66,0 -1.32,0 -2,0c0,0.66 0,1.32 0,2c-0.66,0 -1.32,0 -2,0c0,1.98 0,3.96 0,6c-0.66,0 -1.32,0 -2,0c0,2.97 0,5.94 0,9c-0.66,0 -1.32,0 -2,0c0,0.99 0,1.98 0,3c-0.66,0 -1.32,0 -2,0c0,-3.96 0,-7.92 0,-12c-0.66,0 -1.32,0 -2,0c0,-1.32 0,-2.64 0,-4c-0.66,0 -1.32,0 -2,0c0,-1.98 0,-3.96 0,-6c-0.99,0 -1.98,0 -3,0c0,-17.16 0,-34.32 0,-52z" fill="#38A807" id="svg_6" transform="translate(0,37)"/>
  <path d="m0,0c3.3,0 6.6,0 10,0c0,0.66 0,1.32 0,2c0.66,0 1.32,0 2,0c0,0.99 0,1.98 0,3c0.66,0 1.32,0 2,0c0,1.32 0,2.64 0,4c0.66,0 1.32,0 2,0c0,3.3 0,6.6 0,10c0.66,0 1.32,0 2,0c0,2.64 0,5.28 0,8c0.66,0 1.32,0 2,0c0.99,4.95 0.99,4.95 2,10c0.99,0 1.98,0 3,0c0,1.32 0,2.64 0,4c0.66,0 1.32,0 2,0c0,4.29 0,8.58 0,13c-0.66,0 -1.32,0 -2,0c0,1.98 0,3.96 0,6c-0.99,0 -1.98,0 -3,0c0,0.66 0,1.32 0,2c-0.66,0 -1.32,0 -2,0c0,2.64 0,5.28 0,8c-0.66,0 -1.32,0 -2,0c0,2.97 0,5.94 0,9c-0.66,0 -1.32,0 -2,0c0,0.66 0,1.32 0,2c-1.32,0 -2.64,0 -4,0c0,0.66 0,1.32 0,2c-0.66,0 -1.32,0 -2,0c0,1.32 0,2.64 0,4c-0.66,0 -1.32,0 -2,0c0,0.66 0,1.32 0,2c-2.64,0 -5.28,0 -8,0c0,0.66 0,1.32 0,2c-1.32,0 -2.64,0 -4,0c0,0.66 0,1.32 0,2c-3.63,0 -7.26,0 -11,0c0,0.66 0,1.32 0,2c-1.32,0 -2.64,0 -4,0c0,0.66 0,1.32 0,2c-1.32,0 -2.64,0 -4,0c0,0.66 0,1.32 0,2c-1.98,0 -3.96,0 -6,0c0,-1.32 0,-2.64 0,-4c0.66,0 1.32,0 2,0c0,-5.28 0,-10.56 0,-16c-0.66,0 -1.32,0 -2,0c0,-1.32 0,-2.64 0,-4c-0.66,0 -1.32,0 -2,0c0,-0.66 0,-1.32 0,-2c-1.32,0 -2.64,0 -4,0c0,-0.66 0,-1.32 0,-2c-1.65,0 -3.3,0 -5,0c0,-1.32 0,-2.64 0,-4c-1.98,-0.5 -1.98,-0.5 -4,-1c0,-0.66 0,-1.32 0,-2c-0.66,0 -1.32,0 -2,0c0,-0.66 0,-1.32 0,-2c-1.98,0 -3.96,0 -6,0c0,-0.66 0,-1.32 0,-2c-1.32,0 -2.64,0 -4,0c0,-0.66 0,-1.32 0,-2c-1.98,0 -3.96,0 -6,0c0,-0.66 0,-1.32 0,-2c-4.29,0 -8.58,0 -13,0c0,0.66 0,1.32 0,2c-1.32,0 -2.64,0 -4,0c0,0.66 0,1.32 0,2c-0.66,0 -1.32,0 -2,0c0,0.66 0,1.32 0,2c-0.66,0 -1.32,0 -2,0c0,2.64 0,5.28 0,8c-0.66,0 -1.32,0 -2,0c0,2.31 0,4.62 0,7c-0.66,0 -1.32,0 -2,0c0,1.32 0,2.64 0,4c-1.32,0 -2.64,0 -4,0c0,1.32 0,2.64 0,4c-0.66,0 -1.32,0 -2,0c0,3.96 0,7.92 0,12c0.66,0 1.32,0 2,0c0,0.66 0,1.32 0,2c0.66,0 1.32,0 2,0c0,0.66 0,1.32 0,2c0.66,0 1.32,0 2,0c0,1.65 0,3.3 0,5c0.66,0 1.32,0 2,0c0,1.32 0,2.64 0,4c0.66,0 1.32,0 2,0c0,0.66 0,1.32 0,2c0.66,0 1.32,0 2,0c0,0.66 0,1.32 0,2c0.66,0 1.32,0 2,0c0,0.66 0,1.32 0,2c2.31,0 4.62,0 7,0c0,0.66 0,1.32 0,2c0.66,0 1.32,0 2,0c0,0.66 0,1.32 0,2c1.98,0 3.96,0 6,0c0,0.66 0,1.32 0,2c1.98,0 3.96,0 6,0c0,0.66 0,1.32 0,2c0.66,0 1.32,0 2,0c0,8.25 0,16.5 0,25c-5.28,0 -10.56,0 -16,0c0,-0.66 0,-1.32 0,-2c-3.63,0 -7.26,0 -11,0c0,-0.66 0,-1.32 0,-2c-2.64,0 -5.28,0 -8,0c0,-0.66 0,-1.32 0,-2c-1.32,0 -2.64,0 -4,0c0,-0.66 0,-1.32 0,-2c-1.32,0 -2.64,0 -4,0c0,-0.66 0,-1.32 0,-2c-1.32,0 -2.64,0 -4,0c-1.73,-1 -1.73,-1 -3,-3c-0.28,-2.76 -0.38,-5.29 -0.34,-8.05c0,-0.82 0,-1.64 0,-2.49c0,-2.71 0.02,-5.42 0.05,-8.13c0,-1.88 0.01,-3.76 0.01,-5.64c0.01,-4.94 0.04,-9.89 0.07,-14.84c0.03,-5.04 0.05,-10.09 0.06,-15.14c0.04,-9.9 0.09,-19.81 0.15,-29.71c0.99,0 1.98,0 3,0c0,1.98 0,3.96 0,6c0.66,0 1.32,0 2,0c0,1.32 0,2.64 0,4c0.66,0 1.32,0 2,0c0,3.96 0,7.92 0,12c0.66,0 1.32,0 2,0c0,-0.99 0,-1.98 0,-3c0.66,0 1.32,0 2,0c0,-2.97 0,-5.94 0,-9c0.66,0 1.32,0 2,0c0,-1.98 0,-3.96 0,-6c0.66,0 1.32,0 2,0c0,-0.66 0,-1.32 0,-2c0.66,0 1.32,0 2,0c0,-1.32 0,-2.64 0,-4c1.32,0 2.64,0 4,0c0,-1.32 0,-2.64 0,-4c0.66,0 1.32,0 2,0c0,-2.97 0,-5.94 0,-9c0.66,0 1.32,0 2,0c0,-1.32 0,-2.64 0,-4c0.66,0 1.32,0 2,0c0,-0.66 0,-1.32 0,-2c1.32,0 2.64,0 4,0c0,-0.66 0,-1.32 0,-2c2.31,0 4.62,0 7,0c0,0.66 0,1.32 0,2c0.66,0 1.32,0 2,0c0,0.66 0,1.32 0,2c0.66,0 1.32,0 2,0c0,1.65 0,3.3 0,5c0.66,0 1.32,0 2,0c0,1.32 0,2.64 0,4c0.66,0 1.32,0 2,0c0,1.32 0,2.64 0,4c0.66,0 1.32,0 2,0c0,0.66 0,1.32 0,2c0.66,0 1.32,0 2,0c0,0.66 0,1.32 0,2c2.64,0 5.28,0 8,0c0,0.66 0,1.32 0,2c1.32,0 2.64,0 4,0c0,0.66 0,1.32 0,2c0.66,0 1.32,0 2,0c0,1.32 0,2.64 0,4c0.99,0 1.98,0 3,0c0,1.32 0,2.64 0,4c1.32,0 2.64,0 4,0c0,0.66 0,1.32 0,2c1.98,0 3.96,0 6,0c0,0.66 0,1.32 0,2c1.32,0 2.64,0 4,0c0,0.66 0,1.32 0,2c0.66,0 1.32,0 2,0c0,2.31 0,4.62 0,7c0.66,0 1.32,0 2,0c0,1.98 0,3.96 0,6c0.66,0 1.32,0 2,0c0,1.98 0,3.96 0,6c0.66,0 1.32,0 2,0c0,-0.66 0,-1.32 0,-2c1.32,0 2.64,0 4,0c0,-0.66 0,-1.32 0,-2c1.65,0 3.3,0 5,0c0,-0.66 0,-1.32 0,-2c0.66,0 1.32,0 2,0c0,-1.32 0,-2.64 0,-4c0.66,0 1.32,0 2,0c0,-1.98 0,-3.96 0,-6c0.66,0 1.32,0 2,0c0,-2.97 0,-5.94 0,-9c0.66,0 1.32,0 2,0c0,-2.64 0,-5.28 0,-8c0.66,0 1.32,0 2,0c0,-4.62 0,-9.24 0,-14c-0.66,0 -1.32,0 -2,0c0,-2.31 0,-4.62 0,-7c-0.66,0 -1.32,0 -2,0c0,-1.32 0,-2.64 0,-4c0.66,0 1.32,0 2,0c0,-2.64 0,-5.28 0,-8c0.66,0 1.32,0 2,0c0,-4.62 0,-9.24 0,-14c-0.66,0 -1.32,0 -2,0c0,-2.31 0,-4.62 0,-7z" fill="#50C708" id="svg_8" transform="translate(106,37)"/>
  <path d="m0,0c0.99,0.33 1.98,0.66 3,1c0,0.66 0,1.32 0,2c1.32,0 2.64,0 4,0c0,0.66 0,1.32 0,2c1.32,0 2.64,0 4,0c0,0.66 0,1.32 0,2c1.32,0 2.64,0 4,0c0,0.66 0,1.32 0,2c2.64,0 5.28,0 8,0c0,0.66 0,1.32 0,2c3.63,0 7.26,0 11,0c0,0.66 0,1.32 0,2c5.28,0 10.56,0 16,0c0,10.89 0,21.78 0,33c10.89,0 21.78,0 33,0c0,11.55 0,23.1 0,35c0.66,0 1.32,0 2,0c0,0.66 0,1.32 0,2c-0.66,0 -1.32,0 -2,0c0,7.59 0,15.18 0,23c-6,1 -6,1 -9,0c0,-0.66 0,-1.32 0,-2c-1.32,0 -2.64,0 -4,0c0,-1.98 0,-3.96 0,-6c-0.66,0 -1.32,0 -2,0c-0.03,-1.73 -0.05,-3.46 -0.06,-5.19c-0.01,-0.96 -0.03,-1.92 -0.04,-2.92c0.1,-2.89 0.1,-2.89 0.79,-5.57c0.15,-1.15 0.15,-1.15 0.31,-2.32c-0.47,-0.46 -0.94,-0.92 -1.43,-1.39c-1.57,-1.61 -1.57,-1.61 -1.86,-4.75c0.03,-1.17 0.07,-2.34 0.1,-3.55c0.04,-1.77 0.04,-1.77 0.08,-3.57c0.04,-0.91 0.07,-1.81 0.11,-2.74c0.66,0 1.32,0 2,0c0,-0.66 0,-1.32 0,-2c1.32,0 2.64,0 4,0c0,-0.66 0,-1.32 0,-2c1.32,0 2.64,0 4,0c0,-0.99 0,-1.98 0,-3c-0.66,0 -1.32,0 -2,0c0,-0.66 0,-1.32 0,-2c-1.32,0 -2.64,0 -4,0c0,-0.66 0,-1.32 0,-2c-1.98,0 -3.96,0 -6,0c0,-0.66 0,-1.32 0,-2c-4.29,0 -8.58,0 -13,0c0,0.66 0,1.32 0,2c-5.78,2.01 -10.9,2.22 -17,2c0,0.66 0,1.32 0,2c-1.32,0 -2.64,0 -4,0c0,0.66 0,1.32 0,2c-1.32,0 -2.64,0 -4,0c0,0.66 0,1.32 0,2c-3.3,0 -6.6,0 -10,0c0,0.66 0,1.32 0,2c-4.46,0.99 -4.46,0.99 -9,2c0,0.66 0,1.32 0,2c-0.66,0 -1.32,0 -2,0c0,0.66 0,1.32 0,2c-0.66,0 -1.32,0 -2,0c0,0.66 0,1.32 0,2c-0.99,0 -1.98,0 -3,0c0,-24.09 0,-48.18 0,-73z" fill="#38A708" id="svg_9" transform="translate(0,173)"/>
  <path d="m0,0c4.29,0 8.58,0 13,0c0,0.66 0,1.32 0,2c1.98,0 3.96,0 6,0c0,0.66 0,1.32 0,2c1.32,0 2.64,0 4,0c0,0.66 0,1.32 0,2c1.98,0 3.96,0 6,0c0,0.66 0,1.32 0,2c0.66,0 1.32,0 2,0c0.5,0.99 0.5,0.99 1,2c0.99,0.33 1.98,0.66 3,1c0,1.32 0,2.64 0,4c1.65,0 3.3,0 5,0c0,0.66 0,1.32 0,2c1.32,0 2.64,0 4,0c0,0.66 0,1.32 0,2c0.66,0 1.32,0 2,0c0,1.32 0,2.64 0,4c0.66,0 1.32,0 2,0c0,5.28 0,10.56 0,16c-0.66,0 -1.32,0 -2,0c0,1.32 0,2.64 0,4c1.98,0 3.96,0 6,0c0,-0.66 0,-1.32 0,-2c1.65,0 3.3,0 5,0c-0.33,1.32 -0.66,2.64 -1,4c-0.66,0 -1.32,0 -2,0c0,0.99 0,1.98 0,3c-0.66,0 -1.32,0 -2,0c0,2.64 0,5.28 0,8c0.66,0 1.32,0 2,0c0,0.66 0,1.32 0,2c-0.66,0 -1.32,0 -2,0c0,16.83 0,33.66 0,51c-5.28,0 -10.56,0 -16,0c0,-21.78 0,-43.56 0,-66c0.66,0 1.32,0 2,0c0,-0.66 0,-1.32 0,-2c0.66,0 1.32,0 2,0c0,-0.66 0,-1.32 0,-2c0.66,0 1.32,0 2,0c0,-3.96 0,-7.92 0,-12c-0.66,0 -1.32,0 -2,0c0,-0.66 0,-1.32 0,-2c-0.66,0 -1.32,0 -2,0c0,-1.32 0,-2.64 0,-4c-0.99,0 -1.98,0 -3,0c0,-0.66 0,-1.32 0,-2c-1.98,0 -3.96,0 -6,0c0,-0.66 0,-1.32 0,-2c-4.62,0 -9.24,0 -14,0c0,0.66 0,1.32 0,2c-1.32,0 -2.64,0 -4,0c0,0.66 0,1.32 0,2c-0.66,0 -1.32,0 -2,0c0,1.32 0,2.64 0,4c-0.66,0 -1.32,0 -2,0c0,3.3 0,6.6 0,10c0.66,0 1.32,0 2,0c0,1.32 0,2.64 0,4c0.66,0 1.32,0 2,0c0,2.31 0,4.62 0,7c0.66,0 1.32,0 2,0c0,0.66 0,1.32 0,2c1.32,0 2.64,0 4,0c0,0.66 0,1.32 0,2c0.66,0 1.32,0 2,0c0,5.94 0,11.88 0,18c-0.66,0 -1.32,0 -2,0c0,-0.66 0,-1.32 0,-2c-1.98,0 -3.96,0 -6,0c0,-0.66 0,-1.32 0,-2c-1.98,0 -3.96,0 -6,0c0,-0.66 0,-1.32 0,-2c-0.66,0 -1.32,0 -2,0c0,-0.66 0,-1.32 0,-2c-2.31,0 -4.62,0 -7,0c0,-0.66 0,-1.32 0,-2c-0.66,0 -1.32,0 -2,0c0,-0.66 0,-1.32 0,-2c-0.66,0 -1.32,0 -2,0c0,-0.66 0,-1.32 0,-2c-0.66,0 -1.32,0 -2,0c0,-1.32 0,-2.64 0,-4c-0.66,0 -1.32,0 -2,0c0,-1.65 0,-3.3 0,-5c-0.66,0 -1.32,0 -2,0c0,-0.66 0,-1.32 0,-2c-0.66,0 -1.32,0 -2,0c0,-0.66 0,-1.32 0,-2c-0.66,0 -1.32,0 -2,0c0,-3.96 0,-7.92 0,-12c0.66,0 1.32,0 2,0c0,-1.32 0,-2.64 0,-4c1.32,0 2.64,0 4,0c0,-1.32 0,-2.64 0,-4c0.66,0 1.32,0 2,0c0,-2.31 0,-4.62 0,-7c0.66,0 1.32,0 2,0c0,-2.64 0,-5.28 0,-8c0.66,0 1.32,0 2,0c0,-0.66 0,-1.32 0,-2c0.66,0 1.32,0 2,0c0,-0.66 0,-1.32 0,-2c1.32,0 2.64,0 4,0c0,-0.66 0,-1.32 0,-2z" fill="#70DF1F" id="svg_11" transform="translate(31,93)"/>
  <path d="m0,0c0.99,0 1.98,0 3,0c0,0.66 0,1.32 0,2c4.62,0 9.24,0 14,0c0,0.66 0,1.32 0,2c1.98,0 3.96,0 6,0c0,0.66 0,1.32 0,2c0.74,0.08 1.48,0.17 2.25,0.25c3.9,1.06 5.75,3.14 7.86,6.53c1.12,2.78 1.09,4.98 1.02,7.97c-0.02,0.98 -0.04,1.97 -0.06,2.98c-0.02,0.75 -0.05,1.5 -0.07,2.27c-0.66,0 -1.32,0 -2,0c-0.14,0.62 -0.29,1.24 -0.44,1.88c-0.56,2.12 -0.56,2.12 -1.56,4.12c-0.66,0 -1.32,0 -2,0c-0.19,1.48 -0.38,2.96 -0.56,4.44c-0.11,0.82 -0.21,1.64 -0.32,2.49c-0.04,0.69 -0.08,1.37 -0.12,2.07c0.33,0.33 0.66,0.66 1,1c0.15,2.29 0.22,4.58 0.25,6.88c0.03,1.25 0.05,2.51 0.08,3.8c-0.33,3.32 -0.33,3.32 -1.77,5.07c-0.52,0.41 -1.03,0.82 -1.56,1.25c-1.2,3.1 -1.2,3.1 -2,6c-0.66,0 -1.32,0 -2,0c0,3.63 0,7.26 0,11c0.66,0 1.32,0 2,0c0.29,0.75 0.58,1.5 0.88,2.27c2.45,6.38 2.45,6.38 7.43,10.73c0.89,0.66 1.78,1.32 2.69,2c0.53,3.71 0.35,7.28 0,11c-0.66,0 -1.32,0 -2,0c0,0.66 0,1.32 0,2c-4.45,0.99 -4.45,0.99 -9,2c0,0.66 0,1.32 0,2c-0.66,0 -1.32,0 -2,0c0,0.66 0,1.32 0,2c-0.66,0 -1.32,0 -2,0c-0.79,3.52 -1.15,6.82 -1.21,10.43c-0.02,1.06 -0.04,2.12 -0.06,3.22c-0.01,1.13 -0.03,2.26 -0.05,3.43c-0.03,1.76 -0.03,1.76 -0.06,3.55c-0.06,3.72 -0.12,7.45 -0.18,11.18c-0.05,2.53 -0.09,5.06 -0.13,7.59c-0.11,6.2 -0.21,12.4 -0.31,18.6c-2.64,0 -5.28,0 -8,0c0,0.66 0,1.32 0,2c-0.66,0 -1.32,0 -2,0c0,1.98 0,3.96 0,6c-0.66,0 -1.32,0 -2,0c0,1.32 0,2.64 0,4c-4.62,2.22 -7.77,3.38 -13,3c0,0.66 0,1.32 0,2c-1.98,0 -3.96,0 -6,0c0,0.66 0,1.32 0,2c-0.66,0 -1.32,0 -2,0c0,0.66 0,1.32 0,2c-2.81,0.03 -5.62,0.05 -8.44,0.06c-0.8,0.01 -1.6,0.02 -2.43,0.03c-2.04,0.01 -4.09,-0.04 -6.13,-0.09c-0.33,-0.33 -0.66,-0.66 -1,-1c-2.18,-0.23 -4.37,-0.41 -6.56,-0.56c-1.2,-0.09 -2.4,-0.17 -3.63,-0.26c-0.93,-0.06 -1.86,-0.12 -2.81,-0.18c0,0.66 0,1.32 0,2c-1.32,0 -2.64,0 -4,0c0,0.66 0,1.32 0,2c-1.32,0 -2.64,0 -4,0c0,0.66 0,1.32 0,2c-3.3,0 -6.6,0 -10,0c0,0.66 0,1.32 0,2c-4.79,1.63 -8.06,2.21 -13,1c0,0.66 0,1.32 0,2c-0.66,0 -1.32,0 -2,0c0,0.66 0,1.32 0,2c-0.66,0 -1.32,0 -2,0c0,-4.62 0,-9.24 0,-14c0.66,0 1.32,0 2,0c0,-0.66 0,-1.32 0,-2c15.51,0 31.02,0 47,0c0,-5.61 0,-11.22 0,-17c12.87,0 25.74,0 39,0c0,-2.64 0,-5.28 0,-8c-0.66,0 -1.32,0 -2,0c0,-3.3 0,-6.6 0,-10c-0.66,0 -1.32,0 -2,0c0,-3.63 0,-7.26 0,-11c0.66,0 1.32,0 2,0c0,-2.64 0,-5.28 0,-8c0.66,0 1.32,0 2,0c0,-1.98 0,-3.96 0,-6c0.66,0 1.32,0 2,0c0,-0.66 0,-1.32 0,-2c0.66,0 1.32,0 2,0c0,-0.66 0,-1.32 0,-2c0.66,0 1.32,0 2,0c0,-1.32 0,-2.64 0,-4c0.66,0 1.32,0 2,0c0,-0.66 0,-1.32 0,-2c0.99,0 1.98,0 3,0c0,-8.91 0,-17.82 0,-27c0.66,0 1.32,0 2,0c0,-3.96 0,-7.92 0,-12c-0.66,0 -1.32,0 -2,0c0,-8.25 0,-16.5 0,-25c0.66,0 1.32,0 2,0c0,-1.98 0,-3.96 0,-6c0.66,0 1.32,0 2,0c0,-4.29 0,-8.58 0,-13c0.66,0 1.32,0 2,0c0,-1.98 0,-3.96 0,-6c0.66,0 1.32,0 2,0c0,-2.64 0,-5.28 0,-8c-0.66,0 -1.32,0 -2,0c0,-1.32 0,-2.64 0,-4c-0.66,0 -1.32,0 -2,0c0,-0.66 0,-1.32 0,-2c-0.99,0 -1.98,0 -3,0c0,-0.66 0,-1.32 0,-2c-1.32,0 -2.64,0 -4,0c0,-0.99 0,-1.98 0,-3c-1.98,0 -3.96,0 -6,0c0,-0.66 0,-1.32 0,-2c-0.95,0.02 -1.9,0.04 -2.87,0.06c-3.13,-0.06 -3.13,-0.06 -5.13,-1.06c0,-0.99 0,-1.98 0,-3z" fill="#25861E" id="svg_14" transform="translate(314,101)"/>
  <path d="m0,0c2.97,0 5.94,0 9,0c0,2.97 0,5.94 0,9c-0.66,0 -1.32,0 -2,0c0.12,1.79 0.12,1.79 0.25,3.63c0.01,4.52 -1.54,6.74 -4.25,10.37c-1.11,2.3 -2.05,4.63 -3,7c-0.66,0 -1.32,0 -2,0c0,2.31 0,4.62 0,7c0.66,0 1.32,0 2,0c0,0.66 0,1.32 0,2c4.31,0.94 8.62,1.48 13,2c0,0.66 0,1.32 0,2c2.64,0 5.28,0 8,0c0,0.66 0,1.32 0,2c1.98,0 3.96,0 6,0c0,0.66 0,1.32 0,2c0.66,0 1.32,0 2,0c0,0.66 0,1.32 0,2c0.66,0 1.32,0 2,0c0.03,0.84 0.05,1.69 0.08,2.55c0.05,1.1 0.11,2.2 0.17,3.33c0.05,1.09 0.09,2.18 0.14,3.3c0.3,2.9 0.3,2.9 2.42,4.16c3.03,0.91 6.06,1.3 9.19,1.66c0,0.99 0,1.98 0,3c2.64,0.33 5.28,0.66 8,1c0,0.66 0,1.32 0,2c1.98,0 3.96,0 6,0c0,0.99 0,1.98 0,3c1.32,0 2.64,0 4,0c0,0.66 0,1.32 0,2c0.99,0 1.98,0 3,0c0,0.66 0,1.32 0,2c0.66,0 1.32,0 2,0c0,1.32 0,2.64 0,4c0.66,0 1.32,0 2,0c0,2.64 0,5.28 0,8c-0.66,0 -1.32,0 -2,0c0,1.98 0,3.96 0,6c-0.66,0 -1.32,0 -2,0c0,4.29 0,8.58 0,13c-0.66,0 -1.32,0 -2,0c0,1.98 0,3.96 0,6c-0.66,0 -1.32,0 -2,0c0,7.59 0,15.18 0,23c-1.65,-1.65 -3.3,-3.3 -5,-5c0.99,0.33 1.98,0.66 3,1c0.33,-16.5 0.66,-33 1,-50c-21.78,0 -43.56,0 -66,0c0,-5.61 0,-11.22 0,-17c10.89,0 21.78,0 33,0c0,-5.28 0,-10.56 0,-16c-16.17,0 -32.34,0 -49,0c0,-0.66 0,-1.32 0,-2c0.66,0 1.32,0 2,0c0,-0.66 0,-1.32 0,-2c0.66,0 1.32,0 2,0c0,-1.32 0,-2.64 0,-4c0.66,0 1.32,0 2,0c0,-4.95 0,-9.9 0,-15c0.66,0 1.32,0 2,0c0,-1.98 0,-3.96 0,-6c0.66,0 1.32,0 2,0c0,-0.66 0,-1.32 0,-2c0.66,0 1.32,0 2,0c0,-0.66 0,-1.32 0,-2c1.65,0 3.3,0 5,0c0,-1.32 0,-2.64 0,-4c0.66,0 1.32,0 2,0c0,-1.32 0,-2.64 0,-4c0.66,0 1.32,0 2,0c0,-1.98 0,-3.96 0,-6c0.66,0 1.32,0 2,0c0,-0.99 0,-1.98 0,-3z" fill="#1F8312" id="svg_15" transform="translate(271,37)"/>
  <path d="m0,0c1.32,0 2.64,0 4,0c0,0.66 0,1.32 0,2c-0.66,0 -1.32,0 -2,0c0,2.64 0,5.28 0,8c0.66,0 1.32,0 2,0c0,0.66 0,1.32 0,2c-0.66,0 -1.32,0 -2,0c0,0.66 0,1.32 0,2c21.78,0 43.56,0 66,0c0,5.61 0,11.22 0,17c-16.5,0 -33,0 -50,0c0,5.28 0,10.56 0,16c-14.85,0 -29.7,0 -45,0c0,0.66 0,1.32 0,2c-0.66,0 -1.32,0 -2,0c0,-0.66 0,-1.32 0,-2c-0.66,0 -1.32,0 -2,0c0,-1.32 0,-2.64 0,-4c0.66,0 1.32,0 2,0c0,-1.32 0,-2.64 0,-4c0.66,0 1.32,0 2,0c0,-1.32 0,-2.64 0,-4c0.66,0 1.32,0 2,0c0,-0.99 0,-1.98 0,-3c0.66,0 1.32,0 2,0c0,-0.66 0,-1.32 0,-2c1.98,0 3.96,0 6,0c0,-0.66 0,-1.32 0,-2c1.32,0 2.64,0 4,0c0,-0.66 0,-1.32 0,-2c1.32,0 2.64,0 4,0c0,-0.66 0,-1.32 0,-2c0.66,0 1.32,0 2,0c0,-0.66 0,-1.32 0,-2c0.66,0 1.32,0 2,0c-0.02,-1.11 -0.05,-2.22 -0.07,-3.36c-0.02,-1.46 -0.04,-2.93 -0.06,-4.39c-0.02,-1.09 -0.02,-1.09 -0.05,-2.21c-0.03,-3.84 0.01,-6.79 2.18,-10.04c0.99,0 1.98,0 3,0c0,-0.66 0,-1.32 0,-2z" fill="#38A708" id="svg_17" transform="translate(246,221)"/>
  <path d="m0,0c0.66,0 1.32,0 2,0c0,1.98 0,3.96 0,6c10.89,0 21.78,0 33,0c0,11.55 0,23.1 0,35c0.66,0 1.32,0 2,0c0,0.66 0,1.32 0,2c-0.66,0 -1.32,0 -2,0c0,7.59 0,15.18 0,23c-6,1 -6,1 -9,0c0,-0.66 0,-1.32 0,-2c-1.32,0 -2.64,0 -4,0c0,-1.98 0,-3.96 0,-6c-0.66,0 -1.32,0 -2,0c-0.03,-1.73 -0.05,-3.46 -0.06,-5.19c-0.01,-0.96 -0.03,-1.92 -0.04,-2.92c0.1,-2.89 0.1,-2.89 0.79,-5.57c0.1,-0.76 0.21,-1.53 0.31,-2.32c-0.47,-0.46 -0.94,-0.92 -1.43,-1.39c-1.57,-1.61 -1.57,-1.61 -1.86,-4.75c0.03,-1.17 0.07,-2.34 0.1,-3.55c0.04,-1.77 0.04,-1.77 0.08,-3.57c0.04,-0.91 0.07,-1.81 0.11,-2.74c0.66,0 1.32,0 2,0c0,-0.66 0,-1.32 0,-2c1.32,0 2.64,0 4,0c0,-0.66 0,-1.32 0,-2c1.32,0 2.64,0 4,0c0,-0.99 0,-1.98 0,-3c-0.66,0 -1.32,0 -2,0c0,-0.66 0,-1.32 0,-2c-1.32,0 -2.64,0 -4,0c0,-0.66 0,-1.32 0,-2c-1.98,0 -3.96,0 -6,0c0,-0.66 0,-1.32 0,-2c-4.29,0 -8.58,0 -13,0c0,0.66 0,1.32 0,2c-5.78,2.01 -10.9,2.22 -17,2c0,0.66 0,1.32 0,2c-1.32,0 -2.64,0 -4,0c0,0.66 0,1.32 0,2c-1.32,0 -2.64,0 -4,0c0,0.66 0,1.32 0,2c-3.3,0 -6.6,0 -10,0c0,0.66 0,1.32 0,2c-2.97,0.66 -5.94,1.32 -9,2c0,0.66 0,1.32 0,2c-0.66,0 -1.32,0 -2,0c0,0.66 0,1.32 0,2c-0.66,0 -1.32,0 -2,0c0,0.66 0,1.32 0,2c-0.99,0 -1.98,0 -3,0c0,-6.93 0,-13.86 0,-21c2.31,0 4.62,0 7,0c0,-0.66 0,-1.32 0,-2c3.96,0 7.92,0 12,0c0,-0.66 0,-1.32 0,-2c1.32,0 2.64,0 4,0c0,-0.66 0,-1.32 0,-2c3.63,0 7.26,0 11,0c0,-0.66 0,-1.32 0,-2c2.64,0 5.28,0 8,0c0,-0.66 0,-1.32 0,-2c1.98,0 3.96,0 6,0c0,-0.66 0,-1.32 0,-2z" fill="#1D8210" id="svg_19" transform="translate(48,213)"/>
  <path d="m266.25,136c15.84,0 31.68,0 48,0c0,10.89 0,21.78 0,33c-16.5,0 -33,0 -50,0c0,-10.23 0,-20.46 0,-31c0.66,0 1.32,0 2,0c0,-0.66 0,-1.32 0,-2z" fill="#38A708" id="svg_20"/>
  <path d="m0,0c16.17,0 32.34,0 49,0c0,10.89 0,21.78 0,33c-16.17,0 -32.34,0 -49,0c0,-10.89 0,-21.78 0,-33z" fill="#188007" id="svg_21" transform="translate(265,186)"/>
  <path d="m149,186.18c32.67,0 65.34,0 99,0c0,4.62 0,9.24 0,14c-2.31,0.33 -4.62,0.66 -7,1c0,-0.66 0,-1.32 0,-2c-1.98,0 -3.96,0 -6,0c0,-0.66 0,-1.32 0,-2c-1.32,0 -2.64,0 -4,0c0,-0.66 0,-1.32 0,-2c-0.66,0 -1.32,0 -2,0c0,-0.66 0,-1.32 0,-2c-6.93,0 -13.86,0 -21,0c0,0.99 0,1.98 0,3c0.66,0 1.32,0 2,0c0,0.66 0,1.32 0,2c0.66,0 1.32,0 2,0c0,0.66 0,1.32 0,2c0.66,0 1.32,0 2,0c0,0.66 0,1.32 0,2c0.66,0 1.32,0 2,0c0,2.97 0,5.94 0,9c-1.83,0.19 -1.83,0.19 -3.69,0.38c-3.37,0.41 -6.21,1.17 -9.31,2.62c0,1.98 0,3.96 0,6c-3.63,0 -7.26,0 -11,0c0,-0.66 0,-1.32 0,-2c-1.32,-0.33 -2.64,-0.66 -4,-1c-0.11,-0.69 -0.22,-1.37 -0.33,-2.08c-0.16,-0.9 -0.32,-1.8 -0.48,-2.73c-0.15,-0.9 -0.3,-1.79 -0.46,-2.71c-0.79,-2.7 -1.53,-3.77 -3.73,-5.48c-2.1,-0.71 -2.1,-0.71 -4,-1c0,-0.66 0,-1.32 0,-2c-1.32,0 -2.64,0 -4,0c0,-0.66 0,-1.32 0,-2c-1.98,0 -3.96,0 -6,0c0,-0.66 0,-1.32 0,-2c-1.32,0 -2.64,0 -4,0c0,-0.66 0,-1.32 0,-2c-0.66,0 -1.32,0 -2,0c0,-0.66 0,-1.32 0,-2c-0.84,0.01 -1.69,0.02 -2.55,0.04c-1.1,0 -2.2,0.01 -3.32,0.02c-1.1,0.01 -2.19,0.03 -3.31,0.04c-2.82,-0.1 -2.82,-0.1 -4.82,-1.1c0,-1.98 0,-3.96 0,-6z" fill="#238419" id="svg_22"/>
  <path d="m211,136c12.21,0 24.42,0 37,0c0,10.89 0,21.78 0,33c-11.55,0 -23.1,0 -35,0c0,0.66 0,1.32 0,2c-0.66,0 -1.32,0 -2,0c0,-0.66 0,-1.32 0,-2c-3.96,0 -7.92,0 -12,0c0.99,-0.49 0.99,-0.49 2,-1c0,-0.99 0,-1.98 0,-3c0.66,0 1.32,0 2,0c0,-1.32 0,-2.64 0,-4c0.66,0 1.32,0 2,0c0,-4.62 0,-9.24 0,-14c0.66,0 1.32,0 2,0c0,-1.98 0,-3.96 0,-6c0.66,0 1.32,0 2,0c0,-0.99 0,-1.98 0,-3c0.66,0 1.32,0 2,0c0,-0.66 0,-1.32 0,-2z" fill="#1A8008" id="svg_24"/>
  <path d="m0,0c0.99,0 1.98,0 3,0c0,3.96 0,7.92 0,12c0.66,0 1.32,0 2,0c0,4.95 0,9.9 0,15c1.32,0.33 2.64,0.66 4,1c0,1.65 0,3.3 0,5c0.66,0 1.32,0 2,0c0,1.32 0,2.64 0,4c0.66,0 1.32,0 2,0c0,1.32 0,2.64 0,4c0.66,0 1.32,0 2,0c0,0.66 0,1.32 0,2c0.66,0 1.32,0 2,0c0,1.32 0,2.64 0,4c0.66,0 1.32,0 2,0c0,0.66 0,1.32 0,2c0.66,0 1.32,0 2,0c0,0.66 0,1.32 0,2c1.98,0 3.96,0 6,0c0,0.66 0,1.32 0,2c2.97,0 5.94,0 9,0c0,0.66 0,1.32 0,2c0.66,0 1.32,0 2,0c0,0.66 0,1.32 0,2c1.98,0 3.96,0 6,0c0,0.66 0,1.32 0,2c1.98,0 3.96,0 6,0c0,5.61 0,11.22 0,17c-5.28,0 -10.56,0 -16,0c0,-0.66 0,-1.32 0,-2c-3.63,0 -7.26,0 -11,0c0,-0.66 0,-1.32 0,-2c-2.64,0 -5.28,0 -8,0c0,-0.66 0,-1.32 0,-2c-1.32,0 -2.64,0 -4,0c0,-0.66 0,-1.32 0,-2c-1.32,0 -2.64,0 -4,0c0,-0.66 0,-1.32 0,-2c-1.32,0 -2.64,0 -4,0c-1.73,-1.12 -1.73,-1.12 -3,-3c-0.36,-2.75 -0.36,-2.75 -0.34,-6.12c0,-1.26 0,-2.53 0,-3.83c0.02,-1.37 0.03,-2.75 0.05,-4.12c0,-1.41 0.01,-2.82 0.01,-4.23c0.01,-3.7 0.04,-7.41 0.07,-11.11c0.03,-3.78 0.05,-7.56 0.06,-11.34c0.04,-7.42 0.09,-14.83 0.15,-22.25z" fill="#6FDE1F" id="svg_25" transform="translate(0,110)"/>
  <path d="m165,136c15.18,0 30.36,0 46,0c0,0.33 0,0.66 0,1c-6.27,0 -12.54,0 -19,0c0,0.99 0,1.98 0,3c-0.66,0 -1.32,0 -2,0c0,1.65 0,3.3 0,5c-0.66,0 -1.32,0 -2,0c0,1.32 0,2.64 0,4c-0.66,0 -1.32,0 -2,0c0,0.66 0,1.32 0,2c-0.66,0 -1.32,0 -2,0c0,0.66 0,1.32 0,2c-0.66,0 -1.32,0 -2,0c0,0.66 0,1.32 0,2c-0.66,0 -1.32,0 -2,0c0,0.66 0,1.32 0,2c-1.98,0 -3.96,0 -6,0c0,0.66 0,1.32 0,2c-4.95,0 -9.9,0 -15,0c0,0.66 0,1.32 0,2c-3.96,0 -7.92,0 -12,0c0,0.66 0,1.32 0,2c-5.61,0 -11.22,0 -17,0c0,0.66 0,1.32 0,2c-1.98,0 -3.96,0 -6,0c0,0.66 0,1.32 0,2c-2.64,0 -5.28,0 -8,0c0,0.66 0,1.32 0,2c-1.98,0 -3.96,0 -6,0c0,1.65 0,3.3 0,5c-0.66,0 -1.32,0 -2,0c0,1.32 0,2.64 0,4c-0.66,0 -1.32,0 -2,0c0,1.32 0,2.64 0,4c-0.66,0 -1.32,0 -2,0c0,0.66 0,1.32 0,2c-0.66,0 -1.32,0 -2,0c0,0.66 0,1.32 0,2c-0.66,0 -1.32,0 -2,0c0,-10.89 0,-21.78 0,-33c21.45,0 42.9,0 65,0c0,-5.61 0,-11.22 0,-17z" fill="#50C708" id="svg_26" transform="matrix(1 0 0 1 0 0)"/>
  <path d="m281,268c12.87,0 25.74,0 39,0c0.49,4.46 0.49,4.46 1,9c-0.66,0 -1.32,0 -2,0c0,1.32 0,2.64 0,4c-4.62,2.22 -7.77,3.38 -13,3c0,0.66 0,1.32 0,2c-1.98,0 -3.96,0 -6,0c0,0.66 0,1.32 0,2c-0.66,0 -1.32,0 -2,0c0,0.66 0,1.32 0,2c-2.81,0.03 -5.62,0.05 -8.44,0.06c-0.8,0.01 -1.6,0.02 -2.43,0.03c-2.04,0.01 -4.09,-0.04 -6.13,-0.09c-0.33,-0.33 -0.66,-0.66 -1,-1c-2.18,-0.23 -4.37,-0.41 -6.56,-0.56c-1.2,-0.09 -2.4,-0.17 -3.63,-0.26c-1.39,-0.09 -1.39,-0.09 -2.81,-0.18c0,0.66 0,1.32 0,2c-1.32,0 -2.64,0 -4,0c0,0.66 0,1.32 0,2c-1.32,0 -2.64,0 -4,0c0,0.66 0,1.32 0,2c-3.3,0 -6.6,0 -10,0c0,0.66 0,1.32 0,2c-4.79,1.63 -8.06,2.21 -13,1c0,0.66 0,1.32 0,2c-0.66,0 -1.32,0 -2,0c0,0.66 0,1.32 0,2c-0.66,0 -1.32,0 -2,0c0,-4.62 0,-9.24 0,-14c0.66,0 1.32,0 2,0c0,-0.66 0,-1.32 0,-2c15.51,0 31.02,0 47,0c0,-5.61 0,-11.22 0,-17z" fill="#1C810E" id="svg_28" transform="matrix(1 0 0 1 0 0)"/>
  <path d="m0,0c3.3,0 6.6,0 10,0c0,2.97 0,5.94 0,9c-0.66,0 -1.32,0 -2,0c0,1.98 0,3.96 0,6c-0.66,0 -1.32,0 -2,0c0,1.32 0,2.64 0,4c-0.66,0 -1.32,0 -2,0c0,0.66 0,1.32 0,2c-0.66,0 -1.32,0 -2,0c0,0.66 0,1.32 0,2c-0.66,0 -1.32,0 -2,0c0,1.32 0,2.64 0,4c-0.66,0 -1.32,0 -2,0c0,1.65 0,3.3 0,5c-0.66,0 -1.32,0 -2,0c0,0.66 0,1.32 0,2c-1.32,0 -2.64,0 -4,0c0,1.98 0,3.96 0,6c-0.66,0 -1.32,0 -2,0c0,1.32 0,2.64 0,4c-0.99,0 -1.98,0 -3,0c0,3.3 0,6.6 0,10c-0.66,0 -1.32,0 -2,0c0,1.32 0,2.64 0,4c-0.66,0 -1.32,0 -2,0c0,1.32 0,2.64 0,4c-0.66,0 -1.32,0 -2,0c0,0.66 0,1.32 0,2c-0.66,0 -1.32,0 -2,0c0,0.66 0,1.32 0,2c-0.66,0 -1.32,0 -2,0c0,0.99 0,1.98 0,3c-0.66,0 -1.32,0 -2,0c0,1.32 0,2.64 0,4c-1.32,0 -2.64,0 -4,0c0,0.66 0,1.32 0,2c-1.32,0 -2.64,0 -4,0c0,0.66 0,1.32 0,2c-0.66,0 -1.32,0 -2,0c0,0.66 0,1.32 0,2c-0.66,0 -1.32,0 -2,0c0,1.32 0,2.64 0,4c-3.63,0 -7.26,0 -11,0c0,-1.98 0,-3.96 0,-6c0.66,0 1.32,0 2,0c0,-0.66 0,-1.32 0,-2c0.99,0 1.98,0 3,0c0,-0.66 0,-1.32 0,-2c1.32,0 2.64,0 4,0c0,-0.66 0,-1.32 0,-2c1.32,0 2.64,0 4,0c0,-0.66 0,-1.32 0,-2c0.66,0 1.32,0 2,0c0,-0.66 0,-1.32 0,-2c0.66,0 1.32,0 2,0c0,-2.31 0,-4.62 0,-7c0.66,0 1.32,0 2,0c0,-1.98 0,-3.96 0,-6c0.66,0 1.32,0 2,0c0,-3.96 0,-7.92 0,-12c0.66,0 1.32,0 2,0c0,-1.32 0,-2.64 0,-4c0.66,0 1.32,0 2,0c0,-1.65 0,-3.3 0,-5c0.66,0 1.32,0 2,0c0,-1.32 0,-2.64 0,-4c0.66,0 1.32,0 2,0c0,-1.32 0,-2.64 0,-4c0.66,0 1.32,0 2,0c0,-0.66 0,-1.32 0,-2c1.32,0 2.64,0 4,0c0,-0.66 0,-1.32 0,-2c1.32,0 2.64,0 4,0c0,-0.66 0,-1.32 0,-2c0.99,0 1.98,0 3,0c0,-0.66 0,-1.32 0,-2c0.66,0 1.32,0 2,0c0,-0.66 0,-1.32 0,-2c0.66,0 1.32,0 2,0c0,-1.98 0,-3.96 0,-6c0.66,0 1.32,0 2,0c0,-2.97 0,-5.94 0,-9z" fill="#4FC708" id="svg_29" transform="translate(238,37)"/>
  <path d="m0,0c13.2,0 26.4,0 40,0c0,0.66 0,1.32 0,2c-0.66,0 -1.32,0 -2,0c0,1.65 0,3.3 0,5c-0.66,0 -1.32,0 -2,0c0,0.66 0,1.32 0,2c-0.66,0 -1.32,0 -2,0c0,0.66 0,1.32 0,2c-0.66,0 -1.32,0 -2,0c0,0.66 0,1.32 0,2c-1.65,0 -3.3,0 -5,0c0,0.66 0,1.32 0,2c-1.32,0 -2.64,0 -4,0c0,1.32 0,2.64 0,4c-0.66,0 -1.32,0 -2,0c0,1.98 0,3.96 0,6c-0.66,0 -1.32,0 -2,0c0,1.98 0,3.96 0,6c-0.66,0 -1.32,0 -2,0c0,0.66 0,1.32 0,2c-0.66,0 -1.32,0 -2,0c0,0.99 0,1.98 0,3c-0.66,0 -1.32,0 -2,0c0,0.66 0,1.32 0,2c-0.66,0 -1.32,0 -2,0c0,1.32 0,2.64 0,4c-0.66,0 -1.32,0 -2,0c0,1.32 0,2.64 0,4c-0.66,0 -1.32,0 -2,0c0,0.66 0,1.32 0,2c-0.66,0 -1.32,0 -2,0c0,-0.66 0,-1.32 0,-2c-0.66,0 -1.32,0 -2,0c0,-1.32 0,-2.64 0,-4c-0.99,0 -1.98,0 -3,0c0,-13.86 0,-27.72 0,-42z" fill="#188008" id="svg_31" transform="translate(0,37)"/>
  <path d="m252,120c3.63,0 7.26,0 11,0c0,0.66 0,1.32 0,2c0.66,0 1.32,0 2,0c0,1.32 0,2.64 0,4c0.66,0 1.32,0 2,0c0.03,1.62 0.05,3.25 0.06,4.88c0.01,0.9 0.03,1.8 0.04,2.74c-0.1,2.38 -0.1,2.38 -1.1,4.38c-0.66,0 -1.32,0 -2,0c0,10.23 0,20.46 0,31c16.5,0 33,0 50,0c0,0.33 0,0.66 0,1c-7.24,0.17 -14.49,0.33 -21.73,0.48c-2.47,0.06 -4.94,0.11 -7.41,0.17c-3.53,0.08 -7.07,0.16 -10.61,0.23c-1.11,0.03 -2.22,0.05 -3.36,0.08c-1.02,0.02 -2.04,0.04 -3.09,0.06c-1.36,0.03 -1.36,0.03 -2.74,0.06c-2.06,-0.08 -2.06,-0.08 -3.06,-1.08c-1.68,-0.23 -3.37,-0.41 -5.06,-0.56c-0.92,-0.09 -1.84,-0.17 -2.79,-0.26c-1.06,-0.09 -1.06,-0.09 -2.15,-0.18c0,0.66 0,1.32 0,2c-0.66,0 -1.32,0 -2,0c0,0.99 0,1.98 0,3c-0.66,0 -1.32,0 -2,0c0,-1.32 0,-2.64 0,-4c-11.55,0 -23.1,0 -35,0c0,-0.33 0,-0.66 0,-1c11.55,0 23.1,0 35,0c0,-14.85 0,-29.7 0,-45c0.66,0 1.32,0 2,0c0,-0.66 0,-1.32 0,-2c0.66,0 1.32,0 2,0c0,-0.66 0,-1.32 0,-2z" fill="#CF9C02" id="svg_33" transform="matrix(1 0 0 1 0 0)"/>
  <path d="m0,0c1.24,-0.04 2.48,-0.08 3.75,-0.13c1.04,-0.03 1.04,-0.03 2.11,-0.07c2.14,0.2 2.14,0.2 6.14,2.2c0,18.81 0,37.62 0,57c-1.32,0 -2.64,0 -4,0c0,-0.66 0,-1.32 0,-2c-3.96,0 -7.92,0 -12,0c0,-18.15 0,-36.3 0,-55c1.32,0 2.64,0 4,0c0,-0.66 0,-1.32 0,-2z" fill="#EFD050" id="svg_34" transform="translate(54,135)"/>
  <path d="m304,106.13c2.88,-0.03 5.75,-0.05 8.63,-0.06c1.21,-0.02 1.21,-0.02 2.44,-0.03c4.43,-0.02 8.57,0.19 12.93,1.09c0,0.99 0,1.98 0,3c1.32,0 2.64,0 4,0c0,0.66 0,1.32 0,2c0.99,0 1.98,0 3,0c0,0.66 0,1.32 0,2c0.66,0 1.32,0 2,0c0,1.32 0,2.64 0,4c0.66,0 1.32,0 2,0c0,2.64 0,5.28 0,8c-0.66,0 -1.32,0 -2,0c0,1.98 0,3.96 0,6c-0.66,0 -1.32,0 -2,0c0,4.29 0,8.58 0,13c-0.66,0 -1.32,0 -2,0c0,1.98 0,3.96 0,6c-0.66,0 -1.32,0 -2,0c0,7.59 0,15.18 0,23c-1.65,-1.65 -3.3,-3.3 -5,-5c0.99,0.33 1.98,0.66 3,1c0.33,-16.5 0.66,-33 1,-50c-19.47,0 -38.94,0 -59,0c0,-0.66 0,-1.32 0,-2c1.32,0 2.64,0 4,0c0,-0.66 0,-1.32 0,-2c1.32,0 2.64,0 4,0c0,-0.66 0,-1.32 0,-2c0.66,0 1.32,0 2,0c0,-0.66 0,-1.32 0,-2c1.98,0 3.96,0 6,0c0,-0.66 0,-1.32 0,-2c2.97,0 5.94,0 9,0c0,-0.66 0,-1.32 0,-2c2.64,0 5.28,0 8,0c0,-0.66 0,-1.32 0,-2z" fill="#48A40D" id="svg_35" transform="matrix(1 0 0 1 0 0)"/>
  <path d="m0,0c4.62,0 9.24,0 14,0c0,0.66 0,1.32 0,2c1.98,0 3.96,0 6,0c0,0.66 0,1.32 0,2c0.99,0 1.98,0 3,0c0,1.32 0,2.64 0,4c0.66,0 1.32,0 2,0c0,0.66 0,1.32 0,2c0.66,0 1.32,0 2,0c0,3.96 0,7.92 0,12c-0.66,0 -1.32,0 -2,0c0,0.66 0,1.32 0,2c-0.66,0 -1.32,0 -2,0c0,0.66 0,1.32 0,2c-0.66,0 -1.32,0 -2,0c0,21.78 0,43.56 0,66c-0.33,0 -0.66,0 -1,0c0,-21.45 0,-42.9 0,-65c-5.94,-0.99 -5.94,-0.99 -12,-2c0,0.66 0,1.32 0,2c-1.32,0 -2.64,0 -4,0c0,1.98 0,3.96 0,6c-0.66,0 -1.32,0 -2,0c0,-0.66 0,-1.32 0,-2c-1.32,0 -2.64,0 -4,0c0,-0.66 0,-1.32 0,-2c-0.66,0 -1.32,0 -2,0c0,-2.31 0,-4.62 0,-7c-0.66,0 -1.32,0 -2,0c0,-1.32 0,-2.64 0,-4c-0.66,0 -1.32,0 -2,0c0,-3.3 0,-6.6 0,-10c0.66,0 1.32,0 2,0c0,-1.32 0,-2.64 0,-4c0.66,0 1.32,0 2,0c0,-0.66 0,-1.32 0,-2c1.32,0 2.64,0 4,0c0,-0.66 0,-1.32 0,-2z" fill="#ACE743" id="svg_36" transform="translate(46,110)"/>
  <path d="m122,186c3.3,0 6.6,0 10,0c0.13,9.63 0.13,9.63 -1,13c-0.66,0 -1.32,0 -2,0c0,0.66 0,1.32 0,2c-1.32,0 -2.64,0 -4,0c0,0.66 0,1.32 0,2c-0.66,0 -1.32,0 -2,0c0,0.66 0,1.32 0,2c-0.66,0 -1.32,0 -2,0c0,0.66 0,1.32 0,2c-0.66,0 -1.32,0 -2,0c0,0.66 0,1.32 0,2c-0.66,0 -1.32,0 -2,0c0,1.32 0,2.64 0,4c-0.66,0 -1.32,0 -2,0c-0.27,0.89 -0.54,1.77 -0.81,2.69c-1.19,3.31 -1.19,3.31 -2.75,5.87c-1.49,2.53 -2.03,4.55 -2.44,7.44c0.66,0 1.32,0 2,0c0,0.66 0,1.32 0,2c0.66,0 1.32,0 2,0c0,3.3 0,6.6 0,10c1.32,0 2.64,0 4,0c0.73,13.58 0.73,13.58 -4,19c-0.69,1.32 -1.38,2.65 -2,4c-0.99,0 -1.98,0 -3,0c0,0.66 0,1.32 0,2c-0.66,0 -1.32,0 -2,0c0,0.66 0,1.32 0,2c-0.66,0 -1.32,0 -2,0c0,0.66 0,1.32 0,2c-0.99,0 -1.98,0 -3,0c-0.5,0.99 -0.5,0.99 -1,2c0,-2.64 0,-5.28 0,-8c0.66,0 1.32,0 2,0c0,-0.66 0,-1.32 0,-2c0.66,0 1.32,0 2,0c0,-0.66 0,-1.32 0,-2c0.66,0 1.32,0 2,0c0,-1.32 0,-2.64 0,-4c0.66,0 1.32,0 2,0c0,-0.66 0,-1.32 0,-2c0.66,0 1.32,0 2,0c0,-3.3 0,-6.6 0,-10c-0.66,0 -1.32,0 -2,0c0,-0.66 0,-1.32 0,-2c-0.66,0 -1.32,0 -2,0c0,-2.97 0,-5.94 0,-9c-0.66,0 -1.32,0 -2,0c0,-1.32 0,-2.64 0,-4c-0.66,0 -1.32,0 -2,0c0,-3.96 0,-7.92 0,-12c0.66,0 1.32,0 2,0c0,-1.32 0,-2.64 0,-4c0.66,0 1.32,0 2,0c0,-0.66 0,-1.32 0,-2c0.66,0 1.32,0 2,0c0,-1.98 0,-3.96 0,-6c0.66,0 1.32,0 2,0c0,-1.65 0,-3.3 0,-5c0.66,0 1.32,0 2,0c0,-1.32 0,-2.64 0,-4c0.66,0 1.32,0 2,0c0,-0.66 0,-1.32 0,-2c0.66,0 1.32,0 2,0c0,-1.32 0,-2.64 0,-4c0.66,0 1.32,0 2,0c0,-0.66 0,-1.32 0,-2c1.32,0 2.64,0 4,0c0,-0.66 0,-1.32 0,-2z" fill="#218317" id="svg_37" transform="matrix(1 0 0 1 0 0)"/>
  <path d="m163,103c4.29,0 8.58,0 13,0c0,1.65 0,3.3 0,5c0.66,0 1.32,0 2,0c0,1.98 0,3.96 0,6c-0.66,0 -1.32,0 -2,0c0,1.32 0,2.64 0,4c-0.66,0 -1.32,0 -2,0c0,0.66 0,1.32 0,2c-8.25,0 -16.5,0 -25,0c0,5.28 0,10.56 0,16c-10.23,0 -20.46,0 -31,0c0,-0.66 0,-1.32 0,-2c1.98,0 3.96,0 6,0c0,-0.66 0,-1.32 0,-2c1.98,0 3.96,0 6,0c0,-0.66 0,-1.32 0,-2c0.99,0 1.98,0 3,0c0,-0.66 0,-1.32 0,-2c0.66,0 1.32,0 2,0c0,-2.64 0,-5.28 0,-8c0.66,0 1.32,0 2,0c0,-0.66 0,-1.32 0,-2c0.66,0 1.32,0 2,0c0,-1.32 0,-2.64 0,-4c0.66,0 1.32,0 2,0c0,-0.66 0,-1.32 0,-2c1.32,0 2.64,0 4,0c0,-0.66 0,-1.32 0,-2c2.64,0 5.28,0 8,0c0,-0.66 0,-1.32 0,-2c2.97,0 5.94,0 9,0c0.33,-1.65 0.66,-3.3 1,-5z" fill="#A6EF37" id="svg_38" transform="matrix(1 0 0 1 0 0)"/>
  <path d="m246,221c1.32,0 2.64,0 4,0c0,0.66 0,1.32 0,2c-0.66,0 -1.32,0 -2,0c0,2.64 0,5.28 0,8c0.66,0 1.32,0 2,0c0,0.66 0,1.32 0,2c-0.66,0 -1.32,0 -2,0c0,0.66 0,1.32 0,2c0.97,-0.01 1.93,-0.02 2.93,-0.04c7.43,-0.05 14.69,0.07 22.07,1.04c0,1.32 0,2.64 0,4c-0.66,0 -1.32,0 -2,0c0,0.66 0,1.32 0,2c-1.32,0 -2.64,0 -4,0c0,0.66 0,1.32 0,2c-0.66,0 -1.32,0 -2,0c0,0.66 0,1.32 0,2c-0.66,0 -1.32,0 -2,0c0,0.66 0,1.32 0,2c-1.65,0 -3.3,0 -5,0c0,0.66 0,1.32 0,2c-1.32,0 -2.64,0 -4,0c0,0.66 0,1.32 0,2c-3.96,0 -7.92,0 -12,0c0,0.66 0,1.32 0,2c-2.64,0 -5.28,0 -8,0c0,0.66 0,1.32 0,2c-2.31,0 -4.62,0 -7,0c0,0.66 0,1.32 0,2c-1.32,0 -2.64,0 -4,0c0,0.66 0,1.32 0,2c-0.66,0 -1.32,0 -2,0c0,1.98 0,3.96 0,6c-0.66,0 -1.32,0 -2,0c0,1.32 0,2.64 0,4c-0.66,0 -1.32,0 -2,0c0,-0.66 0,-1.32 0,-2c-0.66,0 -1.32,0 -2,0c0,-1.32 0,-2.64 0,-4c0.66,0 1.32,0 2,0c0,-1.32 0,-2.64 0,-4c0.66,0 1.32,0 2,0c0,-1.32 0,-2.64 0,-4c0.66,0 1.32,0 2,0c0,-0.99 0,-1.98 0,-3c0.66,0 1.32,0 2,0c0,-0.66 0,-1.32 0,-2c1.98,0 3.96,0 6,0c0,-0.66 0,-1.32 0,-2c1.32,0 2.64,0 4,0c0,-0.66 0,-1.32 0,-2c1.32,0 2.64,0 4,0c0,-0.66 0,-1.32 0,-2c0.66,0 1.32,0 2,0c0,-0.66 0,-1.32 0,-2c0.66,0 1.32,0 2,0c-0.02,-1.11 -0.05,-2.22 -0.07,-3.36c-0.02,-1.46 -0.04,-2.93 -0.06,-4.39c-0.02,-1.09 -0.02,-1.09 -0.05,-2.21c-0.03,-3.84 0.01,-6.79 2.18,-10.04c0.99,0 1.98,0 3,0c0,-0.66 0,-1.32 0,-2z" fill="#1C810D" id="svg_40" transform="matrix(1 0 0 1 0 0)"/>
  <path d="m0,0c0.99,0.33 1.98,0.66 3,1c0,0.66 0,1.32 0,2c1.32,0 2.64,0 4,0c0,0.66 0,1.32 0,2c1.32,0 2.64,0 4,0c0,0.66 0,1.32 0,2c1.32,0 2.64,0 4,0c0,0.66 0,1.32 0,2c2.64,0 5.28,0 8,0c0,0.66 0,1.32 0,2c3.63,0 7.26,0 11,0c0,0.66 0,1.32 0,2c5.28,0 10.56,0 16,0c0,1.98 0,3.96 0,6c-1.98,0 -3.96,0 -6,0c0,0.66 0,1.32 0,2c-3.96,0 -7.92,0 -12,0c0,0.66 0,1.32 0,2c-5.61,0 -11.22,0 -17,0c0,0.66 0,1.32 0,2c-1.98,0 -3.96,0 -6,0c0,0.66 0,1.32 0,2c-2.97,0 -5.94,0 -9,0c0,-8.91 0,-17.82 0,-27z" fill="#50C708" id="svg_41" transform="translate(0,173)"/>
  <path d="m0,0c14.85,0 29.7,0 45,0c0,3.3 0,6.6 0,10c-0.66,0 -1.32,0 -2,0c0,1.32 0,2.64 0,4c-0.66,0 -1.32,0 -2,0c0,0.66 0,1.32 0,2c-4.59,0.05 -9.18,0.09 -13.77,0.11c-1.56,0.01 -3.12,0.02 -4.68,0.04c-2.25,0.03 -4.5,0.04 -6.75,0.05c-1.03,0.01 -1.03,0.01 -2.09,0.03c-4.27,0 -7.78,-0.53 -11.71,-2.23c-2.11,-4.22 -1.61,-9.3 -2,-14z" fill="#EDCC4C" id="svg_42" transform="translate(265,219)"/>
  <path d="m0,0c1.98,0 3.96,0 6,0c0,0.66 0,1.32 0,2c0.66,0 1.32,0 2,0c0,2.64 0,5.28 0,8c0.66,0 1.32,0 2,0c0,1.98 0,3.96 0,6c0.66,0 1.32,0 2,0c0,1.65 0,3.3 0,5c0.66,0 1.32,0 2,0c0,1.32 0,2.64 0,4c0.66,0 1.32,0 2,0c0,7.92 0,15.84 0,24c-5.28,0 -10.56,0 -16,0c0,-16.17 0,-32.34 0,-49z" fill="#50C808" id="svg_44" transform="translate(67,153)"/>
  <path d="m0,0c2.64,0 5.28,0 8,0c0,0.99 0,1.98 0,3c-1.32,0.33 -2.64,0.66 -4,1c0,2.31 0,4.62 0,7c-1.32,0.33 -2.64,0.66 -4,1c0,0.99 0,1.98 0,3c2.64,0 5.28,0 8,0c0,0.66 0,1.32 0,2c1.32,0 2.64,0 4,0c0.11,10.41 -0.04,20.63 -1,31c-4.29,0 -8.58,0 -13,0c-0.71,-4.25 -1.13,-7.7 -1.13,-11.91c0,-1.09 -0.01,-2.19 -0.01,-3.31c0.01,-1.12 0.01,-2.25 0.01,-3.4c0,-1.14 0,-2.27 -0.01,-3.43c0,-1.09 0.01,-2.18 0.01,-3.3c0,-0.99 0,-1.98 0,-3c0.12,-2.37 0.45,-4.38 1.13,-6.65c-0.66,0 -1.32,0 -2,0c0,-2.64 0,-5.28 0,-8c0.66,0 1.32,0 2,0c0,-0.99 0,-1.98 0,-3c0.66,0 1.32,0 2,0c0,-0.66 0,-1.32 0,-2z" fill="#E6E19C" id="svg_47" transform="translate(87,136)"/>
  <path d="m0,0c3.96,0 7.92,0 12,0c0,0.66 0,1.32 0,2c1.65,0 3.3,0 5,0c0,0.66 0,1.32 0,2c0.66,0 1.32,0 2,0c0,0.66 0,1.32 0,2c0.66,0 1.32,0 2,0c0,1.32 0,2.64 0,4c0.66,0 1.32,0 2,0c0,4.62 0,9.24 0,14c-7.59,0 -15.18,0 -23,0c-1,-5 -1,-5 0,-8c-0.66,0 -1.32,0 -2,0c0,-4.29 0,-8.58 0,-13c0.66,0 1.32,0 2,0c0,-0.99 0,-1.98 0,-3z" fill="#2D8838" id="svg_48" transform="translate(81,297)"/>
  <path d="m297,87c0.33,0 0.66,0 1,0c0,4.29 0,8.58 0,13c1.32,0 2.64,0 4,0c0.33,-0.66 0.66,-1.32 1,-2c0.52,0.31 1.03,0.62 1.56,0.94c3.11,1.35 6.09,1.67 9.44,2.06c0,0.99 0,1.98 0,3c2.64,0.33 5.28,0.66 8,1c0,0.33 0,0.66 0,1c-5.94,0 -11.88,0 -18,0c0,0.66 0,1.32 0,2c-2.64,0 -5.28,0 -8,0c0,0.66 0,1.32 0,2c-2.97,0 -5.94,0 -9,0c0,0.66 0,1.32 0,2c-1.98,0 -3.96,0 -6,0c0,0.66 0,1.32 0,2c-0.66,0 -1.32,0 -2,0c0,0.66 0,1.32 0,2c-1.32,0 -2.64,0 -4,0c0,0.66 0,1.32 0,2c-1.32,0 -2.64,0 -4,0c0,0.66 0,1.32 0,2c-2.31,0 -4.62,0 -7,0c0,-5.61 0,-11.22 0,-17c10.89,0 21.78,0 33,0c0,-5.28 0,-10.56 0,-16z" fill="#27840A" id="svg_50" transform="matrix(1 0 0 1 0 0)"/>
  <path d="m0,0c0.99,0 1.98,0 3,0c-0.81,1.94 -0.81,1.94 -2,4c-0.99,0.33 -1.98,0.66 -3,1c0,0.66 0,1.32 0,2c-0.66,0 -1.32,0 -2,0c0,0.66 0,1.32 0,2c-0.66,0 -1.32,0 -2,0c0,0.66 0,1.32 0,2c-0.66,0 -1.32,0 -2,0c0,7.26 0,14.52 0,22c-1.98,0 -3.96,0 -6,0c-0.33,0.66 -0.66,1.32 -1,2c0,-0.66 0,-1.32 0,-2c-3.96,0 -7.92,0 -12,0c0,0.99 0,1.98 0,3c-0.66,0 -1.32,0 -2,0c0,4.29 0,8.58 0,13c0.66,0 1.32,0 2,0c-0.33,1.32 -0.66,2.64 -1,4c-0.66,-0.33 -1.32,-0.66 -2,-1c0,-6.27 0,-12.54 0,-19c0.66,0 1.32,0 2,0c1.11,-3.32 1.32,-6.2 1.56,-9.69c0.09,-1.18 0.17,-2.36 0.26,-3.57c0.06,-0.91 0.12,-1.81 0.18,-2.74c-0.66,0 -1.32,0 -2,0c0,-0.66 0,-1.32 0,-2c1.65,0 3.3,0 5,0c0,-0.66 0,-1.32 0,-2c1.98,0 3.96,0 6,0c0,-0.66 0,-1.32 0,-2c1.65,0 3.3,0 5,0c0,-0.66 0,-1.32 0,-2c0.64,-0.12 1.28,-0.25 1.94,-0.37c0.68,-0.21 1.36,-0.42 2.06,-0.63c0.33,-0.66 0.66,-1.32 1,-2c0.99,0 1.98,0 3,0c0,-0.66 0,-1.32 0,-2c0.66,0 1.32,0 2,0c0,-0.66 0,-1.32 0,-2c0.66,0 1.32,0 2,0c0,-0.66 0,-1.32 0,-2z" fill="#559CD7" id="svg_53" transform="translate(108,264)"/>
  <path d="m0,0c1.32,0 2.64,0 4,0c0,0.66 0,1.32 0,2c1.32,0 2.64,0 4,0c0,0.66 0,1.32 0,2c1.98,0 3.96,0 6,0c0,0.66 0,1.32 0,2c1.98,0 3.96,0 6,0c0,0.66 0,1.32 0,2c1.98,0 3.96,0 6,0c0,0.66 0,1.32 0,2c0.66,0 1.32,0 2,0c0,0.66 0,1.32 0,2c1.65,0 3.3,0 5,0c0,0.66 0,1.32 0,2c2.64,0 5.28,0 8,0c0,-0.66 0,-1.32 0,-2c1.98,0 3.96,0 6,0c0,-0.66 0,-1.32 0,-2c0.66,0 1.32,0 2,0c0,1.98 0,3.96 0,6c-16.17,0 -32.34,0 -49,0c0,-5.28 0,-10.56 0,-16z" fill="#198107" id="svg_56" transform="translate(265,153)"/>
  <path d="m0,0c10.89,0 21.78,0 33,0c0,0.66 0,1.32 0,2c5.28,0 10.56,0 16,0c0,0.99 0,1.98 0,3c-0.99,-0.33 -1.98,-0.66 -3,-1c-2.23,-0.22 -4.46,-0.41 -6.69,-0.56c-1.18,-0.09 -2.36,-0.17 -3.57,-0.26c-1.36,-0.09 -1.36,-0.09 -2.74,-0.18c0,0.66 0,1.32 0,2c-1.32,0 -2.64,0 -4,0c0,0.66 0,1.32 0,2c-1.32,0 -2.64,0 -4,0c0,0.66 0,1.32 0,2c-3.3,0 -6.6,0 -10,0c0,0.66 0,1.32 0,2c-4.79,1.63 -8.06,2.21 -13,1c0,0.66 0,1.32 0,2c-0.66,0 -1.32,0 -2,0c0,0.66 0,1.32 0,2c-0.66,0 -1.32,0 -2,0c0,-4.62 0,-9.24 0,-14c0.66,0 1.32,0 2,0c0,-0.66 0,-1.32 0,-2z" fill="#24841B" id="svg_58" transform="translate(234,285)"/>
  <path d="m0,0c3.3,0 6.6,0 10,0c0,0.66 0,1.32 0,2c1.32,0 2.64,0 4,0c0,0.66 0,1.32 0,2c1.65,0 3.3,0 5,0c0,0.66 0,1.32 0,2c0.66,0 1.32,0 2,0c0,1.32 0,2.64 0,4c0.66,0 1.32,0 2,0c0,2.64 0,5.28 0,8c-0.66,0 -1.32,0 -2,0c0,-1.98 0,-3.96 0,-6c-13.86,0 -27.72,0 -42,0c0,-0.66 0,-1.32 0,-2c0.66,0 1.32,0 2,0c0,-0.66 0,-1.32 0,-2c1.32,0 2.64,0 4,0c0,-0.66 0,-1.32 0,-2c1.65,0 3.3,0 5,0c0,-0.66 0,-1.32 0,-2c1.98,0 3.96,0 6,0c0,-0.66 0,-1.32 0,-2c1.32,0 2.64,0 4,0c0,-0.66 0,-1.32 0,-2z" fill="#51C709" id="svg_59" transform="translate(310,108)"/>
  <path d="m0,0c1.24,-0.04 2.48,-0.08 3.75,-0.13c1.04,-0.03 1.04,-0.03 2.11,-0.07c2.14,0.2 2.14,0.2 6.14,2.2c0,5.94 0,11.88 0,18c-0.66,0 -1.32,0 -2,0c0,0.66 0,1.32 0,2c-1.32,0 -2.64,0 -4,0c0,0.66 0,1.32 0,2c-1.32,0 -2.64,0 -4,0c0,0.66 0,1.32 0,2c-1.98,0 -3.96,0 -6,0c0,-7.92 0,-15.84 0,-24c1.32,0 2.64,0 4,0c0,-0.66 0,-1.32 0,-2z" fill="#E6DF6F" id="svg_60" transform="translate(54,135)"/>
  <path d="m293,204c3.63,0 7.26,0 11,0c0,1.32 0,2.64 0,4c0.66,0 1.32,0 2,0c0,0.99 0,1.98 0,3c0.66,0 1.32,0 2,0c0,2.64 0,5.28 0,8c-12.21,0 -24.42,0 -37,0c0,-0.66 0,-1.32 0,-2c1.32,0 2.64,0 4,0c0,-0.66 0,-1.32 0,-2c1.32,0 2.64,0 4,0c0,-0.66 0,-1.32 0,-2c1.98,0 3.96,0 6,0c0,-0.66 0,-1.32 0,-2c0.66,0 1.32,0 2,0c0,-0.99 0,-1.98 0,-3c1.32,0 2.64,0 4,0c0,-0.66 0,-1.32 0,-2c0.66,0 1.32,0 2,0c0,-0.66 0,-1.32 0,-2z" fill="#38A608" id="svg_61"/>
  <path d="m244,87c1.32,0 2.64,0 4,0c0,10.89 0,21.78 0,33c-5.28,0 -10.56,0 -16,0c0,-0.66 0,-1.32 0,-2c0.66,0 1.32,0 2,0c0,-0.66 0,-1.32 0,-2c0.66,0 1.32,0 2,0c0,-1.32 0,-2.64 0,-4c0.66,0 1.32,0 2,0c0,-4.95 0,-9.9 0,-15c0.66,0 1.32,0 2,0c0,-1.98 0,-3.96 0,-6c0.66,0 1.32,0 2,0c0,-0.66 0,-1.32 0,-2c0.66,0 1.32,0 2,0c0,-0.66 0,-1.32 0,-2z" fill="#198007" id="svg_62"/>
  <path d="m266,136c15.84,0 31.68,0 48,0c0,3.63 0,7.26 0,11c-3.96,0 -7.92,0 -12,0c0,-0.66 0,-1.32 0,-2c-2.97,0 -5.94,0 -9,0c0,-0.66 0,-1.32 0,-2c-1.98,0 -3.96,0 -6,0c0,-0.99 0,-1.98 0,-3c-0.66,0 -1.32,0 -2,0c0,-0.66 0,-1.32 0,-2c-5.94,-0.33 -11.88,-0.66 -18,-1c0,0.66 0,1.32 0,2c-0.66,0 -1.32,0 -2,0c0,9.9 0,19.8 0,30c-0.33,0 -0.66,0 -1,0c0,-10.23 0,-20.46 0,-31c0.66,0 1.32,0 2,0c0,-0.66 0,-1.32 0,-2z" fill="#5FC10D" id="svg_63" transform="matrix(1 0 0 1 0 0)"/>
  <path d="m0,0c3.96,0 7.92,0 12,0c0,3.3 0,6.6 0,10c-14.19,0 -28.38,0 -43,0c0,-0.66 0,-1.32 0,-2c2.97,0 5.94,0 9,0c0,-0.66 0,-1.32 0,-2c3.3,0 6.6,0 10,0c0,-0.66 0,-1.32 0,-2c1.32,0 2.64,0 4,0c0,-0.66 0,-1.32 0,-2c2.64,0 5.28,0 8,0c0,-0.66 0,-1.32 0,-2z" fill="#EDCF4E" id="svg_68" transform="translate(153,143)"/>
  <path d="m238,260c3.96,0 7.92,0 12,0c0,0.66 0,1.32 0,2c2.64,0 5.28,0 8,0c0,-0.66 0,-1.32 0,-2c1.98,0 3.96,0 6,0c0,2.64 0,5.28 0,8c-12.87,0 -25.74,0 -39,0c0,-0.66 0,-1.32 0,-2c0.66,0 1.32,0 2,0c0,-0.66 0,-1.32 0,-2c1.65,0 3.3,0 5,0c0,-0.66 0,-1.32 0,-2c1.98,0 3.96,0 6,0c0,-0.66 0,-1.32 0,-2z" fill="#4FC608" id="svg_72"/>
  <path d="m0,0c5.94,0 11.88,0 18,0c0,0.66 0,1.32 0,2c0.66,0 1.32,0 2,0c0,0.66 0,1.32 0,2c-1.32,0 -2.64,0 -4,0c0,-0.66 0,-1.32 0,-2c-3.3,0 -6.6,0 -10,0c0,0.66 0,1.32 0,2c-1.32,0 -2.64,0 -4,0c0,0.66 0,1.32 0,2c-1.98,0 -3.96,0 -6,0c0,0.66 0,1.32 0,2c-1.65,0 -3.3,0 -5,0c0,0.66 0,1.32 0,2c-1.32,0 -2.64,0 -4,0c0,0.66 0,1.32 0,2c-0.66,0 -1.32,0 -2,0c0,0.66 0,1.32 0,2c-5.94,0 -11.88,0 -18,0c0,-0.66 0,-1.32 0,-2c1.32,0 2.64,0 4,0c0,-0.66 0,-1.32 0,-2c1.32,0 2.64,0 4,0c0,-0.66 0,-1.32 0,-2c0.66,0 1.32,0 2,0c0,-0.66 0,-1.32 0,-2c1.98,0 3.96,0 6,0c0,-0.66 0,-1.32 0,-2c2.97,0 5.94,0 9,0c0,-0.66 0,-1.32 0,-2c2.64,0 5.28,0 8,0c0,-0.66 0,-1.32 0,-2z" fill="#3AA908" id="svg_74" transform="translate(304,106)"/>
  <path d="m0,0c3.96,0 7.92,0 12,0c0.33,0.99 0.66,1.98 1,3c-0.66,0 -1.32,0 -2,0c0,23.43 0,46.86 0,71c0.66,0 1.32,0 2,0c0,0.66 0,1.32 0,2c-0.99,0 -1.98,0 -3,0c0,-21.78 0,-43.56 0,-66c-8.41,0.49 -8.41,0.49 -17,1c-0.33,-2.31 -0.66,-4.62 -1,-7c0.66,0 1.32,0 2,0c0,-0.66 0,-1.32 0,-2c1.98,0 3.96,0 6,0c0,-0.66 0,-1.32 0,-2z" fill="#D2CE97" id="svg_75" transform="translate(139,192)"/>
  <path d="m0,0c0.66,0 1.32,0 2,0c0,10.89 0,21.78 0,33c4.29,0 8.58,0 13,0c0,-4.29 0,-8.58 0,-13c0.33,0 0.66,0 1,0c0.03,3.12 0.05,6.25 0.06,9.38c0.01,0.88 0.02,1.77 0.03,2.69c0,1.28 0,1.28 0.01,2.58c0.01,1.18 0.01,1.18 0.01,2.38c-0.11,1.97 -0.11,1.97 -1.11,3.97c-0.99,0 -1.98,0 -3,0c0,0.66 0,1.32 0,2c-1.32,0 -2.64,0 -4,0c0,0.66 0,1.32 0,2c-1.32,0 -2.64,0 -4,0c0,0.66 0,1.32 0,2c-1.32,0 -2.64,0 -4,0c0,-15.51 0,-31.02 0,-47z" fill="#EBD050" id="svg_77" transform="translate(83,151)"/>
  <path d="m0,0c24.09,0 48.18,0 73,0c0,0.66 0,1.32 0,2c-0.66,0 -1.32,0 -2,0c-0.33,0.99 -0.66,1.98 -1,3c-0.66,0 -1.32,0 -2,0c0,-0.66 0,-1.32 0,-2c-22.11,0 -44.22,0 -67,0c-0.33,-0.99 -0.66,-1.98 -1,-3z" fill="#B7B994" id="svg_78" transform="translate(132,283)"/>
  <path d="m0,0c0.66,0 1.32,0 2,0c0,5.61 0,11.22 0,17c0.66,0 1.32,0 2,0c0,0.66 0,1.32 0,2c-0.66,0 -1.32,0 -2,0c0,5.61 0,11.22 0,17c-1.32,0 -2.64,0 -4,0c0,-0.99 0,-1.98 0,-3c-0.66,0 -1.32,0 -2,0c0,-3.3 0,-6.6 0,-10c0.66,0 1.32,0 2,0c0,-1.98 0,-3.96 0,-6c-0.66,0 -1.32,0 -2,0c0,-0.66 0,-1.32 0,-2c-0.66,0 -1.32,0 -2,0c0,-3.3 0,-6.6 0,-10c0.66,0 1.32,0 2,0c0,-0.66 0,-1.32 0,-2c1.32,0 2.64,0 4,0c0,-0.99 0,-1.98 0,-3z" fill="#38A509" id="svg_81" transform="translate(81,237)"/>
  <path d="m0,0c3.3,0 6.6,0 10,0c0,5.61 0,11.22 0,17c-5.28,0 -10.56,0 -16,0c0,-0.66 0,-1.32 0,-2c0.66,0 1.32,0 2,0c0,-0.66 0,-1.32 0,-2c0.66,0 1.32,0 2,0c0,-1.32 0,-2.64 0,-4c0.66,0 1.32,0 2,0c0,-2.97 0,-5.94 0,-9z" fill="#1E8107" id="svg_83" transform="translate(304,235)"/>
  <path d="m0,0c0.99,0 1.98,0 3,0c0,0.66 0,1.32 0,2c0.66,0 1.32,0 2,0c0,0.99 0,1.98 0,3c-0.66,0 -1.32,0 -2,0c0,2.64 0,5.28 0,8c0.66,0 1.32,0 2,0c0,0.99 0,1.98 0,3c7.26,0 14.52,0 22,0c0,0.33 0,0.66 0,1c-7.26,0 -14.52,0 -22,0c0,5.94 0,11.88 0,18c-0.33,0 -0.66,0 -1,0c0,-5.94 0,-11.88 0,-18c-1.32,0 -2.64,0 -4,0c0,-0.66 0,-1.32 0,-2c-2.64,0 -5.28,0 -8,0c0,-0.99 0,-1.98 0,-3c0.99,-0.33 1.98,-0.66 3,-1c0.33,-2.31 0.66,-4.62 1,-7c-1.32,-0.33 -2.64,-0.66 -4,-1c2.64,0 5.28,0 8,0c0,-0.99 0,-1.98 0,-3z" fill="#CADA55" id="svg_86" transform="translate(95,136)"/>
  <path d="m0,0c13.53,0 27.06,0 41,0c0,0.33 0,0.66 0,1c-2.64,0 -5.28,0 -8,0c0,0.66 0,1.32 0,2c-0.66,0 -1.32,0 -2,0c0,1.32 0,2.64 0,4c-0.66,0 -1.32,0 -2,0c0,0.66 0,1.32 0,2c-1.65,0 -3.3,0 -5,0c0,0.66 0,1.32 0,2c-1.32,0 -2.64,0 -4,0c0,0.66 0,1.32 0,2c-1.32,0 -2.64,0 -4,0c0,-1.32 0,-2.64 0,-4c0.66,0 1.32,0 2,0c0,-1.32 0,-2.64 0,-4c0.66,0 1.32,0 2,0c0,-1.32 0,-2.64 0,-4c-6.6,0 -13.2,0 -20,0c0,-0.33 0,-0.66 0,-1z" fill="#59BF0C" id="svg_88" transform="translate(263,235)"/>
  <path d="m0,0c3.3,0 6.6,0 10,0c0,0.66 0,1.32 0,2c1.32,0 2.64,0 4,0c0,0.66 0,1.32 0,2c0.66,0 1.32,0 2,0c0,1.32 0,2.64 0,4c-7.92,0 -15.84,0 -24,0c0,-0.66 0,-1.32 0,-2c0.66,0 1.32,0 2,0c0,-0.66 0,-1.32 0,-2c0.66,0 1.32,0 2,0c0,-0.66 0,-1.32 0,-2c1.32,0 2.64,0 4,0c0,-0.66 0,-1.32 0,-2z" fill="#72E021" id="svg_90" transform="translate(310,112)"/>
  <path d="m0,0c0.66,0 1.32,0 2,0c0,0.66 0,1.32 0,2c1.32,0 2.64,0 4,0c0,0.99 0,1.98 0,3c1.32,0 2.64,0 4,0c0,0.66 0,1.32 0,2c0.66,0 1.32,0 2,0c0,2.64 0,5.28 0,8c-2.64,0 -5.28,0 -8,0c0,0.66 0,1.32 0,2c-1.32,0 -2.64,0 -4,0c0,-5.61 0,-11.22 0,-17z" fill="#E6DF6E" id="svg_91" transform="translate(50,169)"/>
  <path d="m0,0c9.57,0 19.14,0 29,0c0,1.32 0,2.64 0,4c-1.28,0.09 -1.28,0.09 -2.59,0.18c-1.1,0.09 -2.21,0.17 -3.35,0.26c-1.1,0.08 -2.2,0.16 -3.34,0.24c-2.63,0.02 -2.63,0.02 -3.72,1.32c-2.02,0.07 -4.04,0.08 -6.06,0.06c-1.66,-0.01 -1.66,-0.01 -3.35,-0.02c-0.85,-0.02 -1.71,-0.03 -2.59,-0.04c0,-0.66 0,-1.32 0,-2c-1.32,0 -2.64,0 -4,0c0,-1.32 0,-2.64 0,-4z" fill="#EFE785" id="svg_94" transform="translate(116,137)"/>
  <path d="m0,0c3.96,0 7.92,0 12,0c0.33,0.66 0.66,1.32 1,2c0.99,0.66 1.98,1.32 3,2c-3.3,0 -6.6,0 -10,0c0,0.66 0,1.32 0,2c-0.66,0 -1.32,0 -2,0c0,0.66 0,1.32 0,2c-0.66,0 -1.32,0 -2,0c0,2.97 0,5.94 0,9c0.66,0 1.32,0 2,0c0,0.66 0,1.32 0,2c-0.66,0 -1.32,0 -2,0c0,0.66 0,1.32 0,2c-0.99,0.33 -1.98,0.66 -3,1c0.33,-1.98 0.66,-3.96 1,-6c-0.66,0 -1.32,0 -2,0c0,-4.29 0,-8.58 0,-13c0.66,0 1.32,0 2,0c0,-0.99 0,-1.98 0,-3z" fill="#2A8315" id="svg_98" transform="translate(81,297)"/>
  <path d="m0,0c2.64,0 5.28,0 8,0c0,3.3 0,6.6 0,10c-0.66,0 -1.32,0 -2,0c0,1.32 0,2.64 0,4c-0.66,0 -1.32,0 -2,0c0,0.66 0,1.32 0,2c-2.64,0 -5.28,0 -8,0c0,-1.32 0,-2.64 0,-4c0.66,0 1.32,0 2,0c0,-0.66 0,-1.32 0,-2c0.66,0 1.32,0 2,0c0,-3.3 0,-6.6 0,-10z" fill="#E7B736" id="svg_99" transform="translate(302,219)"/>
  <path class="mapLocation road sea" d="m157.39,300.88l0,18.49l74.65,-0.18l-0.18,-34.21l-16.85,0.13l0.48,15.95l-58.1,-0.18z" fill="#569AD1" id="Sea Route 19"/>
  <path d="m213,268c1.32,0 2.64,0 4,0c0,1.32 0,2.64 0,4c-0.66,0 -1.32,0 -2,0c0,2.97 0,5.94 0,9c0.66,0 1.32,0 2,0c0,-2.64 0,-5.28 0,-8c0.66,0 1.32,0 2,0c0,1.32 0,2.64 0,4c0.66,0 1.32,0 2,0c0,3.3 0,6.6 0,10c3.63,0 7.26,0 11,0c0,4.62 0,9.24 0,14c-1.65,0 -3.3,0 -5,0c0,-0.66 0,-1.32 0,-2c-1.98,0 -3.96,0 -6,0c0,-0.66 0,-1.32 0,-2c-1.98,0 -3.96,0 -6,0c0,-0.66 0,-1.32 0,-2c-0.66,0.33 -1.32,0.66 -2,1c-2.33,0.04 -4.67,0.04 -7,0c0,-0.66 0,-1.32 0,-2c-1.32,0 -2.64,0 -4,0c-0.13,-6.75 -0.13,-6.75 1,-9c0.66,0 1.32,0 2,0c0,-0.66 0,-1.32 0,-2c0.66,0 1.32,0 2,0c0,-0.66 0,-1.32 0,-2c0.66,0 1.32,0 2,0c0,-1.32 0,-2.64 0,-4c0.66,0 1.32,0 2,0c0,-2.31 0,-4.62 0,-7c0.66,0 1.32,0 2,0c0,-0.66 0,-1.32 0,-2z" fill="#E2BB39" id="svg_51" transform="matrix(1 0 0 1 0 0)"/>
  <path d="m215,291c1.98,0 3.96,0 6,0c0,0.66 0,1.32 0,2c3.63,0 7.26,0 11,0c0,2.64 0,5.28 0,8c-1.65,0 -3.3,0 -5,0c0,-0.66 0,-1.32 0,-2c-1.98,0 -3.96,0 -6,0c0,-0.66 0,-1.32 0,-2c-1.98,0 -3.96,0 -6,0c0,-1.98 0,-3.96 0,-6z" fill="#D89F02" id="svg_106"/>
  <path d="m213,295c0.66,0 1.32,0 2,0c0,0.66 0,1.32 0,2c1.98,0 3.96,0 6,0c0,0.66 0,1.32 0,2c1.98,0 3.96,0 6,0c0,0.66 0,1.32 0,2c-1.94,0.08 -3.87,0.14 -5.81,0.19c-1.08,0.03 -2.16,0.07 -3.27,0.1c-2.92,-0.29 -2.92,-0.29 -4.81,-1.8c-0.55,-0.74 -0.55,-0.74 -1.11,-1.49c0.33,-0.99 0.66,-1.98 1,-3z" fill="#C9C494" id="svg_171"/>
  <path d="m203,285c3.96,0 7.92,0 12,0c0,3.3 0,6.6 0,10c-2.96,1.48 -5.74,1.06 -9,1c0,-0.66 0,-1.32 0,-2c-1.32,0 -2.64,0 -4,0c-0.13,-6.75 -0.13,-6.75 1,-9z" fill="#2E882A" id="svg_100"/>
  <path d="m165,136c15.18,0 30.36,0 46,0c0,0.33 0,0.66 0,1c-16.34,0.5 -16.34,0.5 -33,1c0,0.99 0,1.98 0,3c-1.98,0 -3.96,0 -6,0c0,0.66 0,1.32 0,2c-1.98,0 -3.96,0 -6,0c0,3.3 0,6.6 0,10c-0.33,0 -0.66,0 -1,0c0,-5.61 0,-11.22 0,-17z" fill="#82D426" id="svg_101" transform="matrix(1 0 0 1 0 0)"/>
  <path d="m0,0c5.28,0 10.56,0 16,0c0,0.66 0,1.32 0,2c-0.66,0 -1.32,0 -2,0c0,0.66 0,1.32 0,2c-1.32,0 -2.64,0 -4,0c0,0.66 0,1.32 0,2c-1.32,0 -2.64,0 -4,0c0,0.66 0,1.32 0,2c-0.66,0 -1.32,0 -2,0c0,1.32 0,2.64 0,4c-0.66,0 -1.32,0 -2,0c0,1.65 0,3.3 0,5c-0.66,0 -1.32,0 -2,0c0,-5.61 0,-11.22 0,-17z" fill="#6EDE1F" id="svg_103" transform="translate(100,153)"/>
  <path d="m83,266c0.66,0 1.32,0 2,0c0,0.66 0,1.32 0,2c1.58,0.03 3.17,0.05 4.75,0.06c0.88,0.01 1.76,0.03 2.67,0.04c2.36,-0.09 4.32,-0.43 6.58,-1.1c0,1.65 0,3.3 0,5c-1.32,0 -2.64,0 -4,0c0,0.66 0,1.32 0,2c-1.32,0 -2.64,0 -4,0c0,0.99 0,1.98 0,3c-1.98,0 -3.96,0 -6,0c0,0.66 0,1.32 0,2c-0.66,0 -1.32,0 -2,0c0,-4.29 0,-8.58 0,-13z" fill="#D7A110" id="svg_104" transform="matrix(1 0 0 1 0 0)"/>
  <path d="m0,0c12.87,0 25.74,0 39,0c0,0.33 0,0.66 0,1c-9.57,0.33 -19.14,0.66 -29,1c0,1.32 0,2.64 0,4c-1.32,0 -2.64,0 -4,0c0,0.99 0,1.98 0,3c-1.98,0 -3.96,0 -6,0c0,-2.97 0,-5.94 0,-9z" fill="#4BA109" id="svg_108" transform="translate(281,268)"/>
  <path d="m0,0c2.64,0 5.28,0 8,0c0,0.66 0,1.32 0,2c0.66,0 1.32,0 2,0c0,1.98 0,3.96 0,6c-0.66,0 -1.32,0 -2,0c0,0.66 0,1.32 0,2c-2.64,0 -5.28,0 -8,0c0,-0.66 0,-1.32 0,-2c-0.66,0 -1.32,0 -2,0c0,-1.98 0,-3.96 0,-6c0.66,0 1.32,0 2,0c0,-0.66 0,-1.32 0,-2z" fill="#19800B" id="svg_114" transform="translate(141,304)"/>
  <path d="m0,0c1.98,0 3.96,0 6,0c0,0.66 0,1.32 0,2c2.64,0 5.28,0 8,0c0,0.66 0,1.32 0,2c0.66,0 1.32,0 2,0c0,1.32 0,2.64 0,4c-5.28,0 -10.56,0 -16,0c0,-2.64 0,-5.28 0,-8z" fill="#39A908" id="svg_115" transform="translate(67,194)"/>
  <path d="m0,0c0.66,0 1.32,0 2,0c0,1.32 0,2.64 0,4c0.66,0 1.32,0 2,0c0,2.64 0,5.28 0,8c0.66,0 1.32,0 2,0c0,0.66 0,1.32 0,2c2.97,0 5.94,0 9,0c0.33,-3.3 0.66,-6.6 1,-10c0.33,0 0.66,0 1,0c0,3.63 0,7.26 0,11c-6.93,0 -13.86,0 -21,0c0,-0.99 0,-1.98 0,-3c0.66,0 1.32,0 2,0c0,-0.66 0,-1.32 0,-2c0.66,0 1.32,0 2,0c0,-3.3 0,-6.6 0,-10z" fill="#7B986F" id="svg_118" transform="translate(85,306)"/>
  <path d="m0,0c7.26,0 14.52,0 22,0c0,0.66 0,1.32 0,2c-2.64,0 -5.28,0 -8,0c0,0.66 0,1.32 0,2c-3.3,0 -6.6,0 -10,0c0,0.66 0,1.32 0,2c-1.32,0 -2.64,0 -4,0c0,0.66 0,1.32 0,2c-0.66,0 -1.32,0 -2,0c0,-1.98 0,-3.96 0,-6c0.66,0 1.32,0 2,0c0,-0.66 0,-1.32 0,-2z" fill="#39A808" id="svg_120" transform="translate(234,285)"/>
  <path d="m82,281c0.33,0 0.66,0 1,0c0,4.62 0,9.24 0,14c5.61,0 11.22,0 17,0c0,0.66 0,1.32 0,2c-1.98,0 -3.96,0 -6,0c-0.33,0.66 -0.66,1.32 -1,2c0,-0.66 0,-1.32 0,-2c-3.96,0 -7.92,0 -12,0c0,0.99 0,1.98 0,3c-0.66,0 -1.32,0 -2,0c0,4.29 0,8.58 0,13c0.66,0 1.32,0 2,0c-0.33,1.32 -0.66,2.64 -1,4c-0.66,-0.33 -1.32,-0.66 -2,-1c0,-6.27 0,-12.54 0,-19c0.66,0 1.32,0 2,0c1.11,-3.32 1.32,-6.2 1.56,-9.69c0.09,-1.18 0.17,-2.36 0.26,-3.57c0.06,-0.91 0.12,-1.81 0.18,-2.74z" fill="#659BC5" id="svg_121"/>
  <path d="m0,0c0.99,0.33 1.98,0.66 3,1c0,0.66 0,1.32 0,2c-0.66,0 -1.32,0 -2,0c0,23.43 0,46.86 0,71c0.66,0 1.32,0 2,0c0,0.66 0,1.32 0,2c-0.99,0 -1.98,0 -3,0c0,-25.08 0,-50.16 0,-76z" fill="#ADAD94" id="svg_122" transform="translate(149,192)"/>
  <path d="m0,0c0.66,0 1.32,0 2,0c0,0.66 0,1.32 0,2c0.66,0 1.32,0 2,0c0,1.65 0,3.3 0,5c0.66,0 1.32,0 2,0c0,2.64 0,5.28 0,8c-0.66,0 -1.32,0 -2,0c0,0.66 0,1.32 0,2c-0.66,0 -1.32,0 -2,0c0,1.32 0,2.64 0,4c-0.66,0 -1.32,0 -2,0c0,0.66 0,1.32 0,2c-0.99,0 -1.98,0 -3,0c1.87,-3.87 1.87,-3.87 3,-5c0.24,-2.53 0.42,-5.03 0.56,-7.56c0.05,-0.71 0.09,-1.42 0.13,-2.16c0.11,-1.76 0.21,-3.52 0.31,-5.28c-0.66,0 -1.32,0 -2,0c0.33,-0.99 0.66,-1.98 1,-3z" fill="#D4CD90" id="svg_123" transform="translate(246,200)"/>
  <path d="m217,260c1.32,0 2.64,0 4,0c0,1.98 0,3.96 0,6c-0.66,0 -1.32,0 -2,0c0,1.32 0,2.64 0,4c-0.66,0 -1.32,0 -2,0c0,-0.66 0,-1.32 0,-2c-0.66,0 -1.32,0 -2,0c0,-1.32 0,-2.64 0,-4c0.66,0 1.32,0 2,0c0,-1.32 0,-2.64 0,-4z" fill="#217E14" id="svg_185" transform="matrix(1 0 0 1 0 0)"/>
  <path d="m213,268c1.32,0 8.44,-0.26 9.8,-0.26c0,1.32 -4.49,3.17 -4.49,4.53c-0.66,0 -1.85,0.4 -2.53,0.4c0,2.31 -0.79,3.96 -0.79,6.34c-0.66,0 -1.32,0 -2,0c0,0.66 0,1.32 0,2c-0.66,0 -1.32,0 -2,0c0,1.32 0,2.64 0,4c-1.98,0 -3.96,0 -6,0c0,-0.66 0,-1.32 0,-2c0.66,0 1.32,0 2,0c0,-0.66 0,-1.32 0,-2c0.66,0 1.32,0 2,0c0,-1.32 0,-2.64 0,-4c0.66,0 1.32,0 2,0c0,-2.31 0,-4.62 0,-7c0.66,0 1.32,0 2,0c0,-0.66 0,-1.32 0,-2z" fill="#D69E09" id="svg_127"/>
  <path d="m100,239c0.66,0 1.32,0 2,0c0.66,2.31 1.32,4.62 2,7c0.66,0 1.32,0 2,0c0,1.98 0,3.96 0,6c-0.66,0 -1.32,0 -2,0c0,1.32 0,2.64 0,4c-0.66,0 -1.32,0 -2,0c0,0.66 0,1.32 0,2c-0.66,0 -1.32,0 -2,0c0,-6.27 0,-12.54 0,-19z" fill="#4DC408" id="svg_131"/>
  <path d="m0,0c7.38,-0.37 7.38,-0.37 10.5,1.5c0.49,0.5 0.99,0.99 1.5,1.5c-1.32,0 -2.64,0 -4,0c0,0.66 0,1.32 0,2c-2.64,0 -5.28,0 -8,0c0,-0.66 0,-1.32 0,-2c-0.66,0 -1.32,0 -2,0c0,0.99 0,1.98 0,3c0.66,0 1.32,0 2,0c0,2.64 0,5.28 0,8c-0.66,0 -1.32,0 -2,0c0,-1.98 0,-3.96 0,-6c-0.66,0 -1.32,0 -2,0c0,-1.98 0,-3.96 0,-6c1.32,0 2.64,0 4,0c0,-0.66 0,-1.32 0,-2z" fill="#E9E6B7" id="svg_132" transform="translate(54,135)"/>
  <path d="m0,0c2.97,0 5.94,0 9,0c0,1.98 0,3.96 0,6c-5.61,0 -11.22,0 -17,0c0,-0.66 0,-1.32 0,-2c1.98,0 3.96,0 6,0c0,-0.66 0,-1.32 0,-2c0.66,0 1.32,0 2,0c0,-0.66 0,-1.32 0,-2z" fill="#53C60A" id="svg_133" transform="translate(293,213)"/>
  <path d="m0,0c3.96,0 7.92,0 12,0c0,1.98 0,3.96 0,6c-3.96,0 -7.92,0 -12,0c0,-1.98 0,-3.96 0,-6z" fill="#549FD9" id="svg_135" transform="translate(319,252)"/>
  <path d="m0,0c1.98,0 3.96,0 6,0c0,0.66 0,1.32 0,2c1.32,0 2.64,0 4,0c0,0.66 0,1.32 0,2c2.31,0 4.62,0 7,0c0,0.66 0,1.32 0,2c-5.61,0 -11.22,0 -17,0c0,-1.98 0,-3.96 0,-6z" fill="#D69E00" id="svg_138" transform="translate(50,213)"/>
  <path d="m0,0c0.66,0 1.32,0 2,0c0,0.66 0,1.32 0,2c0.66,0 1.32,0 2,0c0,0.66 0,1.32 0,2c0.66,0 1.32,0 2,0c0,4.62 0,9.24 0,14c-1.32,0 -2.64,0 -4,0c0,-4.95 0,-9.9 0,-15c-0.66,0 -1.32,0 -2,0c0,-0.99 0,-1.98 0,-3z" fill="#4C9764" id="svg_139" transform="translate(296,82)"/>
  <path d="m0,0c3.96,0 7.92,0 12,0c0,1.65 0,3.3 0,5c-4.62,0 -9.24,0 -14,0c0.66,-0.33 1.32,-0.66 2,-1c0,-1.32 0,-2.64 0,-4z" fill="#549DD9" id="svg_149" transform="translate(319,236)"/>
  <path d="m0,0c0.99,0 1.98,0 3,0c-0.81,1.94 -0.81,1.94 -2,4c-0.99,0.33 -1.98,0.66 -3,1c0,0.66 0,1.32 0,2c-0.66,0 -1.32,0 -2,0c0,0.66 0,1.32 0,2c-0.66,0 -1.32,0 -2,0c0,0.66 0,1.32 0,2c-0.66,0 -1.32,0 -2,0c0,0.66 0,1.32 0,2c-2.97,0 -5.94,0 -9,0c0,-0.66 0,-1.32 0,-2c1.65,0 3.3,0 5,0c0,-0.66 0,-1.32 0,-2c0.64,-0.12 1.28,-0.25 1.94,-0.37c0.68,-0.21 1.36,-0.42 2.06,-0.63c0.33,-0.66 0.66,-1.32 1,-2c0.99,0 1.98,0 3,0c0,-0.66 0,-1.32 0,-2c0.66,0 1.32,0 2,0c0,-0.66 0,-1.32 0,-2c0.66,0 1.32,0 2,0c0,-0.66 0,-1.32 0,-2z" fill="#62A0C9" id="svg_150" transform="translate(108,264)"/>
  <path d="m0,0c0.99,0 1.98,0 3,0c0,0.66 0,1.32 0,2c4.62,0 9.24,0 14,0c0,0.99 0,1.98 0,3c-0.66,0 -1.32,0 -2,0c-0.33,0.66 -0.66,1.32 -1,2c-2.97,-0.5 -2.97,-0.5 -6,-1c0,-0.66 0,-1.32 0,-2c-0.95,0.02 -1.9,0.04 -2.87,0.06c-3.13,-0.06 -3.13,-0.06 -5.13,-1.06c0,-0.99 0,-1.98 0,-3z" fill="#348D3C" id="svg_158" transform="translate(314,101)"/>
  <path d="m0,0c3.3,0 6.6,0 10,0c0,1.32 0,2.64 0,4c-5.28,0 -10.56,0 -16,0c0,-0.66 0,-1.32 0,-2c1.98,0 3.96,0 6,0c0,-0.66 0,-1.32 0,-2z" fill="#D5CE90" id="svg_161" transform="translate(139,192)"/>
  <path d="m0,0c1.98,0 3.96,0 6,0c0,3.96 0,7.92 0,12c-0.66,0 -1.32,0 -2,0c0,-1.32 0,-2.64 0,-4c-0.66,0 -1.32,0 -2,0c0,-1.32 0,-2.64 0,-4c-0.66,0 -1.32,0 -2,0c0,-1.32 0,-2.64 0,-4z" fill="#E6B430" id="svg_167" transform="translate(258,139)"/>
  <path d="m0,0c0.99,0.33 1.98,0.66 3,1c0,0.66 0,1.32 0,2c-0.66,0 -1.32,0 -2,0c-0.22,0.93 -0.22,0.93 -0.44,1.88c-0.56,2.12 -0.56,2.12 -1.56,4.12c-0.66,0 -1.32,0 -2,0c-0.2,1.44 -0.38,2.87 -0.56,4.31c-0.16,1.2 -0.16,1.2 -0.32,2.43c-0.27,2.43 -0.27,2.43 0.88,5.26c-0.99,0 -1.98,0 -3,0c0,-3.63 0,-7.26 0,-11c0.66,0 1.32,0 2,0c0,-1.32 0,-2.64 0,-4c0.66,0 1.32,0 2,0c0,-0.66 0,-1.32 0,-2c0.66,0 1.32,0 2,0c0,-1.32 0,-2.64 0,-4z" fill="#8EAAC1" id="svg_170" transform="translate(345,124)"/>
  <path d="m213,295c0.66,0 1.32,0 2,0c0,0.66 0,1.32 0,2c1.98,0 3.96,0 6,0c0,0.66 0,1.32 0,2c1.98,0 3.96,0 6,0c0,0.66 0,1.32 0,2c-1.94,0.08 -3.87,0.14 -5.81,0.19c-1.08,0.03 -2.16,0.07 -3.27,0.1c-2.92,-0.29 -2.92,-0.29 -4.81,-1.8c-0.55,-0.74 -0.55,-0.74 -1.11,-1.49c0.33,-0.99 0.66,-1.98 1,-3z" fill="#C9C494" id="svg_4" transform="matrix(1 0 0 1 0 0)"/>
  <path d="m0,0c0.99,0 1.98,0 3,0c0,0.99 0,1.98 0,3c-0.66,0 -1.32,0 -2,0c0.46,3.47 0.89,6.67 2,10c0.66,0 1.32,0 2,0c0,3.3 0,6.6 0,10c-0.99,0 -1.98,0 -3,0c0.34,-1.64 0.34,-1.64 0.69,-3.31c0.1,-1.22 0.2,-2.44 0.31,-3.69c-0.48,-0.43 -0.97,-0.87 -1.47,-1.31c-2.36,-2.61 -1.82,-4.95 -1.72,-8.38c0.03,-1.18 0.06,-2.36 0.08,-3.57c0.04,-0.91 0.07,-1.81 0.11,-2.74z" fill="#7CAEAA" id="svg_172" transform="translate(66,239)"/>
  <path d="m0,0c0.66,0 1.32,0 2,0c-0.66,3.3 -1.32,6.6 -2,10c-2.31,0 -4.62,0 -7,0c0,-0.66 0,-1.32 0,-2c0.66,0 1.32,0 2,0c0,-1.32 0,-2.64 0,-4c0.66,0 1.32,0 2,0c0,-0.66 0,-1.32 0,-2c0.99,0 1.98,0 3,0c0,-0.66 0,-1.32 0,-2z" fill="#679DC9" id="svg_173" transform="translate(331,213)"/>
  <path d="m0,0c2.64,0 5.28,0 8,0c0,0.66 0,1.32 0,2c0.66,0 1.32,0 2,0c0,0.66 0,1.32 0,2c-4.62,0 -9.24,0 -14,0c0,-0.66 0,-1.32 0,-2c1.32,0 2.64,0 4,0c0,-0.66 0,-1.32 0,-2z" fill="#A9EF39" id="svg_179" transform="translate(312,116)"/>
  <path d="m0,0c6.27,0 12.54,0 19,0c0,0.66 0,1.32 0,2c1.98,0 3.96,0 6,0c0,0.99 0,1.98 0,3c-0.99,0 -1.98,0 -3,0c0,-0.66 0,-1.32 0,-2c-1.98,0 -3.96,0 -6,0c0,-0.66 0,-1.32 0,-2c-4.29,0 -8.58,0 -13,0c0,0.66 0,1.32 0,2c-0.99,0 -1.98,0 -3,0c0,-0.99 0,-1.98 0,-3z" fill="#659572" id="svg_181" transform="translate(48,225)"/>
  <path d="m0,0c0.99,0 1.98,0 3,0c-0.66,2.64 -1.32,5.28 -2,8c0.66,0 1.32,0 2,0c0,0.66 0,1.32 0,2c0.66,0 1.32,0 2,0c0,3.3 0,6.6 0,10c-0.99,0 -1.98,0 -3,0c0,-1.32 0,-2.64 0,-4c0.66,0 1.32,0 2,0c0,-1.32 0,-2.64 0,-4c-0.66,0 -1.32,0 -2,0c0,-0.66 0,-1.32 0,-2c-0.66,0 -1.32,0 -2,0c0,-3.3 0,-6.6 0,-10z" fill="#89A9B3" id="svg_184" transform="translate(108,221)"/>
  <path d="m0,0c3.96,0 7.92,0 12,0c0,1.98 0,3.96 0,6c-0.66,0 -1.32,0 -2,0c0,-0.66 0,-1.32 0,-2c-1.32,0 -2.64,0 -4,0c0,-0.66 0,-1.32 0,-2c-1.98,0 -3.96,0 -6,0c0,-0.66 0,-1.32 0,-2z" fill="#39A708" id="svg_186" transform="translate(71,219)"/>
  <path d="m0,0c3.63,0 7.26,0 11,0c-0.33,0.99 -0.66,1.98 -1,3c-0.99,-0.33 -1.98,-0.66 -3,-1c0,0.66 0,1.32 0,2c-2.64,0 -5.28,0 -8,0c0.33,-1.32 0.66,-2.64 1,-4z" fill="#EBE6A5" id="svg_188" transform="translate(88,153)"/>
  <path d="m167,132c0.33,0.66 0.66,1.32 1,2c0.66,-0.33 1.32,-0.66 2,-1c1.88,-0.17 1.88,-0.17 4,-0.19c1.05,-0.02 1.05,-0.02 2.13,-0.04c1.87,0.23 1.87,0.23 3.87,2.23c-1,1 -1,1 -4.16,1.1c-1.93,-0.02 -1.93,-0.02 -3.9,-0.04c-1.29,-0.01 -2.58,-0.02 -3.91,-0.02c-1,-0.02 -2,-0.03 -3.03,-0.04c0,-0.66 0,-1.32 0,-2c0.66,0 1.32,0 2,0c0,-0.66 0,-1.32 0,-2z" fill="#D9D58B" id="svg_189" transform="matrix(1 0 0 1 0 0)"/>
  <path d="m0,0c0.66,0 1.32,0 2,0c0,6.93 0,13.86 0,21c-0.66,0 -1.32,0 -2,0c0,0.66 0,1.32 0,2c-0.99,0 -1.98,0 -3,0c1.87,-3.87 1.87,-3.87 3,-5c0.24,-2.53 0.42,-5.03 0.56,-7.56c0.05,-0.71 0.09,-1.42 0.13,-2.16c0.11,-1.76 0.21,-3.52 0.31,-5.28c-0.66,0 -1.32,0 -2,0c0.33,-0.99 0.66,-1.98 1,-3z" fill="#9DA7B1" id="svg_191" transform="translate(246,200)"/>
  <path d="m0,0c5.94,0 11.88,0 18,0c0,0.66 0,1.32 0,2c-5.94,0.33 -11.88,0.66 -18,1c0,-0.99 0,-1.98 0,-3z" fill="#C4C59A" id="svg_192" transform="translate(131,196)"/>
  <path d="m0,0c3.63,0 7.26,0 11,0c0,0.66 0,1.32 0,2c-3.3,0 -6.6,0 -10,0c0,1.98 0,3.96 0,6c0.66,0 1.32,0 2,0c0,0.99 0,1.98 0,3c-0.99,0 -1.98,0 -3,0c0,-3.63 0,-7.26 0,-11z" fill="#56A5DD" id="svg_195" transform="translate(320,260)"/>
  <path d="m0,0c0.66,0 1.32,0 2,0c0,1.32 0,2.64 0,4c-0.66,0 -1.32,0 -2,0c0,0.66 0,1.32 0,2c0.66,0 1.32,0 2,0c0.33,0.66 0.66,1.32 1,2c2.53,0.66 2.53,0.66 5,1c0,0.33 0,0.66 0,1c-2.64,0 -5.28,0 -8,0c0,-0.66 0,-1.32 0,-2c-0.66,0 -1.32,0 -2,0c0,-1.98 0,-3.96 0,-6c0.66,0 1.32,0 2,0c0,-0.66 0,-1.32 0,-2z" fill="#1E8418" id="svg_206" transform="translate(141,304)"/>
  <path d="m0,0c0.66,0 1.32,0 2,0c0,0.99 0,1.98 0,3c-0.66,0 -1.32,0 -2,0c0,1.32 0,2.64 0,4c-0.66,0 -1.32,0 -2,0c0,1.32 0,2.64 0,4c-0.66,0 -1.32,0 -2,0c0,1.32 0,2.64 0,4c-0.99,0 -1.98,0 -3,0c0,-0.66 0,-1.32 0,-2c0.66,0 1.32,0 2,0c0.08,-0.66 0.17,-1.32 0.25,-2c1,-3.99 2.82,-7.39 4.75,-11z" fill="#8DA8C1" id="svg_207" transform="translate(219,253)"/>
  <path d="m0,0c0.66,0 1.32,0 2,0c0,2.64 0,5.28 0,8c-1.24,0.04 -2.48,0.08 -3.75,0.13c-1.04,0.03 -1.04,0.03 -2.11,0.07c-2.14,-0.2 -2.14,-0.2 -6.14,-2.2c3.3,0 6.6,0 10,0c0,-1.98 0,-3.96 0,-6z" fill="#E2B641" id="svg_209" transform="translate(279,227)"/>
  <path d="m0,0c4.95,0.99 4.95,0.99 10,2c0,0.33 0,0.66 0,1c-2.64,0 -5.28,0 -8,0c0,2.64 0,5.28 0,8c-0.66,0 -1.32,0 -2,0c0,-3.63 0,-7.26 0,-11z" fill="#D7D2D7" id="svg_212" transform="translate(89,307)"/>
  <path d="m122,200c0.99,0 1.98,0 3,0c0,0.99 0,1.98 0,3c-0.66,0 -1.32,0 -2,0c0,0.66 0,1.32 0,2c-0.66,0 -1.32,0 -2,0c0,0.66 0,1.32 0,2c-0.66,0 -1.32,0 -2,0c0,0.66 0,1.32 0,2c-0.99,0 -1.98,0 -3,0c0,-0.66 0,-1.32 0,-2c0.66,0 1.32,0 2,0c0,-0.99 0,-1.98 0,-3c0.66,0 1.32,0 2,0c0,-0.66 0,-1.32 0,-2c0.66,0 1.32,0 2,0c0,-0.66 0,-1.32 0,-2z" fill="#80ADBF" id="svg_213"/>
  <path d="m0,0c4.12,1.85 6.34,3.51 8.19,7.69c0.27,0.76 0.53,1.52 0.81,2.31c-0.99,0.33 -1.98,0.66 -3,1c0,-1.32 0,-2.64 0,-4c-0.66,0 -1.32,0 -2,0c0,-0.66 0,-1.32 0,-2c-0.66,0 -1.32,0 -2,0c0,-0.66 0,-1.32 0,-2c-0.66,0 -1.32,0 -2,0c0,-0.99 0,-1.98 0,-3z" fill="#8CB9C9" id="svg_216" transform="translate(339,107)"/>
  <path d="m143,305c1.32,0 2.64,0 4,0c0,1.65 0,3.3 0,5c-0.66,0 -1.32,0 -2,0c0,0.66 0,1.32 0,2c-0.66,0 -1.32,0 -2,0c0,-0.66 0,-1.32 0,-2c-0.66,0 -1.32,0 -2,0c0,-0.66 0,-1.32 0,-2c0.66,0 1.32,0 2,0c0,-0.99 0,-1.98 0,-3z" fill="#32A108" id="svg_219" transform="matrix(1 0 0 1 0 0)"/>
  <path d="m0,0c1.32,0 2.64,0 4,0c0,0.66 0,1.32 0,2c0.66,0 1.32,0 2,0c0,1.65 0,3.3 0,5c-0.47,-0.47 -0.95,-0.95 -1.44,-1.44c-3.68,-2.24 -7.32,-2.3 -11.56,-2.56c0,-0.33 0,-0.66 0,-1c3.46,-0.5 3.46,-0.5 7,-1c0,-0.33 0,-0.66 0,-1z" fill="#7A9866" id="svg_220" transform="translate(94,299)"/>
  <path d="m0,0c3.3,0 6.6,0 10,0c0,0.99 0,1.98 0,3c-7.75,0.13 -7.75,0.13 -10,-1c0,-0.66 0,-1.32 0,-2z" fill="#5292CE" id="svg_222" transform="translate(321,266)"/>
  <path d="m0,0c5.94,0 11.88,0 18,0c0,0.99 0,1.98 0,3c-0.99,-0.33 -1.98,-0.66 -3,-1c-2.23,-0.22 -4.46,-0.41 -6.69,-0.56c-1.18,-0.09 -2.36,-0.17 -3.57,-0.26c-0.91,-0.06 -1.81,-0.12 -2.74,-0.18c0,0.66 0,1.32 0,2c-0.66,0 -1.32,0 -2,0c0,-0.99 0,-1.98 0,-3z" fill="#6E9A88" id="svg_224" transform="translate(265,287)"/>
  <path d="m0,0c0.99,0.33 1.98,0.66 3,1c-0.66,0 -1.32,0 -2,0c0,4.29 0,8.58 0,13c0.66,0 1.32,0 2,0c-0.33,1.32 -0.66,2.64 -1,4c-0.66,-0.33 -1.32,-0.66 -2,-1c0,-5.61 0,-11.22 0,-17z" fill="#5D9A70" id="svg_225" transform="translate(78,299)"/>
  <path d="m0,0c0.66,0.33 1.32,0.66 2,1c0,0.99 0,1.98 0,3c-0.66,0 -1.32,0 -2,0c0,2.31 0,4.62 0,7c0.66,0 1.32,0 2,0c0,0.99 0,1.98 0,3c-0.99,0 -1.98,0 -3,0c-0.03,-2.15 -0.05,-4.29 -0.06,-6.44c-0.01,-1.19 -0.03,-2.39 -0.04,-3.62c0.1,-2.94 0.1,-2.94 1.1,-3.94z" fill="#6C9E90" id="svg_227" transform="translate(242,226)"/>
  <path d="m0,0c0.66,0.33 1.32,0.66 2,1c0,3.63 0,7.26 0,11c-0.66,0 -1.32,0 -2,0c0,0.66 0,1.32 0,2c-0.99,0 -1.98,0 -3,0c0,-0.99 0,-1.98 0,-3c1.32,0 2.64,0 4,0c0,-2.64 0,-5.28 0,-8c-0.66,0 -1.32,0 -2,0c0.33,-0.99 0.66,-1.98 1,-3z" fill="#73A390" id="svg_229" transform="translate(346,191)"/>
  <path d="m0,0c0.99,0 1.98,0 3,0c0,0.99 0,1.98 0,3c-0.66,0 -1.32,0 -2,0c0,0.66 0,1.32 0,2c-0.66,0 -1.32,0 -2,0c0,0.66 0,1.32 0,2c-0.99,0 -1.98,0 -3,0c0,-0.99 0,-1.98 0,-3c0.66,0 1.32,0 2,0c0,-0.66 0,-1.32 0,-2c0.66,0 1.32,0 2,0c0,-0.66 0,-1.32 0,-2z" fill="#80A8BC" id="svg_231" transform="translate(241,241)"/>
  <path d="m0,0c0.99,0 1.98,0 3,0c0,0.99 0,1.98 0,3c-3.3,0 -6.6,0 -10,0c0,0.66 0,1.32 0,2c-0.99,0 -1.98,0 -3,0c0,-0.99 0,-1.98 0,-3c3.3,0 6.6,0 10,0c0,-0.66 0,-1.32 0,-2z" fill="#619B83" id="svg_232" transform="translate(41,227)"/>
  <path d="m303,283c0.99,0 1.98,0 3,0c0,0.99 0,1.98 0,3c-1.98,0 -3.96,0 -6,0c0,0.66 0,1.32 0,2c-0.66,0 -1.32,0 -2,0c0,0.66 0,1.32 0,2c-0.66,0 -1.32,0 -2,0c0,-0.99 0,-1.98 0,-3c0.66,0 1.32,0 2,0c0,-0.66 0,-1.32 0,-2c1.65,0 3.3,0 5,0c0,-0.66 0,-1.32 0,-2z" fill="#84A5B0" id="svg_235"/>
  <path d="m0,0c1.65,0 3.3,0 5,0c-0.33,1.32 -0.66,2.64 -1,4c-0.66,0 -1.32,0 -2,0c0,0.99 0,1.98 0,3c-0.66,0 -1.32,0 -2,0c0,-2.31 0,-4.62 0,-7z" fill="#80AF32" id="svg_245" transform="translate(83,134)"/>
  <path d="m0,0c0.99,0 1.98,0 3,0c-1.94,6.7 -1.94,6.7 -5,9c-0.66,0 -1.32,0 -2,0c0,-0.99 0,-1.98 0,-3c0.66,0 1.32,0 2,0c0,-0.66 0,-1.32 0,-2c0.66,0 1.32,0 2,0c0,-1.32 0,-2.64 0,-4z" fill="#8EB4CC" id="svg_246" transform="translate(275,52)"/>
  <path d="m0,0c0.99,0 1.98,0 3,0c0,4.29 0,8.58 0,13c-0.99,0 -1.98,0 -3,0c0,-0.66 0,-1.32 0,-2c0.66,0 1.32,0 2,0c0,-2.64 0,-5.28 0,-8c-0.66,0 -1.32,0 -2,0c0,-0.99 0,-1.98 0,-3z" fill="#719696" id="svg_247" transform="translate(114,241)"/>
  <path d="m0,0c1.32,0.33 2.64,0.66 4,1c-0.33,0.66 -0.66,1.32 -1,2c-0.66,0 -1.32,0 -2,0c0,0.66 0,1.32 0,2c-0.66,0 -1.32,0 -2,0c0,0.66 0,1.32 0,2c-0.66,0 -1.32,0 -2,0c0.33,-1.65 0.66,-3.3 1,-5c0.66,0 1.32,0 2,0c0,-0.66 0,-1.32 0,-2z" fill="#79ACB0" id="svg_248" transform="translate(6,237)"/>
  <path d="m0,0c0.99,0.33 1.98,0.66 3,1c0,0.66 0,1.32 0,2c-0.66,0 -1.32,0 -2,0c0,4.62 0,9.24 0,14c-0.33,0 -0.66,0 -1,0c0,-5.61 0,-11.22 0,-17z" fill="#A8ABA4" id="svg_249" transform="translate(149,192)"/>
  <path d="m0,0c1.32,0.33 2.64,0.66 4,1c0,0.66 0,1.32 0,2c0.66,0 1.32,0 2,0c0,1.32 0,2.64 0,4c-0.99,0 -1.98,0 -3,0c-3,-4.22 -3,-4.22 -3,-7z" fill="#9FC3DF" id="svg_250" transform="translate(184,203)"/>
  <path d="m0,0c3.63,0 7.26,0 11,0c0,0.33 0,0.66 0,1c-1.98,0 -3.96,0 -6,0c0,0.66 0,1.32 0,2c-1.65,0 -3.3,0 -5,0c0,-0.99 0,-1.98 0,-3z" fill="#E7B737" id="svg_251" transform="translate(84,269)"/>
  <path d="m0,0c0.99,0 1.98,0 3,0c-0.81,1.94 -0.81,1.94 -2,4c-0.99,0.33 -1.98,0.66 -3,1c0,0.66 0,1.32 0,2c-0.66,0 -1.32,0 -2,0c0,-0.99 0,-1.98 0,-3c0.66,0 1.32,0 2,0c0,-0.66 0,-1.32 0,-2c0.66,0 1.32,0 2,0c0,-0.66 0,-1.32 0,-2z" fill="#91BBD0" id="svg_252" transform="translate(108,264)"/>
  <path d="m0,0c0.99,0 1.98,0 3,0c0,0.99 0,1.98 0,3c-1.98,0 -3.96,0 -6,0c0,0.66 0,1.32 0,2c-0.99,0 -1.98,0 -3,0c0,-0.99 0,-1.98 0,-3c1.98,0 3.96,0 6,0c0,-0.66 0,-1.32 0,-2z" fill="#71A29E" id="svg_254" transform="translate(229,249)"/>
  <path d="m0,0c0.99,0 1.98,0 3,0c0,0.66 0,1.32 0,2c1.98,0 3.96,0 6,0c0,0.99 0,1.98 0,3c-0.99,0 -1.98,0 -3,0c0,-0.66 0,-1.32 0,-2c-1.98,0 -3.96,0 -6,0c0,-0.99 0,-1.98 0,-3z" fill="#79A7A7" id="svg_255" transform="translate(64,225)"/>
  <path d="m0,0c3.63,0.66 7.26,1.32 11,2c-0.33,0.99 -0.66,1.98 -1,3c-0.66,0 -1.32,0 -2,0c0,-0.66 0,-1.32 0,-2c-2.64,0 -5.28,0 -8,0c0,-0.99 0,-1.98 0,-3z" fill="#73A59D" id="svg_259" transform="translate(273,76)"/>
  <path d="m0,0c1.98,0 3.96,0 6,0c0,1.32 0,2.64 0,4c-1.32,0 -2.64,0 -4,0c0,-0.66 0,-1.32 0,-2c-0.66,0 -1.32,0 -2,0c0,-0.66 0,-1.32 0,-2z" fill="#39A608" id="svg_261" transform="translate(209,285)"/>
  <path d="m0,0c0.99,0 1.98,0 3,0c0,0.66 0,1.32 0,2c0.66,0 1.32,0 2,0c0,1.32 0,2.64 0,4c-0.99,0 -1.98,0 -3,0c0,-0.99 0,-1.98 0,-3c-0.66,0 -1.32,0 -2,0c0,-0.99 0,-1.98 0,-3z" fill="#85A8C8" id="svg_263" transform="translate(74,229)"/>
  <path d="m0,0c0.99,0.33 1.98,0.66 3,1c0,0.66 0,1.32 0,2c-0.66,0 -1.32,0 -2,0c-0.12,0.64 -0.25,1.28 -0.37,1.94c-0.21,0.68 -0.42,1.36 -0.63,2.06c-0.99,0.5 -0.99,0.5 -2,1c-0.66,-0.66 -1.32,-1.32 -2,-2c0.66,0 1.32,0 2,0c0,-0.66 0,-1.32 0,-2c0.66,0 1.32,0 2,0c0,-1.32 0,-2.64 0,-4z" fill="#87B3BA" id="svg_267" transform="translate(345,124)"/>
  <path d="m0,0c0.99,0 1.98,0 3,0c0,0.99 0,1.98 0,3c-1.32,0 -2.64,0 -4,0c0,0.66 0,1.32 0,2c-0.99,0 -1.98,0 -3,0c0,-0.99 0,-1.98 0,-3c1.32,0 2.64,0 4,0c0,-0.66 0,-1.32 0,-2z" fill="#79A7B0" id="svg_268" transform="translate(260,289)"/>
  <path d="m0,0c3.96,0 7.92,0 12,0c0,0.66 0,1.32 0,2c-1.32,0.33 -2.64,0.66 -4,1c0,-0.66 0,-1.32 0,-2c-2.64,0 -5.28,0 -8,0c0,-0.33 0,-0.66 0,-1z" fill="#4A918A" id="svg_271" transform="translate(141,303)"/>
  <path d="m0,0c0.99,0 1.98,0 3,0c0,0.66 0,1.32 0,2c-4.46,1.48 -4.46,1.48 -9,3c0,-0.99 0,-1.98 0,-3c1.98,0 3.96,0 6,0c0,-0.66 0,-1.32 0,-2z" fill="#81B4CC" id="svg_272" transform="translate(316,279)"/>
  <path d="m0,0c0.99,0 1.98,0 3,0c0,0.99 0,1.98 0,3c-0.66,0 -1.32,0 -2,0c0.33,2.64 0.66,5.28 1,8c-0.66,0 -1.32,0 -2,0c0,-3.63 0,-7.26 0,-11z" fill="#4B9A64" id="svg_273" transform="translate(66,239)"/>
  <path d="m0,0c0.33,0.66 0.66,1.32 1,2c3.03,0.66 3.03,0.66 6,1c0,0.33 0,0.66 0,1c-3.3,0 -6.6,0 -10,0c0,-0.66 0,-1.32 0,-2c0.99,0 1.98,0 3,0c0,-0.66 0,-1.32 0,-2z" fill="#D59D0F" id="svg_274" transform="translate(266,231)"/>
  <path d="m0,0c1.32,0 2.64,0 4,0c0,0.99 0,1.98 0,3c0.99,0 1.98,0 3,0c-0.33,0.99 -0.66,1.98 -1,3c-0.33,-0.66 -0.66,-1.32 -1,-2c-0.99,-0.22 -0.99,-0.22 -2,-0.44c-0.66,-0.18 -1.32,-0.37 -2,-0.56c-0.33,-0.99 -0.66,-1.98 -1,-3z" fill="#78B6A1" id="svg_275" transform="translate(187,214)"/>
  <path d="m0,0c0.33,0 0.66,0 1,0c0,2.64 0,5.28 0,8c0.66,0 1.32,0 2,0c0,0.99 0,1.98 0,3c-0.99,0 -1.98,0 -3,0c0,-3.63 0,-7.26 0,-11z" fill="#78A9BD" id="svg_277" transform="translate(320,260)"/>
  <path d="m0,0c0.99,0 1.98,0 3,0c0,0.66 0,1.32 0,2c0.66,0 1.32,0 2,0c0,0.99 0,1.98 0,3c-0.99,0 -1.98,0 -3,0c0,-0.66 0,-1.32 0,-2c-0.66,0 -1.32,0 -2,0c0,-0.99 0,-1.98 0,-3z" fill="#7AABB8" id="svg_279" transform="translate(229,192)"/>
  <path d="m0,0c0.99,0 1.98,0 3,0c0,0.66 0,1.32 0,2c0.66,0 1.32,0 2,0c0,0.99 0,1.98 0,3c-0.99,0 -1.98,0 -3,0c0,-0.66 0,-1.32 0,-2c-0.66,0 -1.32,0 -2,0c0,-0.99 0,-1.98 0,-3z" fill="#7AABB8" id="svg_280" transform="translate(163,192)"/>
  <rect fill="#80ADBF" height="0" id="svg_305" width="0" x="167.12" y="205.16"/>
  <rect class="mapLocation road" fill="#DA9F02" height="49.14" id="Route 1" width="16.5" x="82.97" y="209.64"/>
  <rect class="mapLocation road" fill="#DA9F02" height="66.09" id="Route 2" transform="matrix(1 0 0 1 0 0)" width="16.5" x="82.97" y="143.61"/>
  <rect class="mapLocation road" fill="#DA9F02" height="16.5" id="Route 3" transform="matrix(1 0 0 1 0 0)" width="82.3" x="82.71" y="136.38"/>
  <rect class="mapLocation road" fill="#DA9F02" height="16.5" id="Route 4" transform="matrix(1 0 0 1 0 0)" width="105.44" x="149.25" y="120.27"/>
  <rect class="mapLocation road" fill="#DA9F02" height="47.29" id="Route 5" width="16.5" x="247.38" y="129.56"/>
  <rect class="mapLocation road" fill="#DA9F02" height="57.62" id="Route 6" transform="matrix(1 0 0 1 0 0)" width="16.5" x="248.21" y="177.91"/>
  <rect class="mapLocation road" fill="#DA9F02" height="16.5" id="Route 7" transform="matrix(1 0 0 1 0 0)" width="64.94" x="256.48" y="169.23"/>
  <rect class="mapLocation road" fill="#DA9F02" height="16.5" id="Route 8" transform="matrix(1 0 0 1 0 0)" width="50.27" x="206.67" y="169"/>
  <rect class="mapLocation road" fill="#DA9F02" height="16.5" id="Route 9" transform="matrix(1 0 0 1 0 0)" width="73.5" x="257.13" y="120.06"/>
  <rect class="mapLocation road" fill="#DA9F02" height="40.47" id="Route 10" transform="matrix(1 0 0 1 0 0)" width="16.5" x="314.17" y="136.38"/>
  <rect class="mapLocation road" fill="#DA9F02" height="16.5" id="Route 11" transform="matrix(1 0 0 1 0 0)" width="56.68" x="257.5" y="219.15"/>
  <rect class="mapLocation road" fill="#DA9F02" height="81.8" id="Route 12" transform="matrix(1 0 0 1 0 0)" width="16.5" x="314.22" y="186.46"/>
  <rect class="mapLocation road" fill="#DA9F02" height="16.5" id="Route 13" transform="matrix(1 0 0 1 0 0)" width="33.95" x="280.53" y="251.71"/>
  <rect class="mapLocation road" fill="#DA9F02" height="33.33" id="Route 14" transform="matrix(1 0 0 1 0 0)" width="16.5" x="264.12" y="251.62"/>
  <rect class="mapLocation road" fill="#DA9F02" height="16.5" id="Route 15" transform="matrix(1 0 0 1 0 0)" width="40.31" x="223.9" y="268.58"/>
  <rect class="mapLocation road" fill="#DA9F02" height="16.5" id="Route 16" transform="matrix(1 0 0 1 0 0)" width="74.86" x="132.45" y="169.56"/>
  <rect class="mapLocation road CyclingRoad" fill="#DA9F02" height="82.41" id="Route 17" transform="matrix(1 0 0 1 0 0)" width="16.5" x="132.56" y="185.96"/>
  <rect class="mapLocation road" fill="#DA9F02" height="16.5" id="Route 18" transform="matrix(1 0 0 1 0 0)" width="82" x="132.56" y="268.05"/>
  <rect class="mapLocation road" fill="#DA9F02" height="16.5" id="Route 22" transform="matrix(1 0 0 1 0 0)" width="25.07" x="66.39" y="202.29"/>
  <rect class="mapLocation road sea " fill="#569AD1" height="40.47" id="Sea Route 21" transform="matrix(1 0 0 1 0 0)" width="16.5" x="82.76" y="258.28"/>
  <rect class="mapLocation road sea" fill="#569AD1" height="18.3" id="Sea Route 20" transform="matrix(1 0 0 1 0 0)" width="53.32" x="103.94" y="300.95"/>
  <rect class="mapLocation road" fill="#DA9F02" height="81.58" id="Route 23" transform="matrix(1 0 0 1 0 0)" width="16.5" x="50.07" y="137.2"/>
  <rect class="mapLocation road" fill="#DA9F02" height="26.42" id="Route 24" transform="matrix(1 0 0 1 0 0)" width="16.8" x="247.94" y="103.49"/>
  <rect class="mapLocation road" fill="#DA9F02" height="16.5" id="Route 25" transform="matrix(1 0 0 1 0 0)" width="49.03" x="247.8" y="87.2"/>
  <path d="m331,213c0.66,0 1.32,0 2,0c-0.33,0.99 -0.66,1.98 -1,3c-0.12,1.73 -0.18,3.47 -0.21,5.21c-0.02,1.06 -0.04,2.12 -0.06,3.21c-0.01,1.14 -0.03,2.29 -0.05,3.47c-0.02,1.17 -0.04,2.34 -0.06,3.55c-0.06,3.75 -0.12,7.5 -0.18,11.25c-0.05,2.54 -0.09,5.08 -0.13,7.62c-0.11,6.23 -0.21,12.46 -0.31,18.69c-2.64,0 -5.28,0 -8,0c0,0.66 0,1.32 0,2c-0.99,0 -1.98,0 -3,0c0,-3.63 0,-7.26 0,-11c-0.66,0 -1.32,0 -2,0c0,-3.3 0,-6.6 0,-10c-0.66,0 -1.32,0 -2,0c0,-3.63 0,-7.26 0,-11c0.66,0 1.32,0 2,0c0,-2.64 0,-5.28 0,-8c0.66,0 1.32,0 2,0c0,-1.98 0,-3.96 0,-6c0.66,0 1.32,0 2,0c0,-0.66 0,-1.32 0,-2c0.66,0 1.32,0 2,0c0,-0.66 0,-1.32 0,-2c0.66,0 1.32,0 2,0c0,-1.32 0,-2.64 0,-4c0.66,0 1.32,0 2,0c0,-0.66 0,-1.32 0,-2c0.99,0 1.98,0 3,0c0,-0.66 0,-1.32 0,-2z" fill="#569AD1" id="svg_45" transform="matrix(1 0 0 1 0 0)"/>
  <path d="m139,191.82c3.96,0 7.92,0 12,0c0.33,0.99 0.66,1.98 1,3c-0.66,0 -1.32,0 -2,0c0,23.43 0,46.86 0,71c0.66,0 1.32,0 2,0c0,0.66 0,1.32 0,2c19.8,0 39.6,0 60,0c0,-0.66 0,-1.32 0,-2c0.66,0 1.32,0 2,0c0.08,-0.66 0.17,-1.32 0.25,-2c1,-3.99 2.82,-7.39 4.75,-11c0.66,0 1.32,0 2,0c0,0.99 0,1.98 0,3c-0.66,0 -1.32,0 -2,0c0,1.32 0,2.64 0,4c-0.66,0 -1.32,0 -2,0c0,1.32 0,2.64 0,4c-0.66,0 -1.32,0 -2,0c0,1.32 0,2.64 0,4c-0.66,0 -1.32,0 -2,0c0,0.66 0,1.32 0,2c-0.66,0 -1.32,0 -2,0c0,2.31 0,4.62 0,7c-0.66,0 -1.32,0 -2,0c0,1.32 0,2.64 0,4c-0.66,0 -1.32,0 -2,0c0,0.66 0,1.32 0,2c-0.66,0 -1.32,0 -2,0c0,0.66 0,1.32 0,2c-0.66,0 -1.32,0 -2,0c-0.49,1.48 -0.49,1.48 -1,3c-0.66,0 -1.32,0 -2,0c0,-0.66 0,-1.32 0,-2c-0.84,0 -1.67,0 -2.54,0.01c-7.87,0.02 -15.74,0.03 -23.62,0.04c-4.04,0.01 -8.09,0.01 -12.14,0.03c-3.9,0.01 -7.81,0.01 -11.71,0.01c-1.49,0.01 -2.98,0.01 -4.48,0.02c-2.08,0 -4.16,0 -6.25,0c-1.18,0.01 -2.37,0.01 -3.6,0.01c-2.66,-0.12 -2.66,-0.12 -3.66,-1.12c-0.13,-2.77 -0.19,-5.51 -0.21,-8.28c-0.01,-0.87 -0.02,-1.74 -0.03,-2.63c-0.03,-2.89 -0.05,-5.77 -0.08,-8.66c-0.02,-1.99 -0.04,-3.98 -0.06,-5.98c-0.05,-5.26 -0.1,-10.52 -0.15,-15.78c-0.05,-5.36 -0.11,-10.72 -0.16,-16.08c-0.11,-10.53 -0.21,-21.06 -0.31,-31.59c0.66,0 1.32,0 2,0c0,-0.66 0,-1.32 0,-2c1.98,0 3.96,0 6,0c0,-0.66 0,-1.32 0,-2z" fill="#cac581" id="svg_13" transform="matrix(1 0 0 1 0 0)"/>
  <ellipse class="mapLocation city" cx="57.76" cy="128.8" fill="#ED320E" id="fff" rx="8.5" ry="8.5" stroke="#9c9c9c" stroke-width="2" transform="matrix(1 0 0 1 0 0)"/>
  <ellipse class="mapLocation city" cx="256.25" cy="226.53" fill="#ED320E" id="Vermilion City" rx="8.5" ry="8.5" stroke="#9c9c9c" stroke-width="2" transform="matrix(1 0 0 1 0 0)"/>
  <ellipse class="mapLocation city" cx="207.02" cy="177.55" fill="#ED320E" id="Celadon City" rx="8.5" ry="8.5" stroke="#9c9c9c" stroke-width="2" transform="matrix(1 0 0 1 0 0)"/>
  <ellipse class="mapLocation city" cx="256.28" cy="177.61" fill="#ED320E" id="Saffron City" rx="8.5" ry="8.5" stroke="#9c9c9c" stroke-width="2" transform="matrix(1 0 0 1 0 0)"/>
  <ellipse class="mapLocation city" cx="321.47" cy="177.45" fill="#ED320E" id="Lavender Town" rx="8.5" ry="8.5" stroke="#9c9c9c" stroke-width="2" transform="matrix(1 0 0 1 0 0)"/>
  <ellipse class="mapLocation city" cx="92.26" cy="310.33" fill="#ED320E" id="Cinnabar Island" rx="8.5" ry="8.5" stroke="#9c9c9c" stroke-width="2" transform="matrix(1 0 0 1 0 0)"/>
  <ellipse class="mapLocation city" cx="256.11" cy="128.26" fill="#ED320E" id="Cerulean City" rx="8.5" ry="8.5" stroke="#9c9c9c" stroke-width="2" transform="matrix(1 0 0 1 0 0)"/>
  <ellipse class="mapLocation city" cx="91.79" cy="144.98" fill="#ED320E" id="Pewter City" rx="8.5" ry="8.5" stroke="#9c9c9c" stroke-width="2" transform="matrix(1 0 0 1 0 0)"/>
  <ellipse class="mapLocation city" cx="91.71" cy="257.34" fill="#ED320E" id="Pallet Town" rx="8.5" ry="8.5" stroke="#9c9c9c" stroke-width="2" transform="matrix(1 0 0 1 0 0)"/>
  <ellipse class="mapLocation city" cx="58.02" cy="128.8" fill="#ED320E" id="Indigo Plateau" rx="8.5" ry="8.5" stroke="#9c9c9c" stroke-width="2"/>
  <ellipse class="mapLocation city" cx="223.51" cy="276.9" fill="#ED320E" id="Fuchsia City" rx="8.5" ry="8.5" stroke="#9c9c9c" stroke-width="2" transform="matrix(1 0 0 1 0 0)"/>
  <ellipse class="mapLocation city" cx="90.97" cy="210.33" fill="#ED320E" id="Viridian City" rx="8.5" ry="8.5" stroke="#9c9c9c" stroke-width="2" transform="matrix(1 0 0 1 0 0)"/>
  <rect class="mapLocation special" fill="#6380D9" height="11" id="Rock Tunnel" stroke="#cccccc" stroke-width="2" transform="matrix(1 0 0 1 0 0)" width="11" x="316.68" y="122.8"/>
  <rect class="mapLocation special" fill="#6380D9" height="11" id="Power Plant" stroke="#cccccc" stroke-width="2" transform="matrix(1 0 0 1 0 0)" width="11" x="316.77" y="138.14"/>
  <rect class="mapLocation special" fill="#6380D9" height="11" id="Mt. Moon" stroke="#cccccc" stroke-width="2" transform="matrix(1 0 0 1 0 0)" width="11" x="167.68" y="122.38"/>
  <rect class="mapLocation special" fill="#6380D9" height="11" id="Cerulean Cave" stroke="#cccccc" stroke-width="2" transform="matrix(1 0 0 1 0 0)" width="11" x="254.95" y="126.62"/>
  <rect class="mapLocation special" fill="#6380D9" height="11" id="Victory Road" stroke="#cccccc" stroke-width="2" transform="matrix(1 0 0 1 0 0)" width="11" x="52.47" y="139.85"/>
  <rect class="mapLocation special" fill="#6380D9" height="11" id="Safari Zone" stroke="#cccccc" stroke-width="2" transform="matrix(1 0 0 1 0 0)" width="11" x="221.92" y="275.11"/>
  <rect class="mapLocation special" fill="#6380D9" height="11" id="Pokmon Tower" stroke="#cccccc" stroke-width="2" width="11" x="321.02" y="176.62"/>
  <rect class="mapLocation special" fill="#6380D9" height="11" id="Diglett&#x27;s Cave" stroke="#cccccc" stroke-width="2" width="11" x="266.77" y="221.17"/>
  <rect class="mapLocation special" fill="#6380D9" height="11" id="Seafoam Islands" stroke="#cccccc" stroke-width="2" transform="matrix(1 0 0 1 0 0)" width="11" x="152.23" y="304.5"/>
  <rect class="mapLocation special" fill="#6380D9" height="11" id="Viridian Forest" stroke="#cccccc" stroke-width="2" transform="matrix(1 0 0 1 0 0)" width="11" x="85.94" y="171.4"/>
  <rect class="mapLocation special" fill="#6380D9" height="11" id="Pokmon Mansion" stroke="#cccccc" stroke-width="2" transform="matrix(1 0 0 1 0 0)" width="11" x="90.41" y="309.35"/>
  <rect class="mapLocation special" fill="#6380D9" height="11" id="Diglett&#x27;s Cave" stroke="#cccccc" stroke-width="2" transform="matrix(1 0 0 1 0 0)" width="11" x="85.4" y="155.1"/>
 </g>
</svg>