<?xml version="1.0" standalone="no"?>
<!DOCTYPE svg PUBLIC "-//W3C//DTD SVG 20010904//EN"
 "http://www.w3.org/TR/2001/REC-SVG-20010904/DTD/svg10.dtd">
<svg version="1.0" xmlns="http://www.w3.org/2000/svg"
 width="350.000000pt" height="350.000000pt" viewBox="0 0 350.000000 350.000000"
 preserveAspectRatio="xMidYMid meet">

<g transform="translate(0.000000,350.000000) scale(0.100000,-0.100000)"
fill="#000000" stroke="none">
<path d="M27 3103 c-4 -3 -7 -90 -7 -192 0 -180 10 -261 31 -261 16 0 39 27
39 44 0 9 5 16 10 16 6 0 10 7 10 16 0 9 20 35 45 58 25 25 45 52 45 64 0 11
5 24 10 27 6 3 10 19 10 36 0 16 5 29 10 29 6 0 10 9 10 20 0 13 7 20 20 20
11 0 20 5 20 10 0 6 7 10 15 10 23 0 85 66 85 90 0 19 -6 20 -173 20 -96 0
-177 -3 -180 -7z"/>
<path d="M2693 3103 c-7 -2 -13 -16 -13 -29 0 -13 -4 -24 -10 -24 -5 0 -10 -9
-10 -20 0 -11 -4 -20 -10 -20 -5 0 -10 -11 -10 -25 0 -16 -6 -25 -15 -25 -25
0 -65 -46 -65 -75 0 -14 -4 -25 -10 -25 -6 0 -10 -30 -10 -70 0 -40 -4 -70
-10 -70 -5 0 -10 -8 -10 -18 0 -10 -9 -24 -20 -32 -11 -8 -20 -20 -20 -27 0
-7 -8 -13 -17 -13 -29 0 -73 -44 -73 -74 0 -14 -4 -26 -10 -26 -6 0 -10 -30
-10 -70 0 -40 -4 -70 -10 -70 -5 0 -10 -7 -10 -15 0 -9 -9 -25 -20 -37 -11
-12 -20 -25 -20 -30 0 -4 38 -8 85 -8 l85 0 0 165 0 165 240 0 c132 0 240 4
240 9 0 9 -67 31 -175 57 -78 19 -125 46 -125 73 0 33 41 149 61 172 11 13 22
34 25 48 2 14 9 40 14 57 17 53 13 64 -22 63 -18 0 -39 -3 -45 -6z"/>
<path d="M2980 2540 l0 -70 -165 0 -165 0 0 -85 0 -85 30 0 c17 0 30 5 30 10
0 6 9 10 20 10 11 0 20 5 20 10 0 6 8 10 18 10 10 0 24 9 32 20 9 13 26 20 47
20 18 0 33 5 33 10 0 6 18 10 40 10 22 0 40 5 40 10 0 6 18 10 40 10 22 0 40
5 40 10 0 6 27 10 60 10 33 0 60 4 60 10 0 10 -18 15 -84 24 -21 3 -49 12 -62
21 -22 14 -24 20 -18 65 5 34 3 50 -5 50 -7 0 -11 -25 -11 -70z"/>
<path d="M3220 2435 c0 -10 10 -15 30 -15 17 0 30 -4 30 -10 0 -5 7 -10 15
-10 20 0 65 -45 65 -65 0 -8 5 -15 10 -15 6 0 10 -18 10 -40 0 -22 -4 -40 -10
-40 -5 0 -10 -13 -10 -30 0 -16 -4 -30 -10 -30 -6 0 -10 -26 -10 -59 0 -36 -5
-61 -11 -63 -8 -3 -14 -49 -17 -133 -2 -72 -8 -135 -12 -140 -8 -10 11 -45 24
-45 3 0 6 21 6 48 0 50 32 151 51 163 11 6 9 56 -6 140 -7 37 18 104 51 137
39 39 29 98 -27 151 -57 56 -179 94 -179 56z"/>
<path d="M511 2284 c-18 -21 -6 -30 14 -11 8 9 15 18 15 21 0 11 -15 5 -29
-10z"/>
<path d="M2491 2284 c-18 -21 -6 -30 14 -11 8 9 15 18 15 21 0 11 -15 5 -29
-10z"/>
<path d="M580 2270 c0 -5 5 -10 10 -10 14 0 13 -33 -2 -48 -16 -16 -45 -15
-51 1 -3 8 -7 7 -12 -5 -10 -25 17 -48 57 -48 19 0 40 -6 47 -12 10 -11 11 -9
5 6 -4 10 -2 21 3 25 6 3 12 29 15 56 3 28 3 44 1 38 -6 -15 -33 -17 -33 -3 0
6 -9 10 -20 10 -11 0 -20 -4 -20 -10z"/>
<path d="M2560 2274 c0 -13 30 -34 48 -34 19 0 38 27 27 38 -3 3 -5 0 -5 -6 0
-7 -7 -12 -15 -12 -8 0 -15 5 -15 10 0 6 -9 10 -20 10 -11 0 -20 -3 -20 -6z"/>
<path d="M1700 2244 c0 -8 5 -12 10 -9 6 3 10 10 10 16 0 5 -4 9 -10 9 -5 0
-10 -7 -10 -16z"/>
<path d="M1755 2251 c-6 -11 9 -23 19 -14 9 9 7 23 -3 23 -6 0 -12 -4 -16 -9z"/>
<path d="M3190 2244 c0 -8 5 -12 10 -9 6 4 8 11 5 16 -9 14 -15 11 -15 -7z"/>
<path d="M3240 2251 c0 -6 5 -13 10 -16 6 -3 10 1 10 9 0 9 -4 16 -10 16 -5 0
-10 -4 -10 -9z"/>
<path d="M2500 2204 c0 -15 23 -44 34 -44 12 0 6 32 -8 46 -19 18 -26 18 -26
-2z"/>
<path d="M2570 2199 c0 -5 5 -7 10 -4 6 3 10 8 10 11 0 2 -4 4 -10 4 -5 0 -10
-5 -10 -11z"/>
<path d="M2625 2200 c3 -5 8 -10 11 -10 2 0 4 5 4 10 0 6 -5 10 -11 10 -5 0
-7 -4 -4 -10z"/>
<path d="M3246 2201 c-4 -7 -5 -15 -2 -18 9 -9 19 4 14 18 -4 11 -6 11 -12 0z"/>
<path d="M1700 2190 c0 -5 5 -10 10 -10 6 0 10 5 10 10 0 6 -4 10 -10 10 -5 0
-10 -4 -10 -10z"/>
<path d="M1755 2190 c-3 -5 1 -10 9 -10 9 0 16 5 16 10 0 6 -4 10 -9 10 -6 0
-13 -4 -16 -10z"/>
<path d="M3190 2190 c0 -5 5 -10 11 -10 5 0 7 5 4 10 -3 6 -8 10 -11 10 -2 0
-4 -4 -4 -10z"/>
<path d="M2626 2155 c-3 -8 -1 -15 4 -15 6 0 10 7 10 15 0 8 -2 15 -4 15 -2 0
-6 -7 -10 -15z"/>
<path d="M2570 2150 c0 -5 5 -10 11 -10 5 0 7 5 4 10 -3 6 -8 10 -11 10 -2 0
-4 -4 -4 -10z"/>
<path d="M2088 2112 c-16 -15 -28 -37 -28 -49 0 -12 -4 -25 -10 -28 -5 -3 -10
-37 -10 -76 0 -39 -4 -69 -10 -69 -5 0 -10 -7 -10 -16 0 -9 -10 -25 -22 -35
-21 -19 -21 -20 -2 -33 10 -8 21 -10 22 -5 5 14 89 11 96 -3 5 -10 7 -10 12 0
4 9 50 12 180 12 l174 0 0 165 0 165 -182 -1 -183 0 -27 -27z"/>
<path d="M918 2103 c16 -6 15 -41 -2 -59 -18 -17 -43 -18 -49 -1 -2 6 -8 8
-13 4 -4 -4 -2 -17 5 -28 7 -12 10 -24 6 -27 -3 -4 -10 0 -15 8 -5 8 -12 11
-16 8 -3 -4 2 -15 12 -25 12 -13 19 -14 22 -5 5 16 88 16 96 0 3 -7 3 -3 0 10
-6 23 11 32 19 10 2 -7 2 10 0 37 -6 53 -23 76 -57 74 -12 0 -15 -3 -8 -6z"/>
<path d="M550 2079 c0 -5 5 -7 10 -4 6 3 10 8 10 11 0 2 -4 4 -10 4 -5 0 -10
-5 -10 -11z"/>
<path d="M600 2080 c0 -5 5 -10 10 -10 6 0 10 5 10 10 0 6 -4 10 -10 10 -5 0
-10 -4 -10 -10z"/>
<path d="M3190 2079 c0 -5 5 -7 10 -4 6 3 10 8 10 11 0 2 -4 4 -10 4 -5 0 -10
-5 -10 -11z"/>
<path d="M3235 2080 c3 -5 10 -10 16 -10 5 0 9 5 9 10 0 6 -7 10 -16 10 -8 0
-12 -4 -9 -10z"/>
<path d="M550 2024 c0 -8 5 -12 10 -9 6 4 8 11 5 16 -9 14 -15 11 -15 -7z"/>
<path d="M605 2031 c-3 -5 -1 -12 5 -16 5 -3 10 1 10 9 0 18 -6 21 -15 7z"/>
<path d="M3190 2024 c0 -8 5 -12 10 -9 6 4 8 11 5 16 -9 14 -15 11 -15 -7z"/>
<path d="M3245 2031 c-3 -5 -1 -12 5 -16 5 -3 10 1 10 9 0 18 -6 21 -15 7z"/>
<path d="M2650 1890 l0 -80 245 0 245 0 0 30 c0 17 -4 30 -10 30 -5 0 -10 -4
-10 -10 0 -5 -16 -10 -35 -10 -19 0 -35 -4 -35 -10 0 -5 -16 -10 -35 -10 -19
0 -35 5 -35 10 0 6 -8 10 -18 10 -10 0 -24 9 -32 20 -8 12 -26 20 -42 20 -15
0 -28 5 -28 10 0 6 -16 10 -35 10 -19 0 -35 5 -35 10 0 6 -13 10 -30 10 -16 0
-30 5 -30 10 0 6 -9 10 -20 10 -11 0 -20 5 -20 10 0 6 -9 10 -20 10 -18 0 -20
-7 -20 -80z"/>
<path d="M880 1914 c0 -8 5 -12 10 -9 6 4 8 11 5 16 -9 14 -15 11 -15 -7z"/>
<path d="M930 1921 c0 -6 5 -13 10 -16 6 -3 10 1 10 9 0 9 -4 16 -10 16 -5 0
-10 -4 -10 -9z"/>
<path d="M936 1871 c-4 -7 -5 -15 -2 -18 9 -9 19 4 14 18 -4 11 -6 11 -12 0z"/>
<path d="M880 1860 c0 -5 5 -10 11 -10 5 0 7 5 4 10 -3 6 -8 10 -11 10 -2 0
-4 -4 -4 -10z"/>
<path d="M2505 1800 c-3 -5 -1 -10 4 -10 6 0 11 5 11 10 0 6 -2 10 -4 10 -3 0
-8 -4 -11 -10z"/>
<path d="M3165 1800 c-3 -5 -1 -10 4 -10 6 0 11 5 11 10 0 6 -2 10 -4 10 -3 0
-8 -4 -11 -10z"/>
<path d="M2078 1768 c16 -16 15 -36 -2 -54 -17 -16 -46 -19 -46 -4 0 6 -4 10
-10 10 -15 0 -12 -29 4 -46 18 -17 82 -19 89 -1 4 9 8 8 16 -3 5 -8 14 -11 18
-6 4 5 2 11 -4 13 -16 6 -17 90 -2 95 6 2 -8 4 -32 5 -32 2 -39 -1 -31 -9z"/>
<path d="M2568 1773 c16 -6 15 -41 -2 -59 -18 -17 -43 -18 -49 -1 -2 6 -8 8
-13 4 -4 -4 -2 -17 5 -28 7 -12 10 -24 6 -27 -3 -4 -10 0 -15 8 -5 8 -12 11
-16 8 -3 -4 2 -15 12 -25 12 -13 19 -14 22 -5 5 16 88 16 96 0 3 -7 3 -3 0 10
-5 22 11 32 18 10 3 -9 6 -9 12 0 4 7 2 12 -3 12 -6 0 -11 18 -11 40 0 41 -19
61 -57 59 -10 0 -13 -3 -5 -6z"/>
<path d="M3232 1767 c19 -19 46 -28 53 -17 6 10 -26 30 -50 30 -14 0 -14 -2
-3 -13z"/>
<path d="M880 1749 c0 -5 5 -7 10 -4 6 3 10 8 10 11 0 2 -4 4 -10 4 -5 0 -10
-5 -10 -11z"/>
<path d="M930 1750 c0 -5 5 -10 10 -10 6 0 10 5 10 10 0 6 -4 10 -10 10 -5 0
-10 -4 -10 -10z"/>
<path d="M3160 1707 c0 -7 5 -18 12 -25 6 -6 8 -15 4 -19 -4 -4 -11 -1 -16 7
-5 8 -12 11 -16 8 -3 -4 1 -14 10 -23 14 -15 18 -15 31 -1 19 18 19 33 1 52
-18 17 -26 18 -26 1z"/>
<path d="M3230 1709 c0 -5 5 -7 10 -4 6 3 10 8 10 11 0 2 -4 4 -10 4 -5 0 -10
-5 -10 -11z"/>
<path d="M3280 1711 c0 -6 5 -13 10 -16 6 -3 10 1 10 9 0 9 -4 16 -10 16 -5 0
-10 -4 -10 -9z"/>
<path d="M3326 1675 c-4 -27 -10 -101 -12 -164 l-5 -114 25 30 c16 18 43 35
71 43 43 12 45 14 45 50 0 32 -4 39 -29 50 -18 7 -34 24 -41 43 -6 18 -20 50
-29 72 l-18 40 -7 -50z"/>
<path d="M880 1694 c0 -8 5 -12 10 -9 6 4 8 11 5 16 -9 14 -15 11 -15 -7z"/>
<path d="M935 1701 c-3 -5 -1 -12 5 -16 5 -3 10 1 10 9 0 18 -6 21 -15 7z"/>
<path d="M3230 1656 c0 -9 5 -16 10 -16 6 0 10 4 10 9 0 6 -4 13 -10 16 -5 3
-10 -1 -10 -9z"/>
<path d="M3286 1661 c-4 -7 -5 -15 -2 -18 9 -9 19 4 14 18 -4 11 -6 11 -12 0z"/>
<path d="M2010 1652 c0 -9 -64 -12 -260 -12 l-260 0 0 -24 c0 -27 15 -42 25
-26 14 23 155 3 155 -22 0 -5 7 -8 15 -8 8 0 15 -4 15 -8 0 -5 23 -15 50 -22
28 -7 50 -17 50 -22 0 -4 8 -8 18 -8 9 0 35 -14 56 -32 35 -29 38 -34 32 -68
-5 -33 -2 -40 19 -54 13 -9 38 -16 55 -16 27 0 30 3 25 19 -8 25 29 51 85 58
36 5 40 8 40 34 0 16 -4 29 -10 29 -22 0 -91 93 -78 105 2 2 21 13 42 25 27
15 42 18 49 11 6 -6 41 -11 77 -11 62 0 120 -16 120 -32 0 -5 7 -8 15 -8 8 0
15 -4 15 -8 0 -5 23 -15 50 -22 28 -7 50 -17 50 -22 0 -4 5 -8 10 -8 6 0 10
30 10 70 l0 70 -174 0 c-130 0 -176 3 -180 13 -5 10 -7 10 -12 0 -7 -16 -76
-17 -92 -1 -9 9 -12 9 -12 0z"/>
<path d="M1220 1630 c0 -5 -7 -10 -16 -10 -19 0 -44 -24 -44 -42 0 -8 -9 -20
-20 -28 -11 -8 -20 -22 -20 -32 0 -10 -7 -18 -15 -18 -8 0 -15 -9 -15 -19 0
-11 -4 -23 -10 -26 -5 -3 -10 -17 -10 -29 0 -13 -7 -29 -15 -36 -47 -39 -60
-144 -25 -205 11 -20 20 -50 20 -68 0 -21 7 -36 20 -45 15 -9 20 -23 20 -60 0
-36 -5 -51 -20 -62 -11 -8 -20 -20 -20 -28 0 -15 -45 -62 -60 -62 -13 0 -13
-17 0 -25 6 -3 10 -16 10 -28 0 -19 5 -17 39 19 21 23 41 52 44 66 4 13 18 37
32 54 35 41 35 102 -1 128 -22 17 -24 25 -19 58 4 21 3 38 -3 38 -11 0 -32 45
-32 70 0 24 60 150 71 150 5 0 9 7 9 15 0 8 5 15 10 15 6 0 10 5 10 11 0 9 30
40 77 79 7 6 19 10 28 10 8 0 15 5 15 10 0 6 9 10 19 10 22 0 31 19 31 66 l0
34 -55 0 c-30 0 -55 -4 -55 -10z"/>
<path d="M2650 1475 l0 -165 30 0 c17 0 30 5 30 10 0 6 9 10 20 10 11 0 20 5
20 10 0 6 9 10 20 10 11 0 20 5 20 10 0 6 15 10 33 10 21 0 38 7 47 20 8 11
21 20 30 20 9 0 22 9 30 20 19 26 100 29 100 4 0 -9 9 -24 19 -33 11 -9 21
-33 23 -51 3 -31 6 -35 36 -38 l32 -3 0 165 0 166 -245 0 -245 0 0 -165z"/>
<path d="M918 1443 c16 -6 15 -41 -2 -59 -18 -17 -43 -18 -49 -1 -2 6 -8 8
-13 4 -4 -4 -2 -17 5 -28 7 -12 10 -24 6 -27 -3 -4 -10 0 -15 8 -5 8 -12 11
-16 8 -3 -4 2 -15 12 -25 12 -13 19 -14 22 -5 5 16 88 16 96 0 3 -7 3 -3 0 10
-6 23 11 32 19 10 2 -8 8 -9 13 -4 5 5 4 11 -3 13 -8 3 -13 21 -13 43 0 41
-19 61 -57 59 -10 0 -13 -3 -5 -6z"/>
<path d="M480 1370 c0 -5 -13 -10 -29 -10 -17 0 -33 -4 -36 -10 -3 -5 -21 -10
-40 -10 -19 0 -37 -4 -40 -10 -3 -5 -28 -10 -56 -10 -37 0 -49 -4 -49 -15 0
-8 -9 -15 -20 -15 -11 0 -20 -4 -20 -10 0 -6 -28 -10 -65 -10 -37 0 -65 -4
-65 -10 0 -5 -9 -10 -20 -10 -17 0 -20 -7 -20 -44 0 -24 -3 -65 -6 -92 l-7
-49 23 28 c27 34 72 53 156 68 35 6 64 15 64 20 0 5 9 9 20 9 11 0 20 4 20 9
0 5 34 15 75 22 42 6 78 16 81 20 3 5 16 9 30 9 13 0 24 5 24 10 0 12 136 14
144 2 3 -4 28 -14 55 -22 28 -7 51 -17 51 -22 0 -4 8 -8 19 -8 19 0 30 -23 24
-51 -2 -9 -26 -26 -53 -39 -37 -18 -51 -30 -55 -51 -7 -31 1 -69 15 -69 14 0
22 -76 11 -115 -14 -52 12 -130 48 -144 66 -25 71 -25 71 8 0 22 -5 31 -16 31
-8 0 -22 6 -30 14 -16 16 -19 96 -4 96 18 0 11 60 -10 82 -35 38 -21 128 20
128 26 0 40 30 40 85 0 58 -14 85 -44 85 -9 0 -16 5 -16 10 0 6 -13 10 -30 10
-16 0 -30 5 -30 10 0 6 -42 10 -105 10 l-105 0 0 35 c0 19 -4 35 -10 35 -5 0
-10 -4 -10 -10z"/>
<path d="M2483 1285 c-13 -13 -23 -31 -23 -39 0 -8 -5 -16 -11 -18 -15 -5 -16
-105 -2 -119 16 -16 -25 -89 -49 -89 -10 0 -18 -4 -18 -10 0 -5 -9 -10 -20
-10 -11 0 -20 -4 -20 -10 0 -5 -7 -10 -15 -10 -8 0 -23 -4 -33 -9 -9 -5 -31
-15 -49 -22 -23 -10 -37 -27 -54 -63 -12 -27 -22 -57 -22 -65 0 -9 -4 -22 -10
-28 -19 -25 4 -12 33 17 17 17 30 41 30 53 1 28 23 57 44 57 9 0 16 5 16 10 0
6 14 10 30 10 17 0 30 5 30 10 0 6 18 10 40 10 22 0 40 5 40 10 0 6 28 10 65
10 37 0 65 4 65 10 0 6 9 10 20 10 11 0 20 5 20 10 0 6 7 10 16 10 9 0 29 14
44 30 15 17 33 30 40 30 19 0 42 29 38 48 -2 13 -16 18 -58 22 -42 4 -56 9
-58 23 -2 9 1 17 7 17 6 0 11 -4 11 -10 0 -5 5 -10 12 -10 9 0 9 3 0 12 -16
16 -15 85 1 91 8 3 6 9 -8 20 -11 8 -22 13 -25 10 -3 -3 1 -8 8 -10 17 -6 15
-23 -3 -23 -8 0 -15 5 -15 10 0 6 -9 10 -20 10 -11 0 -20 -4 -20 -10 0 -5 5
-10 10 -10 14 0 13 -33 -2 -48 -15 -15 -48 -16 -48 -2 0 6 -4 10 -10 10 -15 0
-12 -29 4 -45 7 -8 31 -15 52 -17 47 -4 52 -22 6 -26 -50 -5 -91 32 -91 83 -1
30 4 45 19 55 20 14 27 31 13 29 -5 0 -18 -11 -30 -24z m17 -125 c0 -5 -4 -10
-10 -10 -5 0 -10 5 -10 10 0 6 5 10 10 10 6 0 10 -4 10 -10z"/>
<path d="M2690 1254 c0 -8 5 -12 10 -9 6 3 10 10 10 16 0 5 -4 9 -10 9 -5 0
-10 -7 -10 -16z"/>
<path d="M2745 1261 c-6 -11 9 -23 19 -14 9 9 7 23 -3 23 -6 0 -12 -4 -16 -9z"/>
<path d="M2690 1200 c0 -5 5 -10 10 -10 6 0 10 5 10 10 0 6 -4 10 -10 10 -5 0
-10 -4 -10 -10z"/>
<path d="M2745 1200 c-3 -5 1 -10 9 -10 9 0 16 5 16 10 0 6 -4 10 -9 10 -6 0
-13 -4 -16 -10z"/>
<path d="M3048 1143 c-13 -3 -18 -15 -18 -39 0 -19 -4 -34 -10 -34 -5 0 -10
-8 -10 -18 0 -10 -9 -24 -20 -32 -41 -30 -24 -40 65 -40 l85 0 0 85 0 85 -37
-1 c-21 -1 -46 -3 -55 -6z"/>
<path d="M841 964 c-18 -21 -6 -30 14 -11 8 9 15 18 15 21 0 11 -15 5 -29 -10z"/>
<path d="M960 970 c0 -5 5 -10 10 -10 6 0 10 -4 10 -10 0 -5 -7 -10 -15 -10
-8 0 -15 5 -15 10 0 6 -9 10 -20 10 -11 0 -20 -4 -20 -10 0 -5 5 -10 10 -10
14 0 13 -33 -2 -48 -15 -15 -48 -16 -48 -2 0 6 -4 10 -10 10 -15 0 -12 -29 4
-46 8 -8 30 -14 48 -14 19 0 39 -5 45 -11 9 -9 10 -7 6 10 -3 12 -1 21 6 21 6
0 11 17 11 40 0 22 5 40 10 40 17 0 11 14 -10 28 -12 7 -20 8 -20 2z"/>
<path d="M844 835 c8 -8 18 -15 22 -15 3 0 1 7 -6 15 -7 8 -17 15 -22 15 -5 0
-3 -7 6 -15z"/>
<path d="M2928 806 c-10 -7 -18 -21 -18 -30 0 -9 -8 -16 -20 -16 -11 0 -20 -4
-20 -10 0 -5 -13 -10 -30 -10 -29 0 -30 -1 -30 -49 0 -35 4 -51 16 -55 33 -13
113 -6 146 13 18 10 68 29 110 42 43 13 78 30 78 37 0 6 3 12 8 12 4 0 12 16
18 35 14 44 11 45 -129 45 -77 -1 -117 -5 -129 -14z"/>
<path d="M2242 777 c19 -19 46 -28 53 -17 6 10 -26 30 -50 30 -14 0 -14 -2 -3
-13z"/>
<path d="M2170 717 c0 -7 5 -18 12 -25 6 -6 8 -15 4 -19 -4 -4 -11 -1 -16 7
-5 8 -12 11 -16 8 -3 -4 1 -14 10 -23 14 -15 18 -15 31 -1 19 18 19 33 1 52
-18 17 -26 18 -26 1z"/>
<path d="M2240 719 c0 -5 5 -7 10 -4 6 3 10 8 10 11 0 2 -4 4 -10 4 -5 0 -10
-5 -10 -11z"/>
<path d="M2296 715 c4 -8 8 -15 10 -15 2 0 4 7 4 15 0 8 -4 15 -10 15 -5 0 -7
-7 -4 -15z"/>
<path d="M2240 664 c0 -8 5 -12 10 -9 6 4 8 11 5 16 -9 14 -15 11 -15 -7z"/>
<path d="M2295 671 c-3 -5 -1 -12 5 -16 5 -3 10 1 10 9 0 18 -6 21 -15 7z"/>
<path d="M2030 644 c0 -24 37 -68 65 -76 11 -3 28 -9 38 -13 14 -6 17 -2 17
24 0 23 -5 31 -18 31 -10 0 -24 9 -32 20 -13 18 -70 30 -70 14z"/>
<path d="M2560 640 c0 -5 -18 -10 -40 -10 -22 0 -40 -4 -40 -10 0 -5 -25 -10
-55 -10 -30 0 -55 -4 -55 -10 0 -5 -9 -10 -19 -10 -10 0 -22 -7 -25 -16 -9
-25 -7 -64 4 -64 6 0 10 3 10 8 0 14 115 55 190 67 25 4 47 11 50 14 3 4 25
17 50 29 l45 21 -57 1 c-32 0 -58 -4 -58 -10z"/>
<path d="M823 515 c-18 -20 -16 -52 3 -59 10 -4 23 2 34 14 20 23 100 29 100
8 0 -9 3 -8 9 2 12 18 5 30 -20 30 -10 0 -19 5 -19 10 0 16 -93 11 -107 -5z
m27 -35 c0 -5 -4 -10 -10 -10 -5 0 -10 5 -10 10 0 6 5 10 10 10 6 0 10 -4 10
-10z"/>
<path d="M980 462 c0 -4 9 -18 20 -32 12 -16 20 -41 20 -67 0 -24 5 -43 10
-43 6 0 10 23 10 50 0 28 -4 50 -10 50 -5 0 -10 8 -10 19 0 10 -9 21 -20 24
-11 3 -20 2 -20 -1z"/>
<path d="M922 447 c19 -19 46 -28 53 -17 6 10 -26 30 -50 30 -14 0 -14 -2 -3
-13z"/>
<path d="M1391 438 c-16 -44 8 -78 56 -78 42 0 63 19 63 58 0 34 -14 42 -71
42 -32 0 -41 -4 -48 -22z m79 -9 c0 -6 -7 -17 -15 -25 -12 -12 -17 -13 -28 -2
-10 9 -11 16 -3 25 14 15 46 17 46 2z"/>
<path d="M1540 429 c0 -5 5 -7 10 -4 6 3 10 8 10 11 0 2 -4 4 -10 4 -5 0 -10
-5 -10 -11z"/>
<path d="M1595 430 c3 -5 8 -10 11 -10 2 0 4 5 4 10 0 6 -5 10 -11 10 -5 0 -7
-4 -4 -10z"/>
<path d="M1640 390 c0 -16 5 -30 10 -30 6 0 10 14 10 30 0 17 -4 30 -10 30 -5
0 -10 -13 -10 -30z"/>
<path d="M810 387 c0 -13 11 -33 25 -45 23 -20 28 -21 40 -8 19 19 19 34 0 53
-21 21 -33 7 -16 -18 7 -12 10 -23 7 -26 -9 -9 -36 25 -36 46 0 12 -4 21 -10
21 -5 0 -10 -10 -10 -23z"/>
<path d="M920 385 c0 -8 2 -15 4 -15 2 0 6 7 10 15 3 8 1 15 -4 15 -6 0 -10
-7 -10 -15z"/>
<path d="M976 385 c4 -8 8 -15 10 -15 2 0 4 7 4 15 0 8 -4 15 -10 15 -5 0 -7
-7 -4 -15z"/>
<path d="M1540 380 c0 -5 5 -10 11 -10 5 0 7 5 4 10 -3 6 -8 10 -11 10 -2 0
-4 -4 -4 -10z"/>
<path d="M1595 380 c-3 -5 -1 -10 4 -10 6 0 11 5 11 10 0 6 -2 10 -4 10 -3 0
-8 -4 -11 -10z"/>
<path d="M920 334 c0 -8 5 -12 10 -9 6 4 8 11 5 16 -9 14 -15 11 -15 -7z"/>
<path d="M975 341 c-3 -5 -1 -12 5 -16 5 -3 10 1 10 9 0 18 -6 21 -15 7z"/>
</g>
</svg>
